<svg width="1200" height="630" viewBox="0 0 1200 630" fill="none" xmlns="http://www.w3.org/2000/svg">
    <rect width="1200" height="630" fill="#1E1E1E" />
    <rect width="1200" height="630" fill="url(#paint0_linear_0_1)" />
    <path fill-rule="evenodd" clip-rule="evenodd"
        d="M606.541 356.841H643.206C645.754 356.841 647.837 358.949 647.837 361.533V383.208C652.253 384.297 656.175 386.84 658.973 390.427C661.771 394.015 663.282 398.439 663.265 402.989C663.265 414.219 654.277 423.33 643.206 423.33C632.123 423.33 623.136 414.219 623.136 402.989C623.136 393.378 629.731 385.316 638.576 383.196V366.225H606.553V421.758C606.556 422.565 606.352 423.359 605.96 424.063C605.568 424.768 605.002 425.361 604.315 425.783L572.293 445.326C571.567 445.771 570.731 446.004 569.879 446C569.027 445.996 568.194 445.754 567.472 445.303L508.832 408.551C508.155 408.126 507.598 407.535 507.213 406.835C506.827 406.135 506.627 405.348 506.629 404.549V366.213L477.333 349.183C476.667 348.797 476.106 348.253 475.699 347.599C475.292 346.944 475.052 346.2 475 345.432V345.11V284.111C475 282.444 475.869 280.896 477.286 280.062L506.629 262.651V225.065C506.629 223.529 507.368 222.1 508.594 221.23L508.844 221.064L567.496 184.693C568.223 184.24 569.062 184 569.918 184C570.774 184 571.614 184.24 572.341 184.693L604.363 204.641C605.04 205.066 605.597 205.656 605.982 206.356C606.367 207.056 606.568 207.843 606.565 208.642V262.603H652.468V239.773C648.05 238.683 644.126 236.139 641.328 232.549C638.53 228.959 637.02 224.532 637.04 219.98C637.04 208.749 646.028 199.639 657.098 199.639C668.181 199.639 677.157 208.749 677.157 219.98C677.157 229.591 670.574 237.653 661.729 239.773V267.295C661.734 267.908 661.618 268.515 661.387 269.083C661.157 269.65 660.817 270.167 660.387 270.603C659.957 271.039 659.445 271.385 658.881 271.623C658.316 271.86 657.711 271.984 657.098 271.988H606.565V293.496H685.419C686.431 289.068 688.912 285.113 692.456 282.274C696.001 279.435 700.401 277.879 704.941 277.859C716.012 277.859 725 286.957 725 298.188C725 309.418 716.024 318.529 704.941 318.529C700.399 318.508 695.998 316.951 692.453 314.109C688.908 311.268 686.429 307.31 685.419 302.88H606.541V325.948H665.503L676.395 340.001C679.429 338.227 682.881 337.293 686.395 337.298C697.477 337.298 706.453 346.396 706.453 357.627C706.453 368.857 697.477 377.968 686.395 377.968C675.324 377.968 666.336 368.857 666.336 357.627C666.336 353.506 667.55 349.671 669.622 346.468L661.003 335.333H606.541V356.841ZM569.912 194.196L545.592 209.274V244.62H536.33V215.014L515.891 227.697V262.77L541.009 278.966L566.805 262.722V235.617H576.067V265.342C576.067 266.962 575.233 268.474 573.876 269.332L545.985 286.874V311.657L562.912 323.674L557.603 331.367L540.866 319.482L522.652 331.45L517.617 323.59L536.723 311.026V287.327L511.165 270.82L484.261 286.779V306.739L507.737 292.579L512.474 300.641L484.261 317.659V342.395L510.046 357.377L537.068 341.085L541.794 349.147L515.891 364.76V401.941L538.223 415.934L566.377 398.952L571.114 407.026L547.104 421.508L569.936 435.811L597.292 419.102V350.267L540.652 384.72L535.89 376.682L597.292 339.334V211.262L569.912 194.196ZM643.206 392.056C641.777 392.064 640.363 392.354 639.046 392.909C637.729 393.464 636.534 394.274 635.53 395.292C634.526 396.309 633.732 397.515 633.195 398.84C632.657 400.165 632.386 401.583 632.397 403.013C632.397 409.051 637.23 413.946 643.206 413.946C644.634 413.936 646.045 413.646 647.36 413.091C648.675 412.536 649.868 411.727 650.871 410.71C651.873 409.694 652.666 408.49 653.203 407.167C653.741 405.845 654.013 404.429 654.003 403.001C654.014 401.572 653.744 400.155 653.207 398.831C652.67 397.507 651.878 396.301 650.875 395.284C649.872 394.266 648.679 393.456 647.363 392.901C646.047 392.345 644.635 392.066 643.206 392.056ZM686.419 346.682C684.989 346.69 683.575 346.98 682.258 347.535C680.941 348.09 679.746 348.9 678.742 349.917C677.738 350.935 676.945 352.141 676.407 353.466C675.87 354.791 675.599 356.209 675.609 357.639C675.609 363.689 680.443 368.595 686.407 368.595C687.836 368.587 689.25 368.298 690.567 367.743C691.884 367.187 693.079 366.378 694.083 365.36C695.087 364.342 695.88 363.136 696.418 361.812C696.956 360.487 697.227 359.069 697.216 357.639C697.227 356.209 696.956 354.791 696.418 353.466C695.88 352.141 695.087 350.935 694.083 349.917C693.079 348.9 691.884 348.09 690.567 347.535C689.25 346.98 687.848 346.69 686.419 346.682ZM704.93 287.255C703.5 287.263 702.087 287.553 700.769 288.108C699.452 288.663 698.257 289.473 697.253 290.49C696.249 291.508 695.456 292.714 694.918 294.039C694.381 295.364 694.11 296.782 694.121 298.212C694.121 304.25 698.966 309.144 704.93 309.144C706.357 309.135 707.768 308.844 709.083 308.289C710.398 307.734 711.591 306.926 712.594 305.909C713.597 304.893 714.389 303.689 714.927 302.366C715.464 301.043 715.736 299.628 715.727 298.2C715.738 296.771 715.467 295.354 714.93 294.03C714.393 292.705 713.601 291.5 712.598 290.483C711.595 289.465 710.402 288.655 709.086 288.099C707.77 287.543 706.358 287.253 704.93 287.243V287.255ZM657.087 209.012C655.658 209.021 654.246 209.312 652.93 209.868C651.614 210.423 650.421 211.233 649.418 212.251C648.415 213.268 647.623 214.474 647.086 215.798C646.549 217.122 646.278 218.539 646.289 219.968C646.289 226.018 651.123 230.924 657.087 230.924C658.516 230.917 659.93 230.627 661.247 230.072C662.564 229.517 663.759 228.707 664.763 227.689C665.767 226.672 666.56 225.466 667.098 224.141C667.636 222.816 667.907 221.398 667.896 219.968C667.907 218.538 667.636 217.12 667.098 215.795C666.56 214.47 665.767 213.264 664.763 212.247C663.759 211.229 662.564 210.419 661.247 209.864C659.93 209.309 658.516 209.019 657.087 209.012Z"
        fill="black" />
    <defs>
        <linearGradient id="paint0_linear_0_1" x1="4.84383e-05" y1="614.305" x2="1200" y2="15.6947"
            gradientUnits="userSpaceOnUse">
            <stop offset="0.201923" stop-color="#E0BBFF" />
            <stop offset="0.403846" stop-color="#A3D5FF" />
            <stop offset="0.600962" stop-color="#B2F7EF" />
            <stop offset="0.798077" stop-color="#A2F2C2" />
            <stop offset="1" stop-color="#F5F9B2" />
        </linearGradient>
    </defs>
</svg>