<svg width="1200" height="630" viewBox="0 0 1200 630" fill="none" xmlns="http://www.w3.org/2000/svg">
    <rect width="1200" height="630" fill="#1E1E1E" />
    <rect width="1200" height="630" fill="url(#paint0_linear_0_1)" />
    <path
        d="M516.012 301L524.844 267.4H535.884L544.716 301H538.188L536.364 293.608H524.364L522.54 301H516.012ZM525.852 287.752H534.876L530.796 271.384H529.932L525.852 287.752ZM548.93 301V277.192H554.882V279.784H555.746C556.162 278.984 556.85 278.296 557.81 277.72C558.77 277.112 560.034 276.808 561.602 276.808C563.298 276.808 564.658 277.144 565.682 277.816C566.706 278.456 567.49 279.304 568.034 280.36H568.898C569.442 279.336 570.21 278.488 571.202 277.816C572.194 277.144 573.602 276.808 575.426 276.808C576.898 276.808 578.226 277.128 579.41 277.768C580.626 278.376 581.586 279.32 582.29 280.6C583.026 281.848 583.394 283.432 583.394 285.352V301H577.346V285.784C577.346 284.472 577.01 283.496 576.338 282.856C575.666 282.184 574.722 281.848 573.506 281.848C572.13 281.848 571.058 282.296 570.29 283.192C569.554 284.056 569.186 285.304 569.186 286.936V301H563.138V285.784C563.138 284.472 562.802 283.496 562.13 282.856C561.458 282.184 560.514 281.848 559.298 281.848C557.922 281.848 556.85 282.296 556.082 283.192C555.346 284.056 554.978 285.304 554.978 286.936V301H548.93ZM597.291 301.672C595.595 301.672 594.075 301.384 592.731 300.808C591.387 300.2 590.315 299.336 589.515 298.216C588.747 297.064 588.363 295.672 588.363 294.04C588.363 292.408 588.747 291.048 589.515 289.96C590.315 288.84 591.403 288.008 592.779 287.464C594.187 286.888 595.787 286.6 597.579 286.6H604.107V285.256C604.107 284.136 603.755 283.224 603.051 282.52C602.347 281.784 601.227 281.416 599.691 281.416C598.187 281.416 597.067 281.768 596.331 282.472C595.595 283.144 595.115 284.024 594.891 285.112L589.323 283.24C589.707 282.024 590.315 280.92 591.147 279.928C592.011 278.904 593.147 278.088 594.555 277.48C595.995 276.84 597.739 276.52 599.787 276.52C602.923 276.52 605.403 277.304 607.227 278.872C609.051 280.44 609.963 282.712 609.963 285.688V294.568C609.963 295.528 610.411 296.008 611.307 296.008H613.227V301H609.195C608.011 301 607.035 300.712 606.267 300.136C605.499 299.56 605.115 298.792 605.115 297.832V297.784H604.203C604.075 298.168 603.787 298.68 603.339 299.32C602.891 299.928 602.187 300.472 601.227 300.952C600.267 301.432 598.955 301.672 597.291 301.672ZM598.347 296.776C600.043 296.776 601.419 296.312 602.475 295.384C603.563 294.424 604.107 293.16 604.107 291.592V291.112H598.011C596.891 291.112 596.011 291.352 595.371 291.832C594.731 292.312 594.411 292.984 594.411 293.848C594.411 294.712 594.747 295.416 595.419 295.96C596.091 296.504 597.067 296.776 598.347 296.776ZM616.785 301V293.8L629.841 282.952V282.184H617.265V277.192H636.465V284.392L623.409 295.24V296.008H636.849V301H616.785ZM653.399 301.672C651.031 301.672 648.903 301.192 647.015 300.232C645.127 299.272 643.639 297.88 642.551 296.056C641.463 294.232 640.919 292.04 640.919 289.48V288.712C640.919 286.152 641.463 283.96 642.551 282.136C643.639 280.312 645.127 278.92 647.015 277.96C648.903 277 651.031 276.52 653.399 276.52C655.767 276.52 657.895 277 659.783 277.96C661.671 278.92 663.159 280.312 664.247 282.136C665.335 283.96 665.879 286.152 665.879 288.712V289.48C665.879 292.04 665.335 294.232 664.247 296.056C663.159 297.88 661.671 299.272 659.783 300.232C657.895 301.192 655.767 301.672 653.399 301.672ZM653.399 296.296C655.255 296.296 656.791 295.704 658.007 294.52C659.223 293.304 659.831 291.576 659.831 289.336V288.856C659.831 286.616 659.223 284.904 658.007 283.72C656.823 282.504 655.287 281.896 653.399 281.896C651.543 281.896 650.007 282.504 648.791 283.72C647.575 284.904 646.967 286.616 646.967 288.856V289.336C646.967 291.576 647.575 293.304 648.791 294.52C650.007 295.704 651.543 296.296 653.399 296.296ZM671.462 301V277.192H677.414V280.312H678.278C678.662 279.48 679.382 278.696 680.438 277.96C681.494 277.192 683.094 276.808 685.238 276.808C687.094 276.808 688.71 277.24 690.086 278.104C691.494 278.936 692.582 280.104 693.35 281.608C694.118 283.08 694.502 284.808 694.502 286.792V301H688.454V287.272C688.454 285.48 688.006 284.136 687.11 283.24C686.246 282.344 684.998 281.896 683.366 281.896C681.51 281.896 680.07 282.52 679.046 283.768C678.022 284.984 677.51 286.696 677.51 288.904V301H671.462ZM712.075 301V295.432H716.491V272.968H712.075V267.4H729.355C731.403 267.4 733.179 267.752 734.683 268.456C736.219 269.128 737.403 270.104 738.235 271.384C739.099 272.632 739.531 274.136 739.531 275.896V276.376C739.531 277.912 739.243 279.176 738.667 280.168C738.091 281.128 737.403 281.88 736.603 282.424C735.835 282.936 735.099 283.304 734.395 283.528V284.392C735.099 284.584 735.867 284.952 736.699 285.496C737.531 286.008 738.235 286.76 738.811 287.752C739.419 288.744 739.723 290.04 739.723 291.64V292.12C739.723 293.976 739.291 295.576 738.427 296.92C737.563 298.232 736.363 299.24 734.827 299.944C733.323 300.648 731.563 301 729.547 301H712.075ZM722.827 295.24H728.779C730.155 295.24 731.259 294.904 732.091 294.232C732.955 293.56 733.387 292.6 733.387 291.352V290.872C733.387 289.624 732.971 288.664 732.139 287.992C731.307 287.32 730.187 286.984 728.779 286.984H722.827V295.24ZM722.827 281.224H728.683C729.995 281.224 731.067 280.888 731.899 280.216C732.763 279.544 733.195 278.616 733.195 277.432V276.952C733.195 275.736 732.779 274.808 731.947 274.168C731.115 273.496 730.027 273.16 728.683 273.16H722.827V281.224ZM755.95 301.672C753.582 301.672 751.486 301.176 749.662 300.184C747.87 299.16 746.462 297.736 745.438 295.912C744.446 294.056 743.95 291.88 743.95 289.384V288.808C743.95 286.312 744.446 284.152 745.438 282.328C746.43 280.472 747.822 279.048 749.614 278.056C751.406 277.032 753.486 276.52 755.854 276.52C758.19 276.52 760.222 277.048 761.95 278.104C763.678 279.128 765.022 280.568 765.982 282.424C766.942 284.248 767.422 286.376 767.422 288.808V290.872H750.094C750.158 292.504 750.766 293.832 751.918 294.856C753.07 295.88 754.478 296.392 756.142 296.392C757.838 296.392 759.086 296.024 759.886 295.288C760.686 294.552 761.294 293.736 761.71 292.84L766.654 295.432C766.206 296.264 765.55 297.176 764.686 298.168C763.854 299.128 762.734 299.96 761.326 300.664C759.918 301.336 758.126 301.672 755.95 301.672ZM750.142 286.36H761.278C761.15 284.984 760.59 283.88 759.598 283.048C758.638 282.216 757.374 281.8 755.806 281.8C754.174 281.8 752.878 282.216 751.918 283.048C750.958 283.88 750.366 284.984 750.142 286.36ZM782.405 301.672C780.517 301.672 778.741 301.208 777.077 300.28C775.445 299.32 774.133 297.928 773.141 296.104C772.149 294.28 771.653 292.072 771.653 289.48V288.712C771.653 286.12 772.149 283.912 773.141 282.088C774.133 280.264 775.445 278.888 777.077 277.96C778.709 277 780.485 276.52 782.405 276.52C783.845 276.52 785.045 276.696 786.005 277.048C786.997 277.368 787.797 277.784 788.405 278.296C789.013 278.808 789.477 279.352 789.797 279.928H790.661V267.4H796.709V301H790.757V298.12H789.893C789.349 299.016 788.501 299.832 787.349 300.568C786.229 301.304 784.581 301.672 782.405 301.672ZM784.229 296.392C786.085 296.392 787.637 295.8 788.885 294.616C790.133 293.4 790.757 291.64 790.757 289.336V288.856C790.757 286.552 790.133 284.808 788.885 283.624C787.669 282.408 786.117 281.8 784.229 281.8C782.373 281.8 780.821 282.408 779.573 283.624C778.325 284.808 777.701 286.552 777.701 288.856V289.336C777.701 291.64 778.325 293.4 779.573 294.616C780.821 295.8 782.373 296.392 784.229 296.392ZM803.415 301V277.192H809.367V279.88H810.231C810.583 278.92 811.159 278.216 811.959 277.768C812.791 277.32 813.751 277.096 814.839 277.096H817.719V282.472H814.743C813.207 282.472 811.943 282.888 810.951 283.72C809.959 284.52 809.463 285.768 809.463 287.464V301H803.415ZM832.93 301.672C830.562 301.672 828.434 301.192 826.546 300.232C824.658 299.272 823.17 297.88 822.082 296.056C820.994 294.232 820.45 292.04 820.45 289.48V288.712C820.45 286.152 820.994 283.96 822.082 282.136C823.17 280.312 824.658 278.92 826.546 277.96C828.434 277 830.562 276.52 832.93 276.52C835.298 276.52 837.426 277 839.314 277.96C841.202 278.92 842.69 280.312 843.778 282.136C844.866 283.96 845.41 286.152 845.41 288.712V289.48C845.41 292.04 844.866 294.232 843.778 296.056C842.69 297.88 841.202 299.272 839.314 300.232C837.426 301.192 835.298 301.672 832.93 301.672ZM832.93 296.296C834.786 296.296 836.322 295.704 837.538 294.52C838.754 293.304 839.362 291.576 839.362 289.336V288.856C839.362 286.616 838.754 284.904 837.538 283.72C836.354 282.504 834.818 281.896 832.93 281.896C831.074 281.896 829.538 282.504 828.322 283.72C827.106 284.904 826.498 286.616 826.498 288.856V289.336C826.498 291.576 827.106 293.304 828.322 294.52C829.538 295.704 831.074 296.296 832.93 296.296ZM862.177 301.672C859.873 301.672 857.777 301.192 855.889 300.232C854.033 299.272 852.561 297.88 851.473 296.056C850.385 294.232 849.841 292.024 849.841 289.432V288.76C849.841 286.168 850.385 283.96 851.473 282.136C852.561 280.312 854.033 278.92 855.889 277.96C857.777 277 859.873 276.52 862.177 276.52C864.449 276.52 866.401 276.92 868.033 277.72C869.665 278.52 870.977 279.624 871.969 281.032C872.993 282.408 873.665 283.976 873.985 285.736L868.129 286.984C868.001 286.024 867.713 285.16 867.265 284.392C866.817 283.624 866.177 283.016 865.345 282.568C864.545 282.12 863.537 281.896 862.321 281.896C861.105 281.896 860.001 282.168 859.009 282.712C858.049 283.224 857.281 284.008 856.705 285.064C856.161 286.088 855.889 287.352 855.889 288.856V289.336C855.889 290.84 856.161 292.12 856.705 293.176C857.281 294.2 858.049 294.984 859.009 295.528C860.001 296.04 861.105 296.296 862.321 296.296C864.145 296.296 865.521 295.832 866.449 294.904C867.409 293.944 868.017 292.696 868.273 291.16L874.129 292.552C873.713 294.248 872.993 295.8 871.969 297.208C870.977 298.584 869.665 299.672 868.033 300.472C866.401 301.272 864.449 301.672 862.177 301.672ZM879.118 301V267.4H885.166V285.976H886.03L893.902 277.192H901.774L890.782 288.712L902.158 301H894.382L886.03 291.544H885.166V301H879.118ZM530.965 362L526.549 328.4H532.837L536.101 357.584H536.965L541.189 328.4H552.133L556.357 357.584H557.221L560.485 328.4H566.773L562.357 362H551.413L547.093 332.144H546.229L541.909 362H530.965ZM571.594 362V338.192H577.642V362H571.594ZM574.618 335.408C573.53 335.408 572.602 335.056 571.834 334.352C571.098 333.648 570.73 332.72 570.73 331.568C570.73 330.416 571.098 329.488 571.834 328.784C572.602 328.08 573.53 327.728 574.618 327.728C575.738 327.728 576.666 328.08 577.402 328.784C578.138 329.488 578.506 330.416 578.506 331.568C578.506 332.72 578.138 333.648 577.402 334.352C576.666 335.056 575.738 335.408 574.618 335.408ZM593.464 362C591.896 362 590.616 361.52 589.624 360.56C588.664 359.568 588.184 358.256 588.184 356.624V343.184H582.232V338.192H588.184V330.8H594.232V338.192H600.76V343.184H594.232V355.568C594.232 356.528 594.68 357.008 595.576 357.008H600.184V362H593.464ZM606.235 362V328.4H612.283V341.12H613.147C613.403 340.608 613.803 340.096 614.347 339.584C614.891 339.072 615.611 338.656 616.507 338.336C617.435 337.984 618.603 337.808 620.011 337.808C621.867 337.808 623.483 338.24 624.859 339.104C626.267 339.936 627.355 341.104 628.123 342.608C628.891 344.08 629.275 345.808 629.275 347.792V362H623.227V348.272C623.227 346.48 622.779 345.136 621.883 344.24C621.019 343.344 619.771 342.896 618.139 342.896C616.283 342.896 614.843 343.52 613.819 344.768C612.795 345.984 612.283 347.696 612.283 349.904V362H606.235ZM657.457 362.672C654.001 362.672 651.249 361.728 649.201 359.84C647.185 357.952 646.177 355.312 646.177 351.92V348.752H652.513V351.92C652.513 353.424 652.929 354.608 653.761 355.472C654.593 356.304 655.761 356.72 657.265 356.72C658.673 356.72 659.761 356.304 660.529 355.472C661.329 354.64 661.729 353.456 661.729 351.92V334.16H655.969V328.4H671.905V334.16H668.065V351.92C668.065 355.408 667.121 358.08 665.233 359.936C663.345 361.76 660.753 362.672 657.457 362.672ZM683.049 362.672C681.353 362.672 679.833 362.384 678.489 361.808C677.145 361.2 676.073 360.336 675.273 359.216C674.505 358.064 674.121 356.672 674.121 355.04C674.121 353.408 674.505 352.048 675.273 350.96C676.073 349.84 677.161 349.008 678.537 348.464C679.945 347.888 681.545 347.6 683.337 347.6H689.865V346.256C689.865 345.136 689.513 344.224 688.809 343.52C688.105 342.784 686.985 342.416 685.449 342.416C683.945 342.416 682.825 342.768 682.089 343.472C681.353 344.144 680.873 345.024 680.649 346.112L675.081 344.24C675.465 343.024 676.073 341.92 676.905 340.928C677.769 339.904 678.905 339.088 680.313 338.48C681.753 337.84 683.497 337.52 685.545 337.52C688.681 337.52 691.161 338.304 692.985 339.872C694.809 341.44 695.721 343.712 695.721 346.688V355.568C695.721 356.528 696.169 357.008 697.065 357.008H698.985V362H694.953C693.769 362 692.793 361.712 692.025 361.136C691.257 360.56 690.873 359.792 690.873 358.832V358.784H689.961C689.833 359.168 689.545 359.68 689.097 360.32C688.649 360.928 687.945 361.472 686.985 361.952C686.025 362.432 684.713 362.672 683.049 362.672ZM684.105 357.776C685.801 357.776 687.177 357.312 688.233 356.384C689.321 355.424 689.865 354.16 689.865 352.592V352.112H683.769C682.649 352.112 681.769 352.352 681.129 352.832C680.489 353.312 680.169 353.984 680.169 354.848C680.169 355.712 680.505 356.416 681.177 356.96C681.849 357.504 682.825 357.776 684.105 357.776ZM707.04 362L699.456 338.192H705.888L711.408 357.584H712.272L717.792 338.192H724.224L716.64 362H707.04ZM735.174 362.672C733.478 362.672 731.958 362.384 730.614 361.808C729.27 361.2 728.198 360.336 727.398 359.216C726.63 358.064 726.246 356.672 726.246 355.04C726.246 353.408 726.63 352.048 727.398 350.96C728.198 349.84 729.286 349.008 730.662 348.464C732.07 347.888 733.67 347.6 735.462 347.6H741.99V346.256C741.99 345.136 741.638 344.224 740.934 343.52C740.23 342.784 739.11 342.416 737.574 342.416C736.07 342.416 734.95 342.768 734.214 343.472C733.478 344.144 732.998 345.024 732.774 346.112L727.206 344.24C727.59 343.024 728.198 341.92 729.03 340.928C729.894 339.904 731.03 339.088 732.438 338.48C733.878 337.84 735.622 337.52 737.67 337.52C740.806 337.52 743.286 338.304 745.11 339.872C746.934 341.44 747.846 343.712 747.846 346.688V355.568C747.846 356.528 748.294 357.008 749.19 357.008H751.11V362H747.078C745.894 362 744.918 361.712 744.15 361.136C743.382 360.56 742.998 359.792 742.998 358.832V358.784H742.086C741.958 359.168 741.67 359.68 741.222 360.32C740.774 360.928 740.07 361.472 739.11 361.952C738.15 362.432 736.838 362.672 735.174 362.672ZM736.23 357.776C737.926 357.776 739.302 357.312 740.358 356.384C741.446 355.424 741.99 354.16 741.99 352.592V352.112H735.894C734.774 352.112 733.894 352.352 733.254 352.832C732.614 353.312 732.294 353.984 732.294 354.848C732.294 355.712 732.63 356.416 733.302 356.96C733.974 357.504 734.95 357.776 736.23 357.776ZM767.004 362.672C764.412 362.672 762.124 362.208 760.14 361.28C758.156 360.352 756.604 359.024 755.484 357.296C754.364 355.568 753.804 353.488 753.804 351.056V349.712H760.044V351.056C760.044 353.072 760.668 354.592 761.916 355.616C763.164 356.608 764.86 357.104 767.004 357.104C769.18 357.104 770.796 356.672 771.852 355.808C772.94 354.944 773.484 353.84 773.484 352.496C773.484 351.568 773.212 350.816 772.668 350.24C772.156 349.664 771.388 349.2 770.364 348.848C769.372 348.464 768.156 348.112 766.716 347.792L765.612 347.552C763.308 347.04 761.324 346.4 759.66 345.632C758.028 344.832 756.764 343.792 755.868 342.512C755.004 341.232 754.572 339.568 754.572 337.52C754.572 335.472 755.052 333.728 756.012 332.288C757.004 330.816 758.38 329.696 760.14 328.928C761.932 328.128 764.028 327.728 766.428 327.728C768.828 327.728 770.956 328.144 772.812 328.976C774.7 329.776 776.172 330.992 777.228 332.624C778.316 334.224 778.86 336.24 778.86 338.672V340.112H772.62V338.672C772.62 337.392 772.364 336.368 771.852 335.6C771.372 334.8 770.668 334.224 769.74 333.872C768.812 333.488 767.708 333.296 766.428 333.296C764.508 333.296 763.084 333.664 762.156 334.4C761.26 335.104 760.812 336.08 760.812 337.328C760.812 338.16 761.02 338.864 761.436 339.44C761.884 340.016 762.54 340.496 763.404 340.88C764.268 341.264 765.372 341.6 766.716 341.888L767.82 342.128C770.22 342.64 772.3 343.296 774.06 344.096C775.852 344.896 777.244 345.952 778.236 347.264C779.228 348.576 779.724 350.256 779.724 352.304C779.724 354.352 779.196 356.16 778.14 357.728C777.116 359.264 775.644 360.48 773.724 361.376C771.836 362.24 769.596 362.672 767.004 362.672ZM795.825 362.672C793.521 362.672 791.425 362.192 789.537 361.232C787.681 360.272 786.209 358.88 785.121 357.056C784.033 355.232 783.489 353.024 783.489 350.432V349.76C783.489 347.168 784.033 344.96 785.121 343.136C786.209 341.312 787.681 339.92 789.537 338.96C791.425 338 793.521 337.52 795.825 337.52C798.097 337.52 800.049 337.92 801.681 338.72C803.313 339.52 804.625 340.624 805.617 342.032C806.641 343.408 807.313 344.976 807.633 346.736L801.777 347.984C801.649 347.024 801.361 346.16 800.913 345.392C800.465 344.624 799.825 344.016 798.993 343.568C798.193 343.12 797.185 342.896 795.969 342.896C794.753 342.896 793.649 343.168 792.657 343.712C791.697 344.224 790.929 345.008 790.353 346.064C789.809 347.088 789.537 348.352 789.537 349.856V350.336C789.537 351.84 789.809 353.12 790.353 354.176C790.929 355.2 791.697 355.984 792.657 356.528C793.649 357.04 794.753 357.296 795.969 357.296C797.793 357.296 799.169 356.832 800.097 355.904C801.057 354.944 801.665 353.696 801.921 352.16L807.777 353.552C807.361 355.248 806.641 356.8 805.617 358.208C804.625 359.584 803.313 360.672 801.681 361.472C800.049 362.272 798.097 362.672 795.825 362.672ZM812.766 362V338.192H818.718V340.88H819.582C819.934 339.92 820.51 339.216 821.31 338.768C822.142 338.32 823.102 338.096 824.19 338.096H827.07V343.472H824.094C822.558 343.472 821.294 343.888 820.302 344.72C819.31 345.52 818.814 346.768 818.814 348.464V362H812.766ZM831.798 362V338.192H837.846V362H831.798ZM834.822 335.408C833.734 335.408 832.806 335.056 832.038 334.352C831.302 333.648 830.934 332.72 830.934 331.568C830.934 330.416 831.302 329.488 832.038 328.784C832.806 328.08 833.734 327.728 834.822 327.728C835.942 327.728 836.87 328.08 837.606 328.784C838.342 329.488 838.71 330.416 838.71 331.568C838.71 332.72 838.342 333.648 837.606 334.352C836.87 335.056 835.942 335.408 834.822 335.408ZM844.548 371.6V338.192H850.5V341.072H851.364C851.908 340.144 852.756 339.328 853.908 338.624C855.06 337.888 856.708 337.52 858.852 337.52C860.772 337.52 862.548 338 864.18 338.96C865.812 339.888 867.124 341.264 868.116 343.088C869.108 344.912 869.604 347.12 869.604 349.712V350.48C869.604 353.072 869.108 355.28 868.116 357.104C867.124 358.928 865.812 360.32 864.18 361.28C862.548 362.208 860.772 362.672 858.852 362.672C857.412 362.672 856.196 362.496 855.204 362.144C854.244 361.824 853.46 361.408 852.852 360.896C852.276 360.352 851.812 359.808 851.46 359.264H850.596V371.6H844.548ZM857.028 357.392C858.916 357.392 860.468 356.8 861.684 355.616C862.932 354.4 863.556 352.64 863.556 350.336V349.856C863.556 347.552 862.932 345.808 861.684 344.624C860.436 343.408 858.884 342.8 857.028 342.8C855.172 342.8 853.62 343.408 852.372 344.624C851.124 345.808 850.5 347.552 850.5 349.856V350.336C850.5 352.64 851.124 354.4 852.372 355.616C853.62 356.8 855.172 357.392 857.028 357.392ZM883.48 362C881.912 362 880.632 361.52 879.64 360.56C878.68 359.568 878.2 358.256 878.2 356.624V343.184H872.248V338.192H878.2V330.8H884.248V338.192H890.776V343.184H884.248V355.568C884.248 356.528 884.696 357.008 885.592 357.008H890.2V362H883.48Z"
        fill="black" />
    <path fill-rule="evenodd" clip-rule="evenodd"
        d="M390.71 345.683H417.109C418.943 345.683 420.443 347.203 420.443 349.068V364.703C423.622 365.489 426.446 367.323 428.46 369.911C430.475 372.499 431.563 375.691 431.551 378.973C431.551 387.074 425.08 393.646 417.109 393.646C409.129 393.646 402.658 387.074 402.658 378.973C402.658 372.04 407.406 366.224 413.774 364.695V352.453H390.718V392.512C390.721 393.094 390.574 393.667 390.291 394.176C390.009 394.684 389.601 395.111 389.107 395.416L366.051 409.514C365.528 409.835 364.926 410.003 364.313 410C363.7 409.997 363.1 409.823 362.58 409.497L320.359 382.985C319.872 382.679 319.47 382.253 319.193 381.748C318.916 381.243 318.771 380.675 318.773 380.098V352.444L297.68 340.159C297.2 339.88 296.796 339.488 296.503 339.016C296.21 338.544 296.038 338.007 296 337.453V337.221V293.218C296 292.015 296.626 290.898 297.646 290.297L318.773 277.737V250.623C318.773 249.515 319.305 248.484 320.187 247.857L320.367 247.737L362.597 221.5C363.12 221.173 363.724 221 364.341 221C364.958 221 365.562 221.173 366.085 221.5L389.141 235.89C389.628 236.196 390.03 236.622 390.307 237.127C390.585 237.632 390.729 238.2 390.727 238.776V277.702H423.777V261.233C420.596 260.447 417.771 258.612 415.756 256.022C413.742 253.432 412.654 250.239 412.669 246.955C412.669 238.854 419.14 232.282 427.111 232.282C435.091 232.282 441.553 238.854 441.553 246.955C441.553 253.888 436.813 259.704 430.445 261.233V281.087C430.448 281.529 430.365 281.967 430.199 282.376C430.033 282.786 429.788 283.158 429.479 283.473C429.169 283.787 428.8 284.037 428.394 284.209C427.988 284.38 427.552 284.47 427.111 284.472H390.727V299.987H447.501C448.231 296.793 450.016 293.94 452.568 291.892C455.121 289.844 458.289 288.722 461.558 288.707C469.529 288.707 476 295.271 476 303.372C476 311.473 469.537 318.046 461.558 318.046C458.288 318.031 455.118 316.907 452.566 314.857C450.014 312.808 448.229 309.953 447.501 306.757H390.71V323.398H433.162L441.005 333.535C443.189 332.255 445.674 331.582 448.204 331.585C456.184 331.585 462.646 338.149 462.646 346.25C462.646 354.351 456.184 360.923 448.204 360.923C440.233 360.923 433.762 354.351 433.762 346.25C433.762 343.277 434.636 340.511 436.128 338.2L429.922 330.167H390.71V345.683ZM364.337 228.355L346.826 239.232V264.73H340.158V243.373L325.441 252.522V277.822L343.526 289.506L362.1 277.788V258.235H368.768V279.678C368.768 280.847 368.168 281.938 367.191 282.556L347.109 295.211V313.089L359.297 321.757L355.474 327.307L343.423 318.733L330.31 327.367L326.684 321.697L340.441 312.633V295.537L322.039 283.63L302.668 295.142V309.54L319.57 299.326L322.982 305.142L302.668 317.418V335.262L321.233 346.069L340.689 334.317L344.092 340.133L325.441 351.396V378.217L341.521 388.311L361.791 376.061L365.202 381.885L347.915 392.332L364.354 402.65L384.05 390.597V340.941L343.269 365.794L339.841 359.995L384.05 333.054V240.666L364.337 228.355ZM417.109 371.086C416.079 371.092 415.062 371.301 414.113 371.702C413.165 372.102 412.304 372.686 411.582 373.42C410.859 374.154 410.287 375.024 409.9 375.98C409.513 376.936 409.318 377.959 409.326 378.99C409.326 383.346 412.806 386.877 417.109 386.877C418.136 386.87 419.152 386.66 420.099 386.26C421.046 385.86 421.905 385.276 422.627 384.543C423.349 383.81 423.919 382.941 424.306 381.987C424.694 381.033 424.889 380.012 424.882 378.982C424.89 377.951 424.695 376.929 424.309 375.973C423.922 375.018 423.352 374.149 422.63 373.415C421.908 372.681 421.049 372.096 420.101 371.695C419.154 371.294 418.137 371.093 417.109 371.086ZM448.221 338.355C447.192 338.36 446.174 338.569 445.226 338.97C444.278 339.37 443.417 339.954 442.694 340.688C441.971 341.423 441.4 342.292 441.013 343.248C440.626 344.204 440.431 345.227 440.439 346.258C440.439 350.623 443.919 354.162 448.213 354.162C449.242 354.157 450.26 353.948 451.208 353.547C452.157 353.147 453.017 352.563 453.74 351.828C454.463 351.094 455.034 350.224 455.421 349.269C455.808 348.313 456.003 347.29 455.995 346.258C456.003 345.227 455.808 344.204 455.421 343.248C455.034 342.292 454.463 341.423 453.74 340.688C453.017 339.954 452.157 339.37 451.208 338.97C450.26 338.569 449.25 338.36 448.221 338.355ZM461.549 295.486C460.52 295.491 459.502 295.7 458.554 296.101C457.605 296.501 456.745 297.085 456.022 297.819C455.299 298.553 454.728 299.423 454.341 300.379C453.954 301.335 453.759 302.358 453.767 303.389C453.767 307.745 457.255 311.276 461.549 311.276C462.577 311.269 463.593 311.06 464.54 310.659C465.487 310.259 466.346 309.675 467.068 308.942C467.789 308.209 468.36 307.341 468.747 306.386C469.134 305.432 469.33 304.411 469.323 303.381C469.331 302.35 469.136 301.328 468.75 300.373C468.363 299.417 467.793 298.548 467.071 297.814C466.349 297.08 465.489 296.496 464.542 296.095C463.595 295.694 462.578 295.484 461.549 295.477V295.486ZM427.102 239.043C426.074 239.049 425.057 239.259 424.11 239.66C423.162 240.061 422.303 240.645 421.581 241.379C420.859 242.113 420.288 242.983 419.902 243.938C419.515 244.893 419.321 245.916 419.328 246.946C419.328 251.311 422.808 254.85 427.102 254.85C428.131 254.844 429.149 254.635 430.098 254.235C431.046 253.835 431.906 253.251 432.629 252.516C433.352 251.782 433.923 250.912 434.311 249.957C434.698 249.001 434.893 247.978 434.885 246.946C434.893 245.915 434.698 244.892 434.311 243.936C433.923 242.98 433.352 242.111 432.629 241.376C431.906 240.642 431.046 240.058 430.098 239.658C429.149 239.257 428.131 239.048 427.102 239.043Z"
        fill="black" />
    <defs>
        <linearGradient id="paint0_linear_0_1" x1="4.84383e-05" y1="614.305" x2="1200" y2="15.6947"
            gradientUnits="userSpaceOnUse">
            <stop offset="0.201923" stop-color="#E0BBFF" />
            <stop offset="0.403846" stop-color="#A3D5FF" />
            <stop offset="0.600962" stop-color="#B2F7EF" />
            <stop offset="0.798077" stop-color="#A2F2C2" />
            <stop offset="1" stop-color="#F5F9B2" />
        </linearGradient>
    </defs>
</svg>