<svg width="1200" height="630" viewBox="0 0 1200 630" fill="none" xmlns="http://www.w3.org/2000/svg">
<rect width="1200" height="630" fill="#1E1E1E"/>
<path d="M0 0H1200V630H0V0Z" fill="url(#paint0_linear_0_1)"/>
<path d="M342.518 292.518C353.983 292.518 363.277 283.224 363.277 271.759C363.277 260.294 353.983 251 342.518 251C331.053 251 321.759 260.294 321.759 271.759C321.759 283.224 331.053 292.518 342.518 292.518Z" fill="#8404FE"/>
<path d="M384.037 327.117C384.037 315.652 374.743 306.358 363.277 306.358H321.759C310.294 306.358 301 315.652 301 327.117V347.876H384.037V327.117Z" fill="#8404FE"/>
<circle cx="850.438" cy="299.438" r="48.438" fill="#FB5E5E"/>
<path d="M823.896 315V287H829.176V315H823.896ZM842.603 315.56C841.03 315.56 839.55 315.173 838.163 314.4C836.803 313.6 835.71 312.44 834.883 310.92C834.057 309.4 833.643 307.56 833.643 305.4V304.76C833.643 302.6 834.057 300.76 834.883 299.24C835.71 297.72 836.803 296.573 838.163 295.8C839.523 295 841.003 294.6 842.603 294.6C843.803 294.6 844.803 294.747 845.603 295.04C846.43 295.307 847.097 295.653 847.603 296.08C848.11 296.507 848.497 296.96 848.763 297.44H849.483V287H854.523V315H849.563V312.6H848.843C848.39 313.347 847.683 314.027 846.723 314.64C845.79 315.253 844.417 315.56 842.603 315.56ZM844.123 311.16C845.67 311.16 846.963 310.667 848.003 309.68C849.043 308.667 849.563 307.2 849.563 305.28V304.88C849.563 302.96 849.043 301.507 848.003 300.52C846.99 299.507 845.697 299 844.123 299C842.577 299 841.283 299.507 840.243 300.52C839.203 301.507 838.683 302.96 838.683 304.88V305.28C838.683 307.2 839.203 308.667 840.243 309.68C841.283 310.667 842.577 311.16 844.123 311.16ZM859.951 315V287H871.471C873.231 287 874.778 287.36 876.111 288.08C877.471 288.773 878.524 289.76 879.271 291.04C880.044 292.32 880.431 293.84 880.431 295.6V296.16C880.431 297.893 880.031 299.413 879.231 300.72C878.458 302 877.391 303 876.031 303.72C874.698 304.413 873.178 304.76 871.471 304.76H865.231V315H859.951ZM865.231 299.96H870.951C872.204 299.96 873.218 299.613 873.991 298.92C874.764 298.227 875.151 297.28 875.151 296.08V295.68C875.151 294.48 874.764 293.533 873.991 292.84C873.218 292.147 872.204 291.8 870.951 291.8H865.231V299.96Z" fill="#1A1A1A"/>
<path d="M523.456 298.84L508.456 290.18V307.5L523.456 298.84ZM408.64 298.84V300.34H509.956V298.84V297.34H408.64V298.84Z" fill="#1A1A1A"/>
<circle cx="600.438" cy="299.438" r="48.438" fill="#00FF5E"/>
<path d="M588.463 315.56C586.303 315.56 584.396 315.173 582.743 314.4C581.089 313.627 579.796 312.52 578.863 311.08C577.929 309.64 577.463 307.907 577.463 305.88V304.76H582.663V305.88C582.663 307.56 583.183 308.827 584.223 309.68C585.263 310.507 586.676 310.92 588.463 310.92C590.276 310.92 591.623 310.56 592.503 309.84C593.409 309.12 593.863 308.2 593.863 307.08C593.863 306.307 593.636 305.68 593.183 305.2C592.756 304.72 592.116 304.333 591.263 304.04C590.436 303.72 589.423 303.427 588.223 303.16L587.303 302.96C585.383 302.533 583.729 302 582.343 301.36C580.983 300.693 579.929 299.827 579.183 298.76C578.463 297.693 578.103 296.307 578.103 294.6C578.103 292.893 578.503 291.44 579.303 290.24C580.129 289.013 581.276 288.08 582.743 287.44C584.236 286.773 585.983 286.44 587.983 286.44C589.983 286.44 591.756 286.787 593.303 287.48C594.876 288.147 596.103 289.16 596.983 290.52C597.889 291.853 598.343 293.533 598.343 295.56V296.76H593.143V295.56C593.143 294.493 592.929 293.64 592.503 293C592.103 292.333 591.516 291.853 590.743 291.56C589.969 291.24 589.049 291.08 587.983 291.08C586.383 291.08 585.196 291.387 584.423 292C583.676 292.587 583.303 293.4 583.303 294.44C583.303 295.133 583.476 295.72 583.823 296.2C584.196 296.68 584.743 297.08 585.463 297.4C586.183 297.72 587.103 298 588.223 298.24L589.143 298.44C591.143 298.867 592.876 299.413 594.343 300.08C595.836 300.747 596.996 301.627 597.823 302.72C598.649 303.813 599.063 305.213 599.063 306.92C599.063 308.627 598.623 310.133 597.743 311.44C596.889 312.72 595.663 313.733 594.063 314.48C592.489 315.2 590.623 315.56 588.463 315.56ZM603.001 315V287H614.521C616.281 287 617.827 287.36 619.161 288.08C620.521 288.773 621.574 289.76 622.321 291.04C623.094 292.32 623.481 293.84 623.481 295.6V296.16C623.481 297.893 623.081 299.413 622.281 300.72C621.507 302 620.441 303 619.081 303.72C617.747 304.413 616.227 304.76 614.521 304.76H608.281V315H603.001ZM608.281 299.96H614.001C615.254 299.96 616.267 299.613 617.041 298.92C617.814 298.227 618.201 297.28 618.201 296.08V295.68C618.201 294.48 617.814 293.533 617.041 292.84C616.267 292.147 615.254 291.8 614.001 291.8H608.281V299.96Z" fill="#1A1A1A"/>
<path d="M670 299L685 307.66V290.34L670 299ZM784.816 299L769.816 290.34V307.66L784.816 299ZM683.5 299V300.5H771.316V299V297.5H683.5V299Z" fill="#1A1A1A"/>
<path fill-rule="evenodd" clip-rule="evenodd" d="M473.073 261.853C479.108 261.853 484 256.961 484 250.927C484 244.892 479.108 240 473.073 240C467.039 240 462.147 244.892 462.147 250.927C462.147 253.065 462.761 255.059 463.822 256.744L449 271.566L456.277 278.844L459.711 275.41L455.868 271.566L459.718 267.716L463.562 271.559L466.996 268.125L463.152 264.282L467.256 260.178C468.941 261.239 470.935 261.853 473.073 261.853ZM473.073 256.997C476.426 256.997 479.144 254.279 479.144 250.927C479.144 247.574 476.426 244.856 473.073 244.856C469.721 244.856 467.003 247.574 467.003 250.927C467.003 254.279 469.721 256.997 473.073 256.997Z" fill="#FFE700"/>
<defs>
<linearGradient id="paint0_linear_0_1" x1="3.30675e-05" y1="616.568" x2="1200" y2="13.4321" gradientUnits="userSpaceOnUse">
<stop offset="0.2" stop-color="#E0BBFF"/>
<stop offset="0.4" stop-color="#A3D5FF"/>
<stop offset="0.6" stop-color="#B2F7EF"/>
<stop offset="0.8" stop-color="#A2F2C2"/>
<stop offset="1" stop-color="#F5F9B2"/>
</linearGradient>
</defs>
</svg>
