<svg width="1200" height="630" viewBox="0 0 1200 630" fill="none" xmlns="http://www.w3.org/2000/svg">
<rect width="1200" height="630" fill="#1E1E1E"/>
<path d="M0 0H1200V630H0V0Z" fill="url(#paint0_linear_0_1)"/>
<path d="M342.518 292.518C353.983 292.518 363.277 283.224 363.277 271.759C363.277 260.294 353.983 251 342.518 251C331.053 251 321.759 260.294 321.759 271.759C321.759 283.224 331.053 292.518 342.518 292.518Z" fill="#8404FE"/>
<path d="M384.037 327.117C384.037 315.652 374.743 306.358 363.277 306.358H321.759C310.294 306.358 301 315.652 301 327.117V347.876H384.037V327.117Z" fill="#8404FE"/>
<circle cx="850.438" cy="299.438" r="48.438" fill="#FB5E5E"/>
<path d="M823.896 315V287H829.176V315H823.896ZM842.603 315.56C841.03 315.56 839.55 315.173 838.163 314.4C836.803 313.6 835.71 312.44 834.883 310.92C834.057 309.4 833.643 307.56 833.643 305.4V304.76C833.643 302.6 834.057 300.76 834.883 299.24C835.71 297.72 836.803 296.573 838.163 295.8C839.523 295 841.003 294.6 842.603 294.6C843.803 294.6 844.803 294.747 845.603 295.04C846.43 295.307 847.097 295.653 847.603 296.08C848.11 296.507 848.497 296.96 848.763 297.44H849.483V287H854.523V315H849.563V312.6H848.843C848.39 313.347 847.683 314.027 846.723 314.64C845.79 315.253 844.417 315.56 842.603 315.56ZM844.123 311.16C845.67 311.16 846.963 310.667 848.003 309.68C849.043 308.667 849.563 307.2 849.563 305.28V304.88C849.563 302.96 849.043 301.507 848.003 300.52C846.99 299.507 845.697 299 844.123 299C842.577 299 841.283 299.507 840.243 300.52C839.203 301.507 838.683 302.96 838.683 304.88V305.28C838.683 307.2 839.203 308.667 840.243 309.68C841.283 310.667 842.577 311.16 844.123 311.16ZM859.951 315V287H871.471C873.231 287 874.778 287.36 876.111 288.08C877.471 288.773 878.524 289.76 879.271 291.04C880.044 292.32 880.431 293.84 880.431 295.6V296.16C880.431 297.893 880.031 299.413 879.231 300.72C878.458 302 877.391 303 876.031 303.72C874.698 304.413 873.178 304.76 871.471 304.76H865.231V315H859.951ZM865.231 299.96H870.951C872.204 299.96 873.218 299.613 873.991 298.92C874.764 298.227 875.151 297.28 875.151 296.08V295.68C875.151 294.48 874.764 293.533 873.991 292.84C873.218 292.147 872.204 291.8 870.951 291.8H865.231V299.96Z" fill="#1A1A1A"/>
<path d="M523.456 298.84L508.456 290.18V307.5L523.456 298.84ZM408.64 298.84V300.34H509.956V298.84V297.34H408.64V298.84Z" fill="#1A1A1A"/>
<circle cx="600.438" cy="299.438" r="48.438" fill="#00FF5E"/>
<path d="M588.463 315.56C586.303 315.56 584.396 315.173 582.743 314.4C581.089 313.627 579.796 312.52 578.863 311.08C577.929 309.64 577.463 307.907 577.463 305.88V304.76H582.663V305.88C582.663 307.56 583.183 308.827 584.223 309.68C585.263 310.507 586.676 310.92 588.463 310.92C590.276 310.92 591.623 310.56 592.503 309.84C593.409 309.12 593.863 308.2 593.863 307.08C593.863 306.307 593.636 305.68 593.183 305.2C592.756 304.72 592.116 304.333 591.263 304.04C590.436 303.72 589.423 303.427 588.223 303.16L587.303 302.96C585.383 302.533 583.729 302 582.343 301.36C580.983 300.693 579.929 299.827 579.183 298.76C578.463 297.693 578.103 296.307 578.103 294.6C578.103 292.893 578.503 291.44 579.303 290.24C580.129 289.013 581.276 288.08 582.743 287.44C584.236 286.773 585.983 286.44 587.983 286.44C589.983 286.44 591.756 286.787 593.303 287.48C594.876 288.147 596.103 289.16 596.983 290.52C597.889 291.853 598.343 293.533 598.343 295.56V296.76H593.143V295.56C593.143 294.493 592.929 293.64 592.503 293C592.103 292.333 591.516 291.853 590.743 291.56C589.969 291.24 589.049 291.08 587.983 291.08C586.383 291.08 585.196 291.387 584.423 292C583.676 292.587 583.303 293.4 583.303 294.44C583.303 295.133 583.476 295.72 583.823 296.2C584.196 296.68 584.743 297.08 585.463 297.4C586.183 297.72 587.103 298 588.223 298.24L589.143 298.44C591.143 298.867 592.876 299.413 594.343 300.08C595.836 300.747 596.996 301.627 597.823 302.72C598.649 303.813 599.063 305.213 599.063 306.92C599.063 308.627 598.623 310.133 597.743 311.44C596.889 312.72 595.663 313.733 594.063 314.48C592.489 315.2 590.623 315.56 588.463 315.56ZM603.001 315V287H614.521C616.281 287 617.827 287.36 619.161 288.08C620.521 288.773 621.574 289.76 622.321 291.04C623.094 292.32 623.481 293.84 623.481 295.6V296.16C623.481 297.893 623.081 299.413 622.281 300.72C621.507 302 620.441 303 619.081 303.72C617.747 304.413 616.227 304.76 614.521 304.76H608.281V315H603.001ZM608.281 299.96H614.001C615.254 299.96 616.267 299.613 617.041 298.92C617.814 298.227 618.201 297.28 618.201 296.08V295.68C618.201 294.48 617.814 293.533 617.041 292.84C616.267 292.147 615.254 291.8 614.001 291.8H608.281V299.96Z" fill="#1A1A1A"/>
<path d="M670 299L685 307.66V290.34L670 299ZM784.816 299L769.816 290.34V307.66L784.816 299ZM683.5 299V300.5H771.316V299V297.5H683.5V299Z" fill="#1A1A1A"/>
<path fill-rule="evenodd" clip-rule="evenodd" d="M473.073 261.853C479.108 261.853 484 256.961 484 250.927C484 244.892 479.108 240 473.073 240C467.039 240 462.147 244.892 462.147 250.927C462.147 253.065 462.761 255.059 463.822 256.744L449 271.566L456.277 278.844L459.711 275.41L455.868 271.566L459.718 267.716L463.562 271.559L466.996 268.125L463.152 264.282L467.256 260.178C468.941 261.239 470.935 261.853 473.073 261.853ZM473.073 256.997C476.426 256.997 479.144 254.279 479.144 250.927C479.144 247.574 476.426 244.856 473.073 244.856C469.721 244.856 467.003 247.574 467.003 250.927C467.003 254.279 469.721 256.997 473.073 256.997Z" fill="#FFE700"/>
<path d="M389.686 413.616C387.31 413.616 385.213 413.191 383.394 412.34C381.575 411.489 380.153 410.272 379.126 408.688C378.099 407.104 377.586 405.197 377.586 402.968V401.736H383.306V402.968C383.306 404.816 383.878 406.209 385.022 407.148C386.166 408.057 387.721 408.512 389.686 408.512C391.681 408.512 393.162 408.116 394.13 407.324C395.127 406.532 395.626 405.52 395.626 404.288C395.626 403.437 395.377 402.748 394.878 402.22C394.409 401.692 393.705 401.267 392.766 400.944C391.857 400.592 390.742 400.269 389.422 399.976L388.41 399.756C386.298 399.287 384.479 398.7 382.954 397.996C381.458 397.263 380.299 396.309 379.478 395.136C378.686 393.963 378.29 392.437 378.29 390.56C378.29 388.683 378.73 387.084 379.61 385.764C380.519 384.415 381.781 383.388 383.394 382.684C385.037 381.951 386.958 381.584 389.158 381.584C391.358 381.584 393.309 381.965 395.01 382.728C396.741 383.461 398.09 384.576 399.058 386.072C400.055 387.539 400.554 389.387 400.554 391.616V392.936H394.834V391.616C394.834 390.443 394.599 389.504 394.13 388.8C393.69 388.067 393.045 387.539 392.194 387.216C391.343 386.864 390.331 386.688 389.158 386.688C387.398 386.688 386.093 387.025 385.242 387.7C384.421 388.345 384.01 389.24 384.01 390.384C384.01 391.147 384.201 391.792 384.582 392.32C384.993 392.848 385.594 393.288 386.386 393.64C387.178 393.992 388.19 394.3 389.422 394.564L390.434 394.784C392.634 395.253 394.541 395.855 396.154 396.588C397.797 397.321 399.073 398.289 399.982 399.492C400.891 400.695 401.346 402.235 401.346 404.112C401.346 405.989 400.862 407.647 399.894 409.084C398.955 410.492 397.606 411.607 395.846 412.428C394.115 413.22 392.062 413.616 389.686 413.616ZM403.565 413L411.661 382.2H421.781L429.877 413H423.893L422.221 406.224H411.221L409.549 413H403.565ZM412.585 400.856H420.857L417.117 385.852H416.325L412.585 400.856ZM433.564 413V382.2H444.344L449.668 409.04H450.46L455.784 382.2H466.564V413H460.932V386.468H460.14L454.86 413H445.268L439.988 386.468H439.196V413H433.564ZM472.365 413V382.2H478.173V407.72H492.253V413H472.365ZM503.425 413L511.521 382.2H521.641L529.737 413H523.753L522.081 406.224H511.081L509.409 413H503.425ZM512.445 400.856H520.717L516.977 385.852H516.185L512.445 400.856ZM541.916 413.352C540.214 413.352 538.718 412.971 537.428 412.208C536.166 411.416 535.184 410.331 534.48 408.952C533.776 407.573 533.424 405.989 533.424 404.2V391.176H538.968V403.76C538.968 405.403 539.364 406.635 540.156 407.456C540.977 408.277 542.136 408.688 543.632 408.688C545.333 408.688 546.653 408.131 547.592 407.016C548.53 405.872 549 404.288 549 402.264V391.176H554.544V413H549.088V410.14H548.296C547.944 410.873 547.284 411.592 546.316 412.296C545.348 413 543.881 413.352 541.916 413.352ZM569.073 413C567.635 413 566.462 412.56 565.553 411.68C564.673 410.771 564.233 409.568 564.233 408.072V395.752H558.777V391.176H564.233V384.4H569.777V391.176H575.761V395.752H569.777V407.104C569.777 407.984 570.187 408.424 571.009 408.424H575.233V413H569.073ZM580.779 413V382.2H586.323V393.86H587.115C587.35 393.391 587.717 392.921 588.215 392.452C588.714 391.983 589.374 391.601 590.195 391.308C591.046 390.985 592.117 390.824 593.407 390.824C595.109 390.824 596.59 391.22 597.851 392.012C599.142 392.775 600.139 393.845 600.843 395.224C601.547 396.573 601.899 398.157 601.899 399.976V413H596.355V400.416C596.355 398.773 595.945 397.541 595.123 396.72C594.331 395.899 593.187 395.488 591.691 395.488C589.99 395.488 588.67 396.06 587.731 397.204C586.793 398.319 586.323 399.888 586.323 401.912V413H580.779ZM617.837 413.616C615.666 413.616 613.745 413.161 612.073 412.252C610.43 411.313 609.139 410.008 608.201 408.336C607.291 406.635 606.837 404.64 606.837 402.352V401.824C606.837 399.536 607.291 397.556 608.201 395.884C609.11 394.183 610.386 392.877 612.029 391.968C613.671 391.029 615.578 390.56 617.748 390.56C619.89 390.56 621.753 391.044 623.337 392.012C624.921 392.951 626.153 394.271 627.032 395.972C627.913 397.644 628.353 399.595 628.353 401.824V403.716H612.469C612.527 405.212 613.085 406.429 614.141 407.368C615.197 408.307 616.487 408.776 618.013 408.776C619.567 408.776 620.711 408.439 621.445 407.764C622.178 407.089 622.735 406.341 623.117 405.52L627.649 407.896C627.238 408.659 626.637 409.495 625.845 410.404C625.082 411.284 624.055 412.047 622.765 412.692C621.474 413.308 619.831 413.616 617.837 413.616ZM612.513 399.58H622.721C622.603 398.319 622.09 397.307 621.181 396.544C620.301 395.781 619.142 395.4 617.705 395.4C616.209 395.4 615.021 395.781 614.141 396.544C613.261 397.307 612.718 398.319 612.513 399.58ZM633.287 413V391.176H638.743V394.036H639.535C639.887 393.273 640.547 392.555 641.515 391.88C642.483 391.176 643.95 390.824 645.915 390.824C647.616 390.824 649.098 391.22 650.359 392.012C651.65 392.775 652.647 393.845 653.351 395.224C654.055 396.573 654.407 398.157 654.407 399.976V413H648.863V400.416C648.863 398.773 648.452 397.541 647.631 396.72C646.839 395.899 645.695 395.488 644.199 395.488C642.498 395.488 641.178 396.06 640.239 397.204C639.3 398.319 638.831 399.888 638.831 401.912V413H633.287ZM668.159 413C666.721 413 665.548 412.56 664.639 411.68C663.759 410.771 663.319 409.568 663.319 408.072V395.752H657.863V391.176H663.319V384.4H668.863V391.176H674.847V395.752H668.863V407.104C668.863 407.984 669.273 408.424 670.095 408.424H674.319V413H668.159ZM679.865 413V391.176H685.409V413H679.865ZM682.637 388.624C681.64 388.624 680.789 388.301 680.085 387.656C679.41 387.011 679.073 386.16 679.073 385.104C679.073 384.048 679.41 383.197 680.085 382.552C680.789 381.907 681.64 381.584 682.637 381.584C683.664 381.584 684.514 381.907 685.189 382.552C685.864 383.197 686.201 384.048 686.201 385.104C686.201 386.16 685.864 387.011 685.189 387.656C684.514 388.301 683.664 388.624 682.637 388.624ZM701.805 413.616C699.693 413.616 697.771 413.176 696.041 412.296C694.339 411.416 692.99 410.14 691.993 408.468C690.995 406.796 690.497 404.772 690.497 402.396V401.78C690.497 399.404 690.995 397.38 691.993 395.708C692.99 394.036 694.339 392.76 696.041 391.88C697.771 391 699.693 390.56 701.805 390.56C703.887 390.56 705.677 390.927 707.173 391.66C708.669 392.393 709.871 393.405 710.781 394.696C711.719 395.957 712.335 397.395 712.629 399.008L707.261 400.152C707.143 399.272 706.879 398.48 706.469 397.776C706.058 397.072 705.471 396.515 704.709 396.104C703.975 395.693 703.051 395.488 701.937 395.488C700.822 395.488 699.81 395.737 698.901 396.236C698.021 396.705 697.317 397.424 696.789 398.392C696.29 399.331 696.041 400.489 696.041 401.868V402.308C696.041 403.687 696.29 404.86 696.789 405.828C697.317 406.767 698.021 407.485 698.901 407.984C699.81 408.453 700.822 408.688 701.937 408.688C703.609 408.688 704.87 408.263 705.721 407.412C706.601 406.532 707.158 405.388 707.393 403.98L712.761 405.256C712.379 406.811 711.719 408.233 710.781 409.524C709.871 410.785 708.669 411.783 707.173 412.516C705.677 413.249 703.887 413.616 701.805 413.616ZM724.11 413.616C722.555 413.616 721.162 413.352 719.93 412.824C718.698 412.267 717.715 411.475 716.982 410.448C716.278 409.392 715.926 408.116 715.926 406.62C715.926 405.124 716.278 403.877 716.982 402.88C717.715 401.853 718.713 401.091 719.974 400.592C721.265 400.064 722.731 399.8 724.374 399.8H730.358V398.568C730.358 397.541 730.035 396.705 729.39 396.06C728.745 395.385 727.718 395.048 726.31 395.048C724.931 395.048 723.905 395.371 723.23 396.016C722.555 396.632 722.115 397.439 721.91 398.436L716.806 396.72C717.158 395.605 717.715 394.593 718.478 393.684C719.27 392.745 720.311 391.997 721.602 391.44C722.922 390.853 724.521 390.56 726.398 390.56C729.273 390.56 731.546 391.279 733.218 392.716C734.89 394.153 735.726 396.236 735.726 398.964V407.104C735.726 407.984 736.137 408.424 736.958 408.424H738.718V413H735.022C733.937 413 733.042 412.736 732.338 412.208C731.634 411.68 731.282 410.976 731.282 410.096V410.052H730.446C730.329 410.404 730.065 410.873 729.654 411.46C729.243 412.017 728.598 412.516 727.718 412.956C726.838 413.396 725.635 413.616 724.11 413.616ZM725.078 409.128C726.633 409.128 727.894 408.703 728.862 407.852C729.859 406.972 730.358 405.813 730.358 404.376V403.936H724.77C723.743 403.936 722.937 404.156 722.35 404.596C721.763 405.036 721.47 405.652 721.47 406.444C721.47 407.236 721.778 407.881 722.394 408.38C723.01 408.879 723.905 409.128 725.078 409.128ZM749.542 413C748.104 413 746.931 412.56 746.022 411.68C745.142 410.771 744.702 409.568 744.702 408.072V395.752H739.246V391.176H744.702V384.4H750.246V391.176H756.23V395.752H750.246V407.104C750.246 407.984 750.656 408.424 751.478 408.424H755.702V413H749.542ZM761.248 413V391.176H766.792V413H761.248ZM764.02 388.624C763.023 388.624 762.172 388.301 761.468 387.656C760.793 387.011 760.456 386.16 760.456 385.104C760.456 384.048 760.793 383.197 761.468 382.552C762.172 381.907 763.023 381.584 764.02 381.584C765.047 381.584 765.897 381.907 766.572 382.552C767.247 383.197 767.584 384.048 767.584 385.104C767.584 386.16 767.247 387.011 766.572 387.656C765.897 388.301 765.047 388.624 764.02 388.624ZM783.319 413.616C781.149 413.616 779.198 413.176 777.467 412.296C775.737 411.416 774.373 410.14 773.375 408.468C772.378 406.796 771.879 404.787 771.879 402.44V401.736C771.879 399.389 772.378 397.38 773.375 395.708C774.373 394.036 775.737 392.76 777.467 391.88C779.198 391 781.149 390.56 783.319 390.56C785.49 390.56 787.441 391 789.171 391.88C790.902 392.76 792.266 394.036 793.263 395.708C794.261 397.38 794.759 399.389 794.759 401.736V402.44C794.759 404.787 794.261 406.796 793.263 408.468C792.266 410.14 790.902 411.416 789.171 412.296C787.441 413.176 785.49 413.616 783.319 413.616ZM783.319 408.688C785.021 408.688 786.429 408.145 787.543 407.06C788.658 405.945 789.215 404.361 789.215 402.308V401.868C789.215 399.815 788.658 398.245 787.543 397.16C786.458 396.045 785.05 395.488 783.319 395.488C781.618 395.488 780.21 396.045 779.095 397.16C777.981 398.245 777.423 399.815 777.423 401.868V402.308C777.423 404.361 777.981 405.945 779.095 407.06C780.21 408.145 781.618 408.688 783.319 408.688ZM799.877 413V391.176H805.333V394.036H806.125C806.477 393.273 807.137 392.555 808.105 391.88C809.073 391.176 810.54 390.824 812.505 390.824C814.206 390.824 815.688 391.22 816.949 392.012C818.24 392.775 819.237 393.845 819.941 395.224C820.645 396.573 820.997 398.157 820.997 399.976V413H815.453V400.416C815.453 398.773 815.042 397.541 814.221 396.72C813.429 395.899 812.285 395.488 810.789 395.488C809.088 395.488 807.768 396.06 806.829 397.204C805.89 398.319 805.421 399.888 805.421 401.912V413H799.877Z" fill="#1A1A1A"/>
<defs>
<linearGradient id="paint0_linear_0_1" x1="3.30675e-05" y1="616.568" x2="1200" y2="13.4321" gradientUnits="userSpaceOnUse">
<stop offset="0.2" stop-color="#E0BBFF"/>
<stop offset="0.4" stop-color="#A3D5FF"/>
<stop offset="0.6" stop-color="#B2F7EF"/>
<stop offset="0.8" stop-color="#A2F2C2"/>
<stop offset="1" stop-color="#F5F9B2"/>
</linearGradient>
</defs>
</svg>
