<svg width="1200" height="630" viewBox="0 0 1200 630" fill="none" xmlns="http://www.w3.org/2000/svg">
<rect width="1200" height="630" fill="#1E1E1E"/>
<path d="M0 0H1200V630H0V0Z" fill="url(#paint0_linear_0_1)"/>
<path d="M732.065 332.657C731.285 332.999 730.45 333.262 728.944 333.267C727.941 333.267 727.232 333.143 726.644 332.967C725.765 332.704 725.113 332.283 724.177 331.862C723.246 331.443 722.067 331.097 720.35 331.102C719.205 331.101 718.304 331.248 717.55 331.478C716.415 331.825 715.658 332.316 714.883 332.657C714.103 332.999 713.268 333.262 711.763 333.267C710.761 333.267 710.052 333.143 709.464 332.967C708.585 332.704 707.934 332.283 706.998 331.862C706.068 331.443 704.888 331.097 703.173 331.102C702.028 331.101 701.127 331.248 700.372 331.478C699.238 331.825 698.481 332.317 697.706 332.657C696.925 332.999 696.09 333.262 694.586 333.267C693.584 333.267 692.876 333.143 692.288 332.967C691.412 332.704 690.759 332.283 689.824 331.862C688.893 331.443 687.716 331.097 686 331.102V332.835C687.002 332.835 687.711 332.958 688.298 333.136C689.176 333.398 689.827 333.819 690.762 334.24C691.692 334.66 692.871 335.006 694.586 335C695.731 335.002 696.633 334.853 697.386 334.625C698.521 334.278 699.277 333.784 700.053 333.445C700.834 333.103 701.668 332.839 703.172 332.835C704.175 332.835 704.884 332.958 705.472 333.136C706.35 333.398 707.002 333.819 707.938 334.241C708.869 334.66 710.047 335.006 711.763 335C712.908 335.002 713.81 334.853 714.563 334.625C715.698 334.278 716.455 333.784 717.231 333.445C718.011 333.103 718.846 332.839 720.35 332.835C721.353 332.835 722.062 332.958 722.651 333.136C723.529 333.398 724.183 333.819 725.118 334.241C726.048 334.66 727.228 335.006 728.944 335C730.089 335.002 730.991 334.853 731.745 334.625C732.881 334.278 733.638 333.785 734.415 333.445C735.196 333.103 736.031 332.839 737.537 332.835V331.102C736.391 331.101 735.489 331.248 734.736 331.478C733.599 331.824 732.842 332.316 732.065 332.657Z" fill="#0F00FF"/>
<path d="M732.065 320.623C731.285 320.965 730.45 321.228 728.944 321.233C727.941 321.233 727.232 321.109 726.644 320.933C725.765 320.67 725.113 320.249 724.177 319.828C723.246 319.409 722.067 319.063 720.35 319.068C719.205 319.067 718.304 319.214 717.55 319.444C716.415 319.791 715.658 320.282 714.883 320.623C714.103 320.965 713.268 321.228 711.763 321.233C710.761 321.233 710.052 321.109 709.464 320.933C708.585 320.67 707.934 320.249 706.998 319.828C706.068 319.409 704.888 319.063 703.173 319.068C702.028 319.067 701.127 319.214 700.372 319.444C699.238 319.791 698.481 320.282 697.706 320.623C696.925 320.965 696.09 321.228 694.586 321.233C693.584 321.233 692.876 321.109 692.288 320.933C691.412 320.67 690.759 320.249 689.824 319.828C688.893 319.409 687.716 319.063 686 319.068V320.8C687.002 320.801 687.711 320.924 688.298 321.102C689.176 321.364 689.827 321.784 690.762 322.206C691.692 322.626 692.871 322.971 694.586 322.966C695.731 322.967 696.633 322.819 697.386 322.591C698.521 322.244 699.277 321.75 700.053 321.411C700.834 321.068 701.668 320.805 703.172 320.801C704.175 320.801 704.884 320.924 705.472 321.102C706.35 321.364 707.002 321.785 707.938 322.207C708.869 322.626 710.047 322.972 711.763 322.966C712.908 322.968 713.81 322.819 714.563 322.591C715.698 322.244 716.455 321.751 717.231 321.411C718.011 321.069 718.846 320.805 720.35 320.801C721.353 320.801 722.062 320.924 722.651 321.102C723.529 321.364 724.183 321.785 725.118 322.207C726.048 322.626 727.228 322.972 728.944 322.966C730.089 322.968 730.991 322.819 731.745 322.591C732.881 322.244 733.638 321.751 734.415 321.411C735.196 321.069 736.031 320.806 737.537 320.801V319.068C736.391 319.067 735.489 319.214 734.736 319.444C733.599 319.791 732.842 320.282 732.065 320.623Z" fill="#0F00FF"/>
<path d="M732.065 308.589C731.285 308.931 730.45 309.194 728.944 309.199C727.941 309.199 727.232 309.075 726.644 308.899C725.765 308.636 725.113 308.215 724.177 307.794C723.246 307.375 722.067 307.029 720.35 307.034C719.205 307.033 718.304 307.18 717.55 307.41C716.415 307.756 715.658 308.249 714.883 308.589C714.103 308.931 713.268 309.194 711.763 309.199C710.761 309.199 710.052 309.075 709.464 308.899C708.585 308.636 707.934 308.215 706.998 307.794C706.068 307.375 704.888 307.029 703.173 307.034C702.028 307.033 701.127 307.18 700.372 307.41C699.238 307.756 698.481 308.249 697.706 308.589C696.925 308.931 696.09 309.194 694.586 309.199C693.584 309.199 692.876 309.075 692.288 308.899C691.412 308.636 690.759 308.215 689.824 307.794C688.893 307.375 687.716 307.029 686 307.034V308.767C687.002 308.767 687.711 308.89 688.298 309.068C689.176 309.33 689.827 309.751 690.762 310.172C691.692 310.592 692.871 310.938 694.586 310.932C695.731 310.934 696.633 310.785 697.386 310.557C698.521 310.21 699.277 309.716 700.053 309.377C700.834 309.034 701.668 308.771 703.172 308.767C704.175 308.767 704.884 308.89 705.472 309.068C706.35 309.33 707.002 309.75 707.938 310.173C708.869 310.592 710.047 310.938 711.763 310.932C712.908 310.934 713.81 310.785 714.563 310.557C715.698 310.21 716.455 309.716 717.231 309.377C718.011 309.034 718.846 308.771 720.35 308.767C721.353 308.767 722.062 308.89 722.651 309.068C723.529 309.33 724.183 309.751 725.118 310.173C726.048 310.592 727.228 310.938 728.944 310.932C730.089 310.934 730.991 310.785 731.745 310.557C732.881 310.21 733.638 309.717 734.415 309.377C735.196 309.034 736.031 308.771 737.537 308.767V307.034C736.391 307.033 735.489 307.18 734.736 307.41C733.599 307.757 732.842 308.249 732.065 308.589Z" fill="#0F00FF"/>
<path d="M734.736 295.376C733.599 295.723 732.842 296.215 732.065 296.555C731.285 296.897 730.45 297.161 728.944 297.165C727.941 297.165 727.232 297.041 726.644 296.865C725.765 296.602 725.113 296.181 724.177 295.76C723.246 295.341 722.067 294.995 720.35 295C719.205 294.999 718.304 295.146 717.55 295.376C716.415 295.723 715.658 296.215 714.883 296.555C714.103 296.897 713.268 297.161 711.763 297.165C710.761 297.165 710.052 297.041 709.464 296.865C708.585 296.602 707.934 296.181 706.998 295.76C706.068 295.341 704.888 294.995 703.173 295C702.028 294.999 701.127 295.146 700.372 295.376C699.238 295.723 698.481 296.215 697.706 296.555C696.925 296.897 696.09 297.161 694.586 297.165C693.584 297.165 692.876 297.041 692.288 296.865C691.412 296.602 690.759 296.181 689.824 295.76C688.893 295.341 687.716 294.995 686 295V296.733C687.001 296.733 687.711 296.856 688.298 297.034C689.176 297.296 689.827 297.717 690.762 298.138C691.692 298.558 692.871 298.904 694.585 298.898C695.731 298.899 696.633 298.751 697.385 298.523C698.521 298.176 699.277 297.682 700.053 297.343C700.834 297 701.668 296.737 703.172 296.732C704.175 296.733 704.884 296.856 705.472 297.034C706.35 297.296 707.002 297.717 707.938 298.139C708.868 298.558 710.047 298.904 711.763 298.898C712.908 298.899 713.81 298.751 714.563 298.523C715.698 298.176 716.455 297.682 717.231 297.343C718.011 297 718.845 296.737 720.349 296.732C721.353 296.733 722.062 296.856 722.651 297.034C723.529 297.296 724.182 297.717 725.118 298.139C726.048 298.558 727.228 298.904 728.943 298.898C730.089 298.899 730.991 298.751 731.745 298.523C732.881 298.176 733.638 297.683 734.415 297.343C735.196 297 736.03 296.737 737.537 296.732V295C736.391 294.999 735.489 295.146 734.736 295.376Z" fill="#0F00FF"/>
<path d="M790.929 272.665C790.929 271.193 789.857 270 788.535 270H787.654C786.333 270 785.261 271.193 785.261 272.665V280.035H790.929V272.665Z" fill="#1305FF"/>
<path d="M802.264 272.665C802.264 271.193 801.192 270 799.871 270H798.991C797.67 270 796.598 271.193 796.598 272.665V280.035H802.264V272.665Z" fill="#1305FF"/>
<path d="M813.6 272.665C813.6 271.193 812.527 270 811.206 270H810.327C809.005 270 807.933 271.193 807.933 272.665V280.035H813.6V272.665Z" fill="#1305FF"/>
<path d="M824.936 272.665C824.936 271.193 823.864 270 822.543 270H821.662C820.34 270 819.268 271.193 819.268 272.665V280.035H824.936V272.665Z" fill="#1305FF"/>
<path d="M843.606 293.432H836.981V299.737H843.606C844.928 299.737 846 298.545 846 297.073V296.096C846 294.625 844.928 293.432 843.606 293.432Z" fill="#1305FF"/>
<path d="M843.606 306.043H836.981V312.347H843.606C844.928 312.347 846 311.154 846 309.684V308.708C846 307.236 844.928 306.043 843.606 306.043Z" fill="#1305FF"/>
<path d="M843.606 318.653H836.981V324.957H843.606C844.928 324.957 846 323.764 846 322.292V321.316C846 319.846 844.928 318.653 843.606 318.653Z" fill="#1305FF"/>
<path d="M843.606 331.262H836.981V337.568H843.606C844.928 337.568 846 336.375 846 334.903V333.927C846 332.455 844.928 331.262 843.606 331.262Z" fill="#1305FF"/>
<path d="M764.197 296.096V297.073C764.197 298.545 765.27 299.737 766.591 299.737H773.218V293.432H766.591C765.27 293.432 764.197 294.625 764.197 296.096Z" fill="#1305FF"/>
<path d="M764.197 308.708V309.684C764.197 311.154 765.27 312.347 766.591 312.347H773.218V306.043H766.591C765.27 306.043 764.197 307.236 764.197 308.708Z" fill="#1305FF"/>
<path d="M785.261 358.335C785.261 359.807 786.333 361 787.654 361H788.535C789.857 361 790.929 359.807 790.929 358.335V350.967H785.261V358.335Z" fill="#0F00FF"/>
<path d="M796.598 358.335C796.598 359.807 797.67 361 798.991 361H799.871C801.192 361 802.264 359.807 802.264 358.335V350.967H796.598V358.335Z" fill="#0F00FF"/>
<path d="M807.933 358.335C807.933 359.807 809.005 361 810.326 361H811.206C812.527 361 813.6 359.807 813.6 358.335V350.967H807.933V358.335Z" fill="#0F00FF"/>
<path d="M819.268 358.335C819.268 359.807 820.34 361 821.662 361H822.543C823.864 361 824.936 359.807 824.936 358.335V350.967H819.268V358.335Z" fill="#0F00FF"/>
<path d="M764.197 321.316V322.292C764.197 323.764 765.27 324.957 766.591 324.957H773.218V318.653H766.591C765.27 318.653 764.197 319.846 764.197 321.316Z" fill="#0F00FF"/>
<path d="M764.197 333.927V334.903C764.197 336.375 765.27 337.568 766.591 337.568H773.218V331.263H766.591C765.27 331.262 764.197 332.455 764.197 333.927Z" fill="#0F00FF"/>
<path d="M776.76 347.027H833.439V283.975H776.76V347.027ZM812.499 331.71C812.499 331.508 812.531 331.411 812.648 331.246L819.855 321.859C820.639 320.868 821.061 319.91 821.061 318.754C821.061 317.265 820.248 316.175 818.829 316.175C817.443 316.175 816.6 317.1 816.417 318.818C816.417 319.018 816.297 319.117 816.087 319.084L812.771 318.488C812.59 318.456 812.499 318.291 812.531 318.091C812.742 314.984 815.032 312.275 818.981 312.275C822.902 312.275 825.283 315.05 825.283 318.687C825.283 320.835 824.498 322.521 823.203 324.14L817.806 331.112V331.178H824.979C825.162 331.178 825.283 331.314 825.283 331.508V334.782C825.283 334.981 825.162 335.113 824.979 335.113H812.799C812.62 335.113 812.499 334.981 812.499 334.782V331.71ZM800.44 316.01C800.44 315.81 800.499 315.68 800.651 315.546L804.089 312.837C804.237 312.705 804.421 312.639 804.63 312.639H808.007C808.188 312.639 808.307 312.771 808.307 312.969V334.782C808.307 334.981 808.188 335.113 808.007 335.113H804.389C804.206 335.113 804.089 334.981 804.089 334.782V317.86H804.028L800.771 320.306C800.588 320.438 800.44 320.372 800.44 320.108L800.44 316.01ZM785.817 334.373L790.545 328.473L786.142 322.958C786.071 322.852 786.119 322.749 786.282 322.749H789.519C789.707 322.749 789.799 322.8 789.892 322.923L792.407 326.124H792.477L794.993 322.923C795.085 322.8 795.177 322.749 795.365 322.749H798.602C798.765 322.749 798.813 322.852 798.742 322.958L794.316 328.473L799.068 334.373C799.138 334.478 799.094 334.582 798.931 334.582H795.691C795.481 334.582 795.389 334.529 795.296 334.408L792.477 330.806H792.408L789.567 334.408C789.473 334.529 789.38 334.582 789.171 334.582H785.957C785.794 334.582 785.724 334.478 785.817 334.373Z" fill="#0F00FF"/>
<path d="M634.062 300.622C633.319 300.622 632.596 300.776 631.955 301.138L611.698 312.836C610.388 313.592 609.591 315.018 609.591 316.536V339.89C609.591 341.406 610.388 342.831 611.698 343.588L616.989 346.642C619.559 347.909 620.506 347.889 621.676 347.889C625.482 347.889 627.654 345.58 627.654 341.567V318.514C627.654 318.188 627.372 317.955 627.052 317.955H624.515C624.19 317.955 623.913 318.188 623.913 318.514V341.567C623.913 343.345 622.06 345.134 619.053 343.631L613.548 340.406C613.353 340.3 613.204 340.113 613.204 339.89V316.535C613.204 316.314 613.351 316.089 613.548 315.976L633.762 304.322C633.853 304.268 633.957 304.24 634.063 304.24C634.168 304.24 634.272 304.268 634.364 304.322L654.578 315.977C654.771 316.093 654.922 316.308 654.922 316.536V339.89C654.922 340.113 654.81 340.342 654.621 340.449L634.364 352.104C634.19 352.208 633.951 352.208 633.762 352.104L628.558 349.008C628.478 348.965 628.39 348.943 628.3 348.943C628.21 348.943 628.121 348.965 628.042 349.008C626.605 349.822 626.335 349.917 624.988 350.384C624.656 350.5 624.152 350.68 625.16 351.245L631.955 355.244C632.596 355.613 633.323 355.807 634.063 355.803C634.803 355.808 635.53 355.615 636.17 355.244L656.428 343.589C657.738 342.827 658.535 341.407 658.535 339.89V316.536C658.535 315.019 657.738 313.595 656.428 312.838L636.17 301.139C635.535 300.777 634.807 300.623 634.063 300.623L634.062 300.622Z" fill="#189100"/>
<path d="M639.482 317.31C633.713 317.31 630.278 319.765 630.278 323.848C630.278 328.276 633.688 329.493 639.224 330.04C645.847 330.689 646.363 331.662 646.363 332.965C646.363 335.227 644.56 336.191 640.299 336.191C634.945 336.191 633.769 334.854 633.375 332.191C633.328 331.905 633.108 331.675 632.815 331.675H630.192C629.869 331.675 629.59 331.953 629.59 332.277C629.59 335.686 631.444 339.718 640.299 339.718C646.709 339.718 650.406 337.202 650.406 332.793C650.406 328.424 647.42 327.25 641.202 326.428C634.92 325.597 634.321 325.19 634.321 323.719C634.321 322.504 634.829 320.879 639.482 320.879C643.639 320.879 645.175 321.776 645.804 324.579C645.859 324.842 646.091 325.052 646.363 325.052H648.987C649.149 325.052 649.305 324.952 649.417 324.836C649.527 324.713 649.605 324.573 649.589 324.407C649.183 319.58 645.964 317.31 639.482 317.31Z" fill="#189100"/>
<path d="M514.971 270C514.745 270 514.522 270.06 514.326 270.172C514.13 270.286 513.968 270.449 513.855 270.646C513.742 270.842 513.682 271.064 513.681 271.29V304.192C513.681 304.515 513.531 304.804 513.251 304.966C513.114 305.046 512.958 305.088 512.799 305.088C512.641 305.088 512.485 305.046 512.348 304.966L506.972 301.87C506.579 301.643 506.134 301.523 505.681 301.523C505.228 301.523 504.783 301.643 504.391 301.87L482.93 314.256C482.127 314.719 481.64 315.609 481.64 316.536V341.309C481.64 342.234 482.128 343.082 482.93 343.545L504.391 355.932C504.783 356.159 505.228 356.279 505.681 356.279C506.134 356.279 506.58 356.159 506.972 355.932L528.433 343.545C528.826 343.319 529.152 342.993 529.379 342.6C529.605 342.208 529.724 341.762 529.723 341.309V279.548C529.723 279.084 529.599 278.629 529.365 278.228C529.131 277.828 528.795 277.497 528.39 277.268L515.616 270.129C515.416 270.017 515.194 269.997 514.971 270ZM376.913 300.924C376.504 300.94 376.119 301.011 375.752 301.224L354.29 313.611C353.897 313.837 353.57 314.163 353.344 314.555C353.117 314.948 352.999 315.394 353 315.847L353.043 349.094C353.043 349.556 353.282 349.986 353.688 350.212C353.883 350.329 354.106 350.391 354.333 350.391C354.561 350.391 354.784 350.329 354.979 350.212L367.709 342.901C368.515 342.421 369.042 341.588 369.042 340.664V325.138C369.042 324.211 369.529 323.361 370.333 322.901L375.751 319.761C376.143 319.534 376.589 319.415 377.042 319.417C377.484 319.417 377.939 319.528 378.332 319.761L383.751 322.901C384.145 323.126 384.471 323.452 384.698 323.845C384.925 324.238 385.043 324.684 385.042 325.138V340.663C385.042 341.587 385.574 342.427 386.375 342.9L399.105 350.212C399.3 350.329 399.523 350.391 399.75 350.391C399.978 350.391 400.201 350.329 400.396 350.212C400.592 350.098 400.755 349.935 400.868 349.739C400.981 349.543 401.041 349.32 401.041 349.093L401.083 315.847C401.086 315.394 400.968 314.947 400.741 314.555C400.514 314.162 400.187 313.836 399.793 313.611L378.332 301.224C377.969 301.011 377.583 300.94 377.171 300.924H376.913ZM569.764 301.224C569.316 301.224 568.877 301.338 568.474 301.569L547.013 313.955C546.62 314.181 546.294 314.507 546.067 314.9C545.841 315.293 545.722 315.738 545.723 316.192V340.965C545.723 341.896 546.247 342.74 547.056 343.201L568.345 355.33C569.131 355.778 570.091 355.812 570.883 355.372L583.785 348.19C584.195 347.962 584.472 347.538 584.473 347.072C584.476 346.845 584.417 346.621 584.304 346.425C584.19 346.228 584.026 346.065 583.829 345.953L562.238 333.567C561.834 333.336 561.55 332.869 561.55 332.405V324.664C561.55 324.201 561.837 323.777 562.238 323.546L568.947 319.675C569.143 319.561 569.366 319.501 569.593 319.501C569.819 319.501 570.042 319.561 570.238 319.675L576.947 323.546C577.143 323.659 577.306 323.822 577.42 324.018C577.533 324.214 577.592 324.437 577.592 324.664V330.771C577.591 330.998 577.651 331.22 577.764 331.417C577.877 331.613 578.041 331.776 578.237 331.889C578.639 332.121 579.126 332.122 579.527 331.889L592.387 324.407C592.78 324.18 593.105 323.853 593.332 323.461C593.558 323.068 593.678 322.623 593.678 322.17V316.192C593.678 315.269 593.188 314.419 592.387 313.955L571.055 301.569C570.663 301.342 570.217 301.223 569.764 301.224ZM505.595 319.718C505.707 319.718 505.839 319.746 505.939 319.804L513.294 324.062C513.494 324.177 513.638 324.39 513.638 324.621V333.136C513.638 333.368 513.495 333.58 513.294 333.696L505.939 337.954C505.841 338.01 505.73 338.039 505.617 338.039C505.504 338.039 505.392 338.01 505.294 337.954L497.94 333.696C497.74 333.58 497.596 333.368 497.596 333.136V324.621C497.596 324.39 497.74 324.178 497.94 324.062L505.294 319.804C505.385 319.748 505.489 319.719 505.596 319.719L505.595 319.718Z" fill="#23241B"/>
<path d="M441.383 301.095C440.936 301.095 440.493 301.209 440.093 301.439L418.632 313.783C417.829 314.245 417.341 315.137 417.341 316.062V340.835C417.341 341.762 417.829 342.608 418.632 343.072L440.093 355.458C440.485 355.686 440.93 355.806 441.383 355.806C441.836 355.806 442.282 355.686 442.674 355.458L464.135 343.072C464.528 342.846 464.854 342.52 465.08 342.127C465.307 341.734 465.426 341.289 465.425 340.835V316.062C465.425 315.136 464.937 314.245 464.135 313.783L442.674 301.439C442.281 301.213 441.836 301.094 441.383 301.095ZM569.721 323.202C569.636 323.202 569.541 323.202 569.464 323.245L565.335 325.653C565.258 325.696 565.194 325.759 565.148 325.834C565.103 325.91 565.078 325.996 565.077 326.084V330.815C565.077 330.993 565.18 331.156 565.335 331.245L569.464 333.61C569.619 333.7 569.784 333.7 569.937 333.61L574.065 331.244C574.142 331.201 574.206 331.139 574.251 331.064C574.297 330.988 574.322 330.902 574.324 330.815V326.083C574.322 325.995 574.297 325.91 574.251 325.834C574.206 325.759 574.142 325.697 574.065 325.653L569.937 323.245C569.86 323.2 569.807 323.202 569.721 323.202Z" fill="#189100"/>
<defs>
<linearGradient id="paint0_linear_0_1" x1="1.18946e-05" y1="620.369" x2="1200" y2="9.63171" gradientUnits="userSpaceOnUse">
<stop offset="0.2" stop-color="#E0BBFF"/>
<stop offset="0.4" stop-color="#A3D5FF"/>
<stop offset="0.6" stop-color="#B2F7EF"/>
<stop offset="0.8" stop-color="#A2F2C2"/>
<stop offset="1" stop-color="#F5F9B2"/>
</linearGradient>
</defs>
</svg>
