<svg width="1200" height="630" viewBox="0 0 1200 630" fill="none" xmlns="http://www.w3.org/2000/svg">
<rect width="1200" height="630" fill="#1E1E1E"/>
<path d="M0 0H1200V630H0V0Z" fill="url(#paint0_linear_0_1)"/>
<path d="M348.64 382V354H358.44L363.28 378.4H364L368.84 354H378.64V382H373.52V357.88H372.8L368 382H359.28L354.48 357.88H353.76V382H348.64ZM391.633 382.32C390.087 382.32 388.727 381.973 387.553 381.28C386.407 380.56 385.513 379.573 384.873 378.32C384.233 377.067 383.913 375.627 383.913 374V362.16H388.953V373.6C388.953 375.093 389.313 376.213 390.033 376.96C390.78 377.707 391.833 378.08 393.193 378.08C394.74 378.08 395.94 377.573 396.793 376.56C397.647 375.52 398.073 374.08 398.073 372.24V362.16H403.113V382H398.153V379.4H397.433C397.113 380.067 396.513 380.72 395.633 381.36C394.753 382 393.42 382.32 391.633 382.32ZM408.722 382V354H413.762V382H408.722ZM426.947 382C425.64 382 424.574 381.6 423.747 380.8C422.947 379.973 422.547 378.88 422.547 377.52V366.32H417.587V362.16H422.547V356H427.587V362.16H433.027V366.32H427.587V376.64C427.587 377.44 427.96 377.84 428.707 377.84H432.547V382H426.947ZM437.589 382V362.16H442.629V382H437.589ZM440.109 359.84C439.202 359.84 438.429 359.547 437.789 358.96C437.176 358.373 436.869 357.6 436.869 356.64C436.869 355.68 437.176 354.907 437.789 354.32C438.429 353.733 439.202 353.44 440.109 353.44C441.042 353.44 441.816 353.733 442.429 354.32C443.042 354.907 443.349 355.68 443.349 356.64C443.349 357.6 443.042 358.373 442.429 358.96C441.816 359.547 441.042 359.84 440.109 359.84ZM448.134 374.08V369.52H459.974V374.08H448.134ZM468.753 382V358.8H460.593V354H482.193V358.8H474.033V382H468.753ZM485.948 382V354H490.988V364.6H491.708C491.922 364.173 492.255 363.747 492.708 363.32C493.162 362.893 493.762 362.547 494.508 362.28C495.282 361.987 496.255 361.84 497.428 361.84C498.975 361.84 500.322 362.2 501.468 362.92C502.642 363.613 503.548 364.587 504.188 365.84C504.828 367.067 505.148 368.507 505.148 370.16V382H500.108V370.56C500.108 369.067 499.735 367.947 498.988 367.2C498.268 366.453 497.228 366.08 495.868 366.08C494.322 366.08 493.122 366.6 492.268 367.64C491.415 368.653 490.988 370.08 490.988 371.92V382H485.948ZM510.597 382V362.16H515.557V364.4H516.277C516.57 363.6 517.05 363.013 517.717 362.64C518.41 362.267 519.21 362.08 520.117 362.08H522.517V366.56H520.037C518.757 366.56 517.704 366.907 516.877 367.6C516.05 368.267 515.637 369.307 515.637 370.72V382H510.597ZM534.793 382.56C532.82 382.56 531.073 382.147 529.553 381.32C528.06 380.467 526.886 379.28 526.033 377.76C525.206 376.213 524.793 374.4 524.793 372.32V371.84C524.793 369.76 525.206 367.96 526.033 366.44C526.86 364.893 528.02 363.707 529.513 362.88C531.006 362.027 532.74 361.6 534.713 361.6C536.66 361.6 538.353 362.04 539.793 362.92C541.233 363.773 542.353 364.973 543.153 366.52C543.953 368.04 544.353 369.813 544.353 371.84V373.56H529.913C529.966 374.92 530.473 376.027 531.433 376.88C532.393 377.733 533.566 378.16 534.953 378.16C536.366 378.16 537.406 377.853 538.073 377.24C538.74 376.627 539.246 375.947 539.593 375.2L543.713 377.36C543.34 378.053 542.793 378.813 542.073 379.64C541.38 380.44 540.446 381.133 539.273 381.72C538.1 382.28 536.606 382.56 534.793 382.56ZM529.953 369.8H539.233C539.126 368.653 538.66 367.733 537.833 367.04C537.033 366.347 535.98 366 534.673 366C533.313 366 532.233 366.347 531.433 367.04C530.633 367.733 530.14 368.653 529.953 369.8ZM554.999 382.56C553.586 382.56 552.319 382.32 551.199 381.84C550.079 381.333 549.186 380.613 548.519 379.68C547.879 378.72 547.559 377.56 547.559 376.2C547.559 374.84 547.879 373.707 548.519 372.8C549.186 371.867 550.092 371.173 551.239 370.72C552.412 370.24 553.746 370 555.239 370H560.679V368.88C560.679 367.947 560.386 367.187 559.799 366.6C559.212 365.987 558.279 365.68 556.999 365.68C555.746 365.68 554.812 365.973 554.199 366.56C553.586 367.12 553.186 367.853 552.999 368.76L548.359 367.2C548.679 366.187 549.186 365.267 549.879 364.44C550.599 363.587 551.546 362.907 552.719 362.4C553.919 361.867 555.372 361.6 557.079 361.6C559.692 361.6 561.759 362.253 563.279 363.56C564.799 364.867 565.559 366.76 565.559 369.24V376.64C565.559 377.44 565.932 377.84 566.679 377.84H568.279V382H564.919C563.932 382 563.119 381.76 562.479 381.28C561.839 380.8 561.519 380.16 561.519 379.36V379.32H560.759C560.652 379.64 560.412 380.067 560.039 380.6C559.666 381.107 559.079 381.56 558.279 381.96C557.479 382.36 556.386 382.56 554.999 382.56ZM555.879 378.48C557.292 378.48 558.439 378.093 559.319 377.32C560.226 376.52 560.679 375.467 560.679 374.16V373.76H555.599C554.666 373.76 553.932 373.96 553.399 374.36C552.866 374.76 552.599 375.32 552.599 376.04C552.599 376.76 552.879 377.347 553.439 377.8C553.999 378.253 554.812 378.48 555.879 378.48ZM579.573 382.56C578 382.56 576.52 382.173 575.133 381.4C573.773 380.6 572.68 379.44 571.853 377.92C571.027 376.4 570.613 374.56 570.613 372.4V371.76C570.613 369.6 571.027 367.76 571.853 366.24C572.68 364.72 573.773 363.573 575.133 362.8C576.493 362 577.973 361.6 579.573 361.6C580.773 361.6 581.773 361.747 582.573 362.04C583.4 362.307 584.067 362.653 584.573 363.08C585.08 363.507 585.467 363.96 585.733 364.44H586.453V354H591.493V382H586.533V379.6H585.813C585.36 380.347 584.653 381.027 583.693 381.64C582.76 382.253 581.387 382.56 579.573 382.56ZM581.093 378.16C582.64 378.16 583.933 377.667 584.973 376.68C586.013 375.667 586.533 374.2 586.533 372.28V371.88C586.533 369.96 586.013 368.507 584.973 367.52C583.96 366.507 582.667 366 581.093 366C579.547 366 578.253 366.507 577.213 367.52C576.173 368.507 575.653 369.96 575.653 371.88V372.28C575.653 374.2 576.173 375.667 577.213 376.68C578.253 377.667 579.547 378.16 581.093 378.16ZM597.081 382V362.16H602.121V382H597.081ZM599.601 359.84C598.695 359.84 597.921 359.547 597.281 358.96C596.668 358.373 596.361 357.6 596.361 356.64C596.361 355.68 596.668 354.907 597.281 354.32C597.921 353.733 598.695 353.44 599.601 353.44C600.535 353.44 601.308 353.733 601.921 354.32C602.535 354.907 602.841 355.68 602.841 356.64C602.841 357.6 602.535 358.373 601.921 358.96C601.308 359.547 600.535 359.84 599.601 359.84ZM607.706 382V362.16H612.666V364.76H613.386C613.706 364.067 614.306 363.413 615.186 362.8C616.066 362.16 617.4 361.84 619.186 361.84C620.733 361.84 622.08 362.2 623.226 362.92C624.4 363.613 625.306 364.587 625.946 365.84C626.586 367.067 626.906 368.507 626.906 370.16V382H621.866V370.56C621.866 369.067 621.493 367.947 620.746 367.2C620.026 366.453 618.986 366.08 617.626 366.08C616.08 366.08 614.88 366.6 614.026 367.64C613.173 368.653 612.746 370.08 612.746 371.92V382H607.706ZM631.395 372.16V371.52C631.395 369.44 631.808 367.667 632.635 366.2C633.461 364.707 634.555 363.573 635.915 362.8C637.301 362 638.808 361.6 640.435 361.6C642.248 361.6 643.621 361.92 644.555 362.56C645.488 363.2 646.168 363.867 646.595 364.56H647.315V362.16H652.275V385.52C652.275 386.88 651.875 387.96 651.075 388.76C650.275 389.587 649.208 390 647.875 390H634.595V385.6H646.115C646.861 385.6 647.235 385.2 647.235 384.4V379.24H646.515C646.248 379.667 645.875 380.107 645.395 380.56C644.915 380.987 644.275 381.347 643.475 381.64C642.675 381.933 641.661 382.08 640.435 382.08C638.808 382.08 637.301 381.693 635.915 380.92C634.555 380.12 633.461 378.987 632.635 377.52C631.808 376.027 631.395 374.24 631.395 372.16ZM641.875 377.68C643.421 377.68 644.715 377.187 645.755 376.2C646.795 375.213 647.315 373.827 647.315 372.04V371.64C647.315 369.827 646.795 368.44 645.755 367.48C644.741 366.493 643.448 366 641.875 366C640.328 366 639.035 366.493 637.995 367.48C636.955 368.44 636.435 369.827 636.435 371.64V372.04C636.435 373.827 636.955 375.213 637.995 376.2C639.035 377.187 640.328 377.68 641.875 377.68ZM668.019 382V362.16H673.059V382H668.019ZM670.539 359.84C669.632 359.84 668.859 359.547 668.219 358.96C667.605 358.373 667.299 357.6 667.299 356.64C667.299 355.68 667.605 354.907 668.219 354.32C668.859 353.733 669.632 353.44 670.539 353.44C671.472 353.44 672.245 353.733 672.859 354.32C673.472 354.907 673.779 355.68 673.779 356.64C673.779 357.6 673.472 358.373 672.859 358.96C672.245 359.547 671.472 359.84 670.539 359.84ZM678.644 382V362.16H683.604V364.76H684.324C684.644 364.067 685.244 363.413 686.124 362.8C687.004 362.16 688.337 361.84 690.124 361.84C691.67 361.84 693.017 362.2 694.164 362.92C695.337 363.613 696.244 364.587 696.884 365.84C697.524 367.067 697.844 368.507 697.844 370.16V382H692.804V370.56C692.804 369.067 692.43 367.947 691.684 367.2C690.964 366.453 689.924 366.08 688.564 366.08C687.017 366.08 685.817 366.6 684.964 367.64C684.11 368.653 683.684 370.08 683.684 371.92V382H678.644ZM713.288 382V354H723.328L728.888 378.4H729.608V354H734.808V382H724.768L719.208 357.6H718.488V382H713.288ZM749.685 382.56C747.712 382.56 745.939 382.16 744.365 381.36C742.792 380.56 741.552 379.4 740.645 377.88C739.739 376.36 739.285 374.533 739.285 372.4V371.76C739.285 369.627 739.739 367.8 740.645 366.28C741.552 364.76 742.792 363.6 744.365 362.8C745.939 362 747.712 361.6 749.685 361.6C751.659 361.6 753.432 362 755.005 362.8C756.579 363.6 757.819 364.76 758.725 366.28C759.632 367.8 760.085 369.627 760.085 371.76V372.4C760.085 374.533 759.632 376.36 758.725 377.88C757.819 379.4 756.579 380.56 755.005 381.36C753.432 382.16 751.659 382.56 749.685 382.56ZM749.685 378.08C751.232 378.08 752.512 377.587 753.525 376.6C754.539 375.587 755.045 374.147 755.045 372.28V371.88C755.045 370.013 754.539 368.587 753.525 367.6C752.539 366.587 751.259 366.08 749.685 366.08C748.139 366.08 746.859 366.587 745.845 367.6C744.832 368.587 744.325 370.013 744.325 371.88V372.28C744.325 374.147 744.832 375.587 745.845 376.6C746.859 377.587 748.139 378.08 749.685 378.08ZM772.738 382.56C771.164 382.56 769.684 382.173 768.298 381.4C766.938 380.6 765.844 379.44 765.018 377.92C764.191 376.4 763.778 374.56 763.778 372.4V371.76C763.778 369.6 764.191 367.76 765.018 366.24C765.844 364.72 766.938 363.573 768.298 362.8C769.658 362 771.138 361.6 772.738 361.6C773.938 361.6 774.938 361.747 775.738 362.04C776.564 362.307 777.231 362.653 777.738 363.08C778.244 363.507 778.631 363.96 778.898 364.44H779.618V354H784.658V382H779.698V379.6H778.978C778.524 380.347 777.818 381.027 776.858 381.64C775.924 382.253 774.551 382.56 772.738 382.56ZM774.258 378.16C775.804 378.16 777.098 377.667 778.138 376.68C779.178 375.667 779.698 374.2 779.698 372.28V371.88C779.698 369.96 779.178 368.507 778.138 367.52C777.124 366.507 775.831 366 774.258 366C772.711 366 771.418 366.507 770.378 367.52C769.338 368.507 768.818 369.96 768.818 371.88V372.28C768.818 374.2 769.338 375.667 770.378 376.68C771.418 377.667 772.711 378.16 774.258 378.16ZM799.285 382.56C797.312 382.56 795.565 382.147 794.045 381.32C792.552 380.467 791.379 379.28 790.525 377.76C789.699 376.213 789.285 374.4 789.285 372.32V371.84C789.285 369.76 789.699 367.96 790.525 366.44C791.352 364.893 792.512 363.707 794.005 362.88C795.499 362.027 797.232 361.6 799.205 361.6C801.152 361.6 802.845 362.04 804.285 362.92C805.725 363.773 806.845 364.973 807.645 366.52C808.445 368.04 808.845 369.813 808.845 371.84V373.56H794.405C794.459 374.92 794.965 376.027 795.925 376.88C796.885 377.733 798.059 378.16 799.445 378.16C800.859 378.16 801.899 377.853 802.565 377.24C803.232 376.627 803.739 375.947 804.085 375.2L808.205 377.36C807.832 378.053 807.285 378.813 806.565 379.64C805.872 380.44 804.939 381.133 803.765 381.72C802.592 382.28 801.099 382.56 799.285 382.56ZM794.445 369.8H803.725C803.619 368.653 803.152 367.733 802.325 367.04C801.525 366.347 800.472 366 799.165 366C797.805 366 796.725 366.347 795.925 367.04C795.125 367.733 794.632 368.653 794.445 369.8ZM816.257 382.56C815.19 382.56 814.284 382.213 813.537 381.52C812.817 380.8 812.457 379.88 812.457 378.76C812.457 377.64 812.817 376.733 813.537 376.04C814.284 375.32 815.19 374.96 816.257 374.96C817.35 374.96 818.257 375.32 818.977 376.04C819.697 376.733 820.057 377.64 820.057 378.76C820.057 379.88 819.697 380.8 818.977 381.52C818.257 382.213 817.35 382.56 816.257 382.56ZM821.331 390V385.68H823.971C824.718 385.68 825.091 385.28 825.091 384.48V362.16H830.131V385.52C830.131 386.88 829.731 387.96 828.931 388.76C828.131 389.587 827.064 390 825.731 390H821.331ZM827.611 359.84C826.704 359.84 825.931 359.547 825.291 358.96C824.678 358.373 824.371 357.6 824.371 356.64C824.371 355.68 824.678 354.907 825.291 354.32C825.931 353.733 826.704 353.44 827.611 353.44C828.544 353.44 829.318 353.733 829.931 354.32C830.544 354.907 830.851 355.68 830.851 356.64C830.851 357.6 830.544 358.373 829.931 358.96C829.318 359.547 828.544 359.84 827.611 359.84ZM843.954 382.56C841.367 382.56 839.247 382 837.594 380.88C835.941 379.76 834.941 378.16 834.594 376.08L839.234 374.88C839.421 375.813 839.727 376.547 840.154 377.08C840.607 377.613 841.154 378 841.794 378.24C842.461 378.453 843.181 378.56 843.954 378.56C845.127 378.56 845.994 378.36 846.554 377.96C847.114 377.533 847.394 377.013 847.394 376.4C847.394 375.787 847.127 375.32 846.594 375C846.061 374.653 845.207 374.373 844.034 374.16L842.914 373.96C841.527 373.693 840.261 373.333 839.114 372.88C837.967 372.4 837.047 371.747 836.354 370.92C835.661 370.093 835.314 369.027 835.314 367.72C835.314 365.747 836.034 364.24 837.474 363.2C838.914 362.133 840.807 361.6 843.154 361.6C845.367 361.6 847.207 362.093 848.674 363.08C850.141 364.067 851.101 365.36 851.554 366.96L846.874 368.4C846.661 367.387 846.221 366.667 845.554 366.24C844.914 365.813 844.114 365.6 843.154 365.6C842.194 365.6 841.461 365.773 840.954 366.12C840.447 366.44 840.194 366.893 840.194 367.48C840.194 368.12 840.461 368.6 840.994 368.92C841.527 369.213 842.247 369.44 843.154 369.6L844.274 369.8C845.767 370.067 847.114 370.427 848.314 370.88C849.541 371.307 850.501 371.933 851.194 372.76C851.914 373.56 852.274 374.653 852.274 376.04C852.274 378.12 851.514 379.733 849.994 380.88C848.501 382 846.487 382.56 843.954 382.56Z" fill="#0D0D0D"/>
<path d="M732.065 298.657C731.285 298.999 730.45 299.262 728.944 299.267C727.941 299.267 727.232 299.143 726.644 298.967C725.765 298.704 725.113 298.283 724.177 297.862C723.246 297.443 722.067 297.097 720.35 297.102C719.205 297.101 718.304 297.248 717.55 297.478C716.415 297.825 715.658 298.316 714.883 298.657C714.103 298.999 713.268 299.262 711.763 299.267C710.761 299.267 710.052 299.143 709.464 298.967C708.585 298.704 707.934 298.283 706.998 297.862C706.068 297.443 704.888 297.097 703.173 297.102C702.028 297.101 701.127 297.248 700.372 297.478C699.238 297.825 698.481 298.317 697.706 298.657C696.925 298.999 696.09 299.262 694.586 299.267C693.584 299.267 692.876 299.143 692.288 298.967C691.412 298.704 690.759 298.283 689.824 297.862C688.893 297.443 687.716 297.097 686 297.102V298.835C687.002 298.835 687.711 298.958 688.298 299.136C689.176 299.398 689.827 299.819 690.762 300.24C691.692 300.66 692.871 301.006 694.586 301C695.731 301.002 696.633 300.853 697.386 300.625C698.521 300.278 699.277 299.784 700.053 299.445C700.834 299.103 701.668 298.839 703.172 298.835C704.175 298.835 704.884 298.958 705.472 299.136C706.35 299.398 707.002 299.819 707.938 300.241C708.869 300.66 710.047 301.006 711.763 301C712.908 301.002 713.81 300.853 714.563 300.625C715.698 300.278 716.455 299.784 717.231 299.445C718.011 299.103 718.846 298.839 720.35 298.835C721.353 298.835 722.062 298.958 722.651 299.136C723.529 299.398 724.183 299.819 725.118 300.241C726.048 300.66 727.228 301.006 728.944 301C730.089 301.002 730.991 300.853 731.745 300.625C732.881 300.278 733.638 299.785 734.415 299.445C735.196 299.103 736.031 298.839 737.537 298.835V297.102C736.391 297.101 735.489 297.248 734.736 297.478C733.599 297.824 732.842 298.316 732.065 298.657Z" fill="#0F00FF"/>
<path d="M732.065 286.623C731.285 286.965 730.45 287.228 728.944 287.233C727.941 287.233 727.232 287.109 726.644 286.933C725.765 286.67 725.113 286.249 724.177 285.828C723.246 285.409 722.067 285.063 720.35 285.068C719.205 285.067 718.304 285.214 717.55 285.444C716.415 285.791 715.658 286.282 714.883 286.623C714.103 286.965 713.268 287.228 711.763 287.233C710.761 287.233 710.052 287.109 709.464 286.933C708.585 286.67 707.934 286.249 706.998 285.828C706.068 285.409 704.888 285.063 703.173 285.068C702.028 285.067 701.127 285.214 700.372 285.444C699.238 285.791 698.481 286.282 697.706 286.623C696.925 286.965 696.09 287.228 694.586 287.233C693.584 287.233 692.876 287.109 692.288 286.933C691.412 286.67 690.759 286.249 689.824 285.828C688.893 285.409 687.716 285.063 686 285.068V286.8C687.002 286.801 687.711 286.924 688.298 287.102C689.176 287.364 689.827 287.784 690.762 288.206C691.692 288.626 692.871 288.971 694.586 288.966C695.731 288.967 696.633 288.819 697.386 288.591C698.521 288.244 699.277 287.75 700.053 287.411C700.834 287.068 701.668 286.805 703.172 286.801C704.175 286.801 704.884 286.924 705.472 287.102C706.35 287.364 707.002 287.785 707.938 288.207C708.869 288.626 710.047 288.972 711.763 288.966C712.908 288.968 713.81 288.819 714.563 288.591C715.698 288.244 716.455 287.751 717.231 287.411C718.011 287.069 718.846 286.805 720.35 286.801C721.353 286.801 722.062 286.924 722.651 287.102C723.529 287.364 724.183 287.785 725.118 288.207C726.048 288.626 727.228 288.972 728.944 288.966C730.089 288.968 730.991 288.819 731.745 288.591C732.881 288.244 733.638 287.751 734.415 287.411C735.196 287.069 736.031 286.806 737.537 286.801V285.068C736.391 285.067 735.489 285.214 734.736 285.444C733.599 285.791 732.842 286.282 732.065 286.623Z" fill="#0F00FF"/>
<path d="M732.065 274.589C731.285 274.931 730.45 275.194 728.944 275.199C727.941 275.199 727.232 275.075 726.644 274.899C725.765 274.636 725.113 274.215 724.177 273.794C723.246 273.375 722.067 273.029 720.35 273.034C719.205 273.033 718.304 273.18 717.55 273.41C716.415 273.756 715.658 274.249 714.883 274.589C714.103 274.931 713.268 275.194 711.763 275.199C710.761 275.199 710.052 275.075 709.464 274.899C708.585 274.636 707.934 274.215 706.998 273.794C706.068 273.375 704.888 273.029 703.173 273.034C702.028 273.033 701.127 273.18 700.372 273.41C699.238 273.756 698.481 274.249 697.706 274.589C696.925 274.931 696.09 275.194 694.586 275.199C693.584 275.199 692.876 275.075 692.288 274.899C691.412 274.636 690.759 274.215 689.824 273.794C688.893 273.375 687.716 273.029 686 273.034V274.767C687.002 274.767 687.711 274.89 688.298 275.068C689.176 275.33 689.827 275.751 690.762 276.172C691.692 276.592 692.871 276.938 694.586 276.932C695.731 276.934 696.633 276.785 697.386 276.557C698.521 276.21 699.277 275.716 700.053 275.377C700.834 275.034 701.668 274.771 703.172 274.767C704.175 274.767 704.884 274.89 705.472 275.068C706.35 275.33 707.002 275.75 707.938 276.173C708.869 276.592 710.047 276.938 711.763 276.932C712.908 276.934 713.81 276.785 714.563 276.557C715.698 276.21 716.455 275.716 717.231 275.377C718.011 275.034 718.846 274.771 720.35 274.767C721.353 274.767 722.062 274.89 722.651 275.068C723.529 275.33 724.183 275.751 725.118 276.173C726.048 276.592 727.228 276.938 728.944 276.932C730.089 276.934 730.991 276.785 731.745 276.557C732.881 276.21 733.638 275.717 734.415 275.377C735.196 275.034 736.031 274.771 737.537 274.767V273.034C736.391 273.033 735.489 273.18 734.736 273.41C733.599 273.757 732.842 274.249 732.065 274.589Z" fill="#0F00FF"/>
<path d="M734.736 261.376C733.599 261.723 732.842 262.215 732.065 262.555C731.285 262.897 730.45 263.161 728.944 263.165C727.941 263.165 727.232 263.041 726.644 262.865C725.765 262.602 725.113 262.181 724.177 261.76C723.246 261.341 722.067 260.995 720.35 261C719.205 260.999 718.304 261.146 717.55 261.376C716.415 261.723 715.658 262.215 714.883 262.555C714.103 262.897 713.268 263.161 711.763 263.165C710.761 263.165 710.052 263.041 709.464 262.865C708.585 262.602 707.934 262.181 706.998 261.76C706.068 261.341 704.888 260.995 703.173 261C702.028 260.999 701.127 261.146 700.372 261.376C699.238 261.723 698.481 262.215 697.706 262.555C696.925 262.897 696.09 263.161 694.586 263.165C693.584 263.165 692.876 263.041 692.288 262.865C691.412 262.602 690.759 262.181 689.824 261.76C688.893 261.341 687.716 260.995 686 261V262.733C687.001 262.733 687.711 262.856 688.298 263.034C689.176 263.296 689.827 263.717 690.762 264.138C691.692 264.558 692.871 264.904 694.585 264.898C695.731 264.899 696.633 264.751 697.385 264.523C698.521 264.176 699.277 263.682 700.053 263.343C700.834 263 701.668 262.737 703.172 262.732C704.175 262.733 704.884 262.856 705.472 263.034C706.35 263.296 707.002 263.717 707.938 264.139C708.868 264.558 710.047 264.904 711.763 264.898C712.908 264.899 713.81 264.751 714.563 264.523C715.698 264.176 716.455 263.682 717.231 263.343C718.011 263 718.845 262.737 720.349 262.732C721.353 262.733 722.062 262.856 722.651 263.034C723.529 263.296 724.182 263.717 725.118 264.139C726.048 264.558 727.228 264.904 728.943 264.898C730.089 264.899 730.991 264.751 731.745 264.523C732.881 264.176 733.638 263.683 734.415 263.343C735.196 263 736.03 262.737 737.537 262.732V261C736.391 260.999 735.489 261.146 734.736 261.376Z" fill="#0F00FF"/>
<path d="M790.929 238.665C790.929 237.193 789.857 236 788.535 236H787.654C786.333 236 785.261 237.193 785.261 238.665V246.035H790.929V238.665Z" fill="#1305FF"/>
<path d="M802.264 238.665C802.264 237.193 801.192 236 799.871 236H798.991C797.67 236 796.598 237.193 796.598 238.665V246.035H802.264V238.665Z" fill="#1305FF"/>
<path d="M813.6 238.665C813.6 237.193 812.527 236 811.206 236H810.327C809.005 236 807.933 237.193 807.933 238.665V246.035H813.6V238.665Z" fill="#1305FF"/>
<path d="M824.936 238.665C824.936 237.193 823.864 236 822.543 236H821.662C820.34 236 819.268 237.193 819.268 238.665V246.035H824.936V238.665Z" fill="#1305FF"/>
<path d="M843.606 259.432H836.981V265.737H843.606C844.928 265.737 846 264.545 846 263.073V262.096C846 260.625 844.928 259.432 843.606 259.432Z" fill="#1305FF"/>
<path d="M843.606 272.043H836.981V278.347H843.606C844.928 278.347 846 277.154 846 275.684V274.708C846 273.236 844.928 272.043 843.606 272.043Z" fill="#1305FF"/>
<path d="M843.606 284.653H836.981V290.957H843.606C844.928 290.957 846 289.764 846 288.292V287.316C846 285.846 844.928 284.653 843.606 284.653Z" fill="#1305FF"/>
<path d="M843.606 297.262H836.981V303.568H843.606C844.928 303.568 846 302.375 846 300.903V299.927C846 298.455 844.928 297.262 843.606 297.262Z" fill="#1305FF"/>
<path d="M764.197 262.096V263.073C764.197 264.545 765.27 265.737 766.591 265.737H773.218V259.432H766.591C765.27 259.432 764.197 260.625 764.197 262.096Z" fill="#1305FF"/>
<path d="M764.197 274.708V275.684C764.197 277.154 765.27 278.347 766.591 278.347H773.218V272.043H766.591C765.27 272.043 764.197 273.236 764.197 274.708Z" fill="#1305FF"/>
<path d="M785.261 324.335C785.261 325.807 786.333 327 787.654 327H788.535C789.857 327 790.929 325.807 790.929 324.335V316.967H785.261V324.335Z" fill="#0F00FF"/>
<path d="M796.598 324.335C796.598 325.807 797.67 327 798.991 327H799.871C801.192 327 802.264 325.807 802.264 324.335V316.967H796.598V324.335Z" fill="#0F00FF"/>
<path d="M807.933 324.335C807.933 325.807 809.005 327 810.326 327H811.206C812.527 327 813.6 325.807 813.6 324.335V316.967H807.933V324.335Z" fill="#0F00FF"/>
<path d="M819.268 324.335C819.268 325.807 820.34 327 821.662 327H822.543C823.864 327 824.936 325.807 824.936 324.335V316.967H819.268V324.335Z" fill="#0F00FF"/>
<path d="M764.197 287.316V288.292C764.197 289.764 765.27 290.957 766.591 290.957H773.218V284.653H766.591C765.27 284.653 764.197 285.846 764.197 287.316Z" fill="#0F00FF"/>
<path d="M764.197 299.927V300.903C764.197 302.375 765.27 303.568 766.591 303.568H773.218V297.263H766.591C765.27 297.262 764.197 298.455 764.197 299.927Z" fill="#0F00FF"/>
<path d="M776.76 313.027H833.439V249.975H776.76V313.027ZM812.499 297.71C812.499 297.508 812.531 297.411 812.648 297.246L819.855 287.859C820.639 286.868 821.061 285.91 821.061 284.754C821.061 283.265 820.248 282.175 818.829 282.175C817.443 282.175 816.6 283.1 816.417 284.818C816.417 285.018 816.297 285.117 816.087 285.084L812.771 284.488C812.59 284.456 812.499 284.291 812.531 284.091C812.742 280.984 815.032 278.275 818.981 278.275C822.902 278.275 825.283 281.05 825.283 284.687C825.283 286.835 824.498 288.521 823.203 290.14L817.806 297.112V297.178H824.979C825.162 297.178 825.283 297.314 825.283 297.508V300.782C825.283 300.981 825.162 301.113 824.979 301.113H812.799C812.62 301.113 812.499 300.981 812.499 300.782V297.71ZM800.44 282.01C800.44 281.81 800.499 281.68 800.651 281.546L804.089 278.837C804.237 278.705 804.421 278.639 804.63 278.639H808.007C808.188 278.639 808.307 278.771 808.307 278.969V300.782C808.307 300.981 808.188 301.113 808.007 301.113H804.389C804.206 301.113 804.089 300.981 804.089 300.782V283.86H804.028L800.771 286.306C800.588 286.438 800.44 286.372 800.44 286.108L800.44 282.01ZM785.817 300.373L790.545 294.473L786.142 288.958C786.071 288.852 786.119 288.749 786.282 288.749H789.519C789.707 288.749 789.799 288.8 789.892 288.923L792.407 292.124H792.477L794.993 288.923C795.085 288.8 795.177 288.749 795.365 288.749H798.602C798.765 288.749 798.813 288.852 798.742 288.958L794.316 294.473L799.068 300.373C799.138 300.478 799.094 300.582 798.931 300.582H795.691C795.481 300.582 795.389 300.529 795.296 300.408L792.477 296.806H792.408L789.567 300.408C789.473 300.529 789.38 300.582 789.171 300.582H785.957C785.794 300.582 785.724 300.478 785.817 300.373Z" fill="#0F00FF"/>
<path d="M634.062 266.622C633.319 266.622 632.596 266.776 631.955 267.138L611.698 278.836C610.388 279.592 609.591 281.018 609.591 282.536V305.89C609.591 307.406 610.388 308.831 611.698 309.588L616.989 312.642C619.559 313.909 620.506 313.889 621.676 313.889C625.482 313.889 627.654 311.58 627.654 307.567V284.514C627.654 284.188 627.372 283.955 627.052 283.955H624.515C624.19 283.955 623.913 284.188 623.913 284.514V307.567C623.913 309.345 622.06 311.134 619.053 309.631L613.548 306.406C613.353 306.3 613.204 306.113 613.204 305.89V282.535C613.204 282.314 613.351 282.089 613.548 281.976L633.762 270.322C633.853 270.268 633.957 270.24 634.063 270.24C634.168 270.24 634.272 270.268 634.364 270.322L654.578 281.977C654.771 282.093 654.922 282.308 654.922 282.536V305.89C654.922 306.113 654.81 306.342 654.621 306.449L634.364 318.104C634.19 318.208 633.951 318.208 633.762 318.104L628.558 315.008C628.478 314.965 628.39 314.943 628.3 314.943C628.21 314.943 628.121 314.965 628.042 315.008C626.605 315.822 626.335 315.917 624.988 316.384C624.656 316.5 624.152 316.68 625.16 317.245L631.955 321.244C632.596 321.613 633.323 321.807 634.063 321.803C634.803 321.808 635.53 321.615 636.17 321.244L656.428 309.589C657.738 308.827 658.535 307.407 658.535 305.89V282.536C658.535 281.019 657.738 279.595 656.428 278.838L636.17 267.139C635.535 266.777 634.807 266.623 634.063 266.623L634.062 266.622Z" fill="#189100"/>
<path d="M639.482 283.31C633.713 283.31 630.278 285.765 630.278 289.848C630.278 294.276 633.688 295.493 639.224 296.04C645.847 296.689 646.363 297.662 646.363 298.965C646.363 301.227 644.56 302.191 640.299 302.191C634.945 302.191 633.769 300.854 633.375 298.191C633.328 297.905 633.108 297.675 632.815 297.675H630.192C629.869 297.675 629.59 297.953 629.59 298.277C629.59 301.686 631.444 305.718 640.299 305.718C646.709 305.718 650.406 303.202 650.406 298.793C650.406 294.424 647.42 293.25 641.202 292.428C634.92 291.597 634.321 291.19 634.321 289.719C634.321 288.504 634.829 286.879 639.482 286.879C643.639 286.879 645.175 287.776 645.804 290.579C645.859 290.842 646.091 291.052 646.363 291.052H648.987C649.149 291.052 649.305 290.952 649.417 290.836C649.527 290.713 649.605 290.573 649.589 290.407C649.183 285.58 645.964 283.31 639.482 283.31Z" fill="#189100"/>
<path d="M514.971 236C514.745 236 514.522 236.06 514.326 236.172C514.13 236.286 513.968 236.449 513.855 236.646C513.742 236.842 513.682 237.064 513.681 237.29V270.192C513.681 270.515 513.531 270.804 513.251 270.966C513.114 271.046 512.958 271.088 512.799 271.088C512.641 271.088 512.485 271.046 512.348 270.966L506.972 267.87C506.579 267.643 506.134 267.523 505.681 267.523C505.228 267.523 504.783 267.643 504.391 267.87L482.93 280.256C482.127 280.719 481.64 281.609 481.64 282.536V307.309C481.64 308.234 482.128 309.082 482.93 309.545L504.391 321.932C504.783 322.159 505.228 322.279 505.681 322.279C506.134 322.279 506.58 322.159 506.972 321.932L528.433 309.545C528.826 309.319 529.152 308.993 529.379 308.6C529.605 308.208 529.724 307.762 529.723 307.309V245.548C529.723 245.084 529.599 244.629 529.365 244.228C529.131 243.828 528.795 243.497 528.39 243.268L515.616 236.129C515.416 236.017 515.194 235.997 514.971 236ZM376.913 266.924C376.504 266.94 376.119 267.011 375.752 267.224L354.29 279.611C353.897 279.837 353.57 280.163 353.344 280.555C353.117 280.948 352.999 281.394 353 281.847L353.043 315.094C353.043 315.556 353.282 315.986 353.688 316.212C353.883 316.329 354.106 316.391 354.333 316.391C354.561 316.391 354.784 316.329 354.979 316.212L367.709 308.901C368.515 308.421 369.042 307.588 369.042 306.664V291.138C369.042 290.211 369.529 289.361 370.333 288.901L375.751 285.761C376.143 285.534 376.589 285.415 377.042 285.417C377.484 285.417 377.939 285.528 378.332 285.761L383.751 288.901C384.145 289.126 384.471 289.452 384.698 289.845C384.925 290.238 385.043 290.684 385.042 291.138V306.663C385.042 307.587 385.574 308.427 386.375 308.9L399.105 316.212C399.3 316.329 399.523 316.391 399.75 316.391C399.978 316.391 400.201 316.329 400.396 316.212C400.592 316.098 400.755 315.935 400.868 315.739C400.981 315.543 401.041 315.32 401.041 315.093L401.083 281.847C401.086 281.394 400.968 280.947 400.741 280.555C400.514 280.162 400.187 279.836 399.793 279.611L378.332 267.224C377.969 267.011 377.583 266.94 377.171 266.924H376.913ZM569.764 267.224C569.316 267.224 568.877 267.338 568.474 267.569L547.013 279.955C546.62 280.181 546.294 280.507 546.067 280.9C545.841 281.293 545.722 281.738 545.723 282.192V306.965C545.723 307.896 546.247 308.74 547.056 309.201L568.345 321.33C569.131 321.778 570.091 321.812 570.883 321.372L583.785 314.19C584.195 313.962 584.472 313.538 584.473 313.072C584.476 312.845 584.417 312.621 584.304 312.425C584.19 312.228 584.026 312.065 583.829 311.953L562.238 299.567C561.834 299.336 561.55 298.869 561.55 298.405V290.664C561.55 290.201 561.837 289.777 562.238 289.546L568.947 285.675C569.143 285.561 569.366 285.501 569.593 285.501C569.819 285.501 570.042 285.561 570.238 285.675L576.947 289.546C577.143 289.659 577.306 289.822 577.42 290.018C577.533 290.214 577.592 290.437 577.592 290.664V296.771C577.591 296.998 577.651 297.22 577.764 297.417C577.877 297.613 578.041 297.776 578.237 297.889C578.639 298.121 579.126 298.122 579.527 297.889L592.387 290.407C592.78 290.18 593.105 289.853 593.332 289.461C593.558 289.068 593.678 288.623 593.678 288.17V282.192C593.678 281.269 593.188 280.419 592.387 279.955L571.055 267.569C570.663 267.342 570.217 267.223 569.764 267.224ZM505.595 285.718C505.707 285.718 505.839 285.746 505.939 285.804L513.294 290.062C513.494 290.177 513.638 290.39 513.638 290.621V299.136C513.638 299.368 513.495 299.58 513.294 299.696L505.939 303.954C505.841 304.01 505.73 304.039 505.617 304.039C505.504 304.039 505.392 304.01 505.294 303.954L497.94 299.696C497.74 299.58 497.596 299.368 497.596 299.136V290.621C497.596 290.39 497.74 290.178 497.94 290.062L505.294 285.804C505.385 285.748 505.489 285.719 505.596 285.719L505.595 285.718Z" fill="#23241B"/>
<path d="M441.383 267.095C440.936 267.095 440.493 267.209 440.093 267.439L418.632 279.783C417.829 280.245 417.341 281.137 417.341 282.062V306.835C417.341 307.762 417.829 308.608 418.632 309.072L440.093 321.458C440.485 321.686 440.93 321.806 441.383 321.806C441.836 321.806 442.282 321.686 442.674 321.458L464.135 309.072C464.528 308.846 464.854 308.52 465.08 308.127C465.307 307.734 465.426 307.289 465.425 306.835V282.062C465.425 281.136 464.937 280.245 464.135 279.783L442.674 267.439C442.281 267.213 441.836 267.094 441.383 267.095ZM569.721 289.202C569.636 289.202 569.541 289.202 569.464 289.245L565.335 291.653C565.258 291.696 565.194 291.759 565.148 291.834C565.103 291.91 565.078 291.996 565.077 292.084V296.815C565.077 296.993 565.18 297.156 565.335 297.245L569.464 299.61C569.619 299.7 569.784 299.7 569.937 299.61L574.065 297.244C574.142 297.201 574.206 297.139 574.251 297.064C574.297 296.988 574.322 296.902 574.324 296.815V292.083C574.322 291.995 574.297 291.91 574.251 291.834C574.206 291.759 574.142 291.697 574.065 291.653L569.937 289.245C569.86 289.2 569.807 289.202 569.721 289.202Z" fill="#189100"/>
<defs>
<linearGradient id="paint0_linear_0_1" x1="1.18946e-05" y1="620.369" x2="1200" y2="9.63171" gradientUnits="userSpaceOnUse">
<stop offset="0.2" stop-color="#E0BBFF"/>
<stop offset="0.4" stop-color="#A3D5FF"/>
<stop offset="0.6" stop-color="#B2F7EF"/>
<stop offset="0.8" stop-color="#A2F2C2"/>
<stop offset="1" stop-color="#F5F9B2"/>
</linearGradient>
</defs>
</svg>
