<svg width="1200" height="630" viewBox="0 0 1200 630" fill="none" xmlns="http://www.w3.org/2000/svg">
<rect width="1200" height="630" fill="#1E1E1E"/>
<path d="M0 0H1200V630H0V0Z" fill="url(#paint0_linear_0_1)"/>
<path d="M443.449 302.305L458.497 305.25L461.442 290.202" stroke="black" stroke-width="3" stroke-linecap="round" stroke-linejoin="round"/>
<path d="M410 303.572C410.874 299.108 413.052 295.003 416.258 291.777C419.465 288.55 423.556 286.347 428.015 285.446C432.473 284.545 437.099 284.986 441.307 286.713C445.515 288.441 449.116 291.378 451.655 295.152L458.497 305.25" stroke="black" stroke-width="3" stroke-linecap="round" stroke-linejoin="round"/>
<path d="M658.417 303.667H675.083V287" stroke="black" stroke-width="3" stroke-linecap="round" stroke-linejoin="round"/>
<path d="M623 312C623 307.056 624.467 302.222 627.214 298.111C629.961 294 633.865 290.796 638.433 288.904C643.001 287.012 648.028 286.517 652.877 287.482C657.726 288.446 662.181 290.827 665.677 294.323L675.083 303.667" stroke="black" stroke-width="3" stroke-linecap="round" stroke-linejoin="round"/>
<path d="M772.583 320H783.417" stroke="black" stroke-width="2" stroke-linecap="round" stroke-linejoin="round"/>
<path d="M778 325.417V314.583" stroke="black" stroke-width="2" stroke-linecap="round" stroke-linejoin="round"/>
<path d="M426 347H410V363" stroke="black" stroke-width="3" stroke-linecap="round" stroke-linejoin="round"/>
<path d="M460 339C460 343.747 458.592 348.387 455.955 352.333C453.318 356.28 449.57 359.356 445.184 361.172C440.799 362.988 435.974 363.464 431.318 362.538C426.663 361.612 422.386 359.326 419.03 355.97L410 347" stroke="black" stroke-width="3" stroke-linecap="round" stroke-linejoin="round"/>
<path d="M640.5 345.667H623.167V363" stroke="black" stroke-width="3" stroke-linecap="round" stroke-linejoin="round"/>
<path d="M677.333 337C677.333 342.142 675.808 347.169 672.951 351.444C670.094 355.72 666.034 359.052 661.283 361.02C656.532 362.987 651.305 363.502 646.261 362.499C641.218 361.496 636.585 359.02 632.949 355.384L623.167 345.667" stroke="black" stroke-width="3" stroke-linecap="round" stroke-linejoin="round"/>
<path d="M778 307C785.18 307 791 312.82 791 320C791 327.18 785.18 333 778 333C770.82 333 765 327.18 765 320C765 312.82 770.82 307 778 307Z" stroke="black" stroke-width="2" stroke-miterlimit="10"/>
<path d="M573.595 313.037L571.118 312.046C559.477 338.24 513.166 322.315 510.379 330.108C509.915 335.371 535.67 331.109 554.082 332.001C559.697 332.273 562.512 336.511 560.128 343.42L564.824 343.434C570.241 326.547 587.529 335.165 588.251 329.592C587.064 325.928 568.383 329.592 573.595 313.037Z" fill="white"/>
<path d="M561.458 340.532C562.201 338.055 561.953 335.578 560.715 334.092C559.476 332.605 557.742 331.615 555.513 331.367L512.412 330.871C512.165 330.871 511.917 330.624 511.669 330.624C511.422 330.376 511.422 330.128 511.669 329.881C511.917 329.385 512.165 329.137 512.66 329.137L556.008 328.642C561.21 328.394 566.66 324.183 568.641 319.23L571.118 312.789C571.118 312.541 571.366 312.294 571.118 312.046C568.393 299.413 556.999 290 543.623 290C531.238 290 520.586 297.927 516.871 309.074C514.394 307.34 511.422 306.349 507.954 306.597C502.009 307.092 497.302 312.046 496.559 317.991C496.311 319.477 496.559 320.964 496.807 322.449C487.146 322.697 479.22 330.624 479.22 340.532C479.22 341.523 479.22 342.266 479.467 343.257C479.467 343.752 479.963 344 480.211 344H559.724C560.219 344 560.715 343.752 560.715 343.257L561.458 340.532Z" fill="#F4811F"/>
<path d="M575.082 312.789H573.843C573.595 312.789 573.348 313.037 573.1 313.284L571.366 319.229C570.623 321.706 570.871 324.184 572.109 325.67C573.348 327.156 575.082 328.147 577.311 328.395L586.476 328.89C586.724 328.89 586.972 329.138 587.219 329.138C587.467 329.385 587.467 329.633 587.219 329.881C586.972 330.376 586.724 330.624 586.228 330.624L576.816 331.119C571.614 331.367 566.164 335.578 564.183 340.532L563.687 342.762C563.439 343.009 563.687 343.504 564.183 343.504H596.88C597.375 343.504 597.623 343.257 597.623 342.762C598.118 340.78 598.613 338.551 598.613 336.321C598.613 323.44 587.962 312.789 575.082 312.789Z" fill="#FAAD3F"/>
<path d="M834.886 299C832.921 299 830.928 299.215 828.931 299.674C824.742 300.615 820.842 302.562 817.568 305.348C815.363 307.216 813.499 309.455 812.061 311.966C811.007 313.858 810.216 315.887 809.711 317.995C808.783 321.789 808.778 325.807 809.611 329.816C809.809 330.764 810.038 331.71 810.334 332.654C811.114 335.768 812.426 338.722 814.212 341.386C814.123 341.714 814.056 342.048 814.012 342.386C813.755 344.421 814.309 346.475 815.554 348.102C816.798 349.728 818.632 350.796 820.657 351.073C822.218 351.279 823.805 350.996 825.2 350.263C827.638 351.457 830.263 352.286 832.991 352.698C836.318 353.199 839.708 353.076 842.989 352.335C847.241 351.358 851.193 349.362 854.507 346.517C856.719 344.599 858.577 342.305 859.995 339.74C861.759 336.546 862.837 333.017 863.159 329.38C863.437 325.953 863.043 322.504 861.997 319.229C862.405 319.049 862.785 318.82 863.131 318.543C863.132 318.543 863.132 318.543 863.133 318.543C864.071 317.789 864.75 316.684 864.946 315.401C865.139 314.09 864.809 312.756 864.027 311.688C863.244 310.621 862.074 309.907 860.769 309.701C859.813 309.555 858.836 309.695 857.958 310.102C857.869 310.001 857.776 309.9 857.694 309.797C855.464 307 852.708 304.669 849.583 302.936C848.262 302.205 846.89 301.571 845.477 301.04C843.915 300.434 842.308 299.954 840.67 299.604C838.767 299.204 836.83 299.001 834.886 299ZM836.552 299.768C837.357 299.759 838.157 299.791 838.95 299.866C841.144 300.056 843.299 300.56 845.351 301.363C847.647 302.276 849.761 303.606 851.667 305.184C853.541 306.734 855.172 308.58 856.546 310.636C856.607 310.727 856.658 310.823 856.709 310.917C855.855 311.674 855.287 312.704 855.102 313.833C854.917 314.962 855.126 316.121 855.694 317.113C855.326 317.38 853.431 318.733 851.882 319.883C850.916 320.604 850.171 321.187 850.171 321.187L851.527 322.779C851.527 322.779 852.218 322.133 853.079 321.285C854.413 319.969 855.946 318.398 856.334 318C856.885 318.615 857.581 319.082 858.358 319.359C859.135 319.636 859.969 319.714 860.783 319.585C861.345 322.719 861.335 325.929 860.753 329.06C860.174 332.288 859.007 335.381 857.311 338.185C855.974 340.414 854.342 342.452 852.46 344.243C849.684 346.877 846.317 348.978 842.413 350.169C839.42 351.122 836.276 351.507 833.143 351.303C830.705 351.136 828.303 350.622 826.01 349.776C826.906 349.164 827.664 348.37 828.234 347.444C828.803 346.518 829.172 345.483 829.316 344.404C829.509 342.93 829.271 341.432 828.63 340.091C829.05 339.712 829.57 339.241 830.161 338.686C832.529 336.45 835.651 333.293 835.651 333.293L834.554 331.891C834.554 331.891 830.751 334.167 828.019 335.937C827.302 336.401 826.682 336.822 826.206 337.148C825.166 336.378 823.949 335.886 822.668 335.717C819.152 335.253 815.839 337.29 814.532 340.44C813.94 339.633 813.398 338.79 812.91 337.916C811.973 336.219 811.231 334.421 810.698 332.556C810.487 331.62 810.331 330.672 810.232 329.718C809.849 325.847 810.472 322.089 811.699 318.585C812.368 316.721 813.218 314.926 814.236 313.228C815.566 310.961 817.148 308.844 819.063 307.008C823.763 302.45 830.017 299.863 836.552 299.768ZM836.209 307.395C833.848 307.406 831.587 308.352 829.918 310.027C828.249 311.702 827.306 313.971 827.295 316.34V321.866H825.102C823.35 321.866 821.889 323.33 821.889 325.091V333.989H825.296V325.283H847.122V339.951H832.38V343.369H847.313C849.065 343.369 850.526 341.906 850.526 340.145V325.088C850.526 323.33 849.065 321.864 847.313 321.864H845.12V316.337C845.108 313.969 844.165 311.701 842.496 310.026C840.827 308.352 838.567 307.406 836.206 307.395H836.209ZM836.209 310.814C837.667 310.82 839.064 311.405 840.095 312.44C841.126 313.475 841.709 314.876 841.715 316.34V321.866H830.7V316.34C830.707 314.876 831.29 313.475 832.321 312.44C833.352 311.406 834.748 310.821 836.206 310.814H836.209ZM859.871 311.731C860.302 311.712 860.731 311.788 861.129 311.955C861.527 312.122 861.883 312.374 862.172 312.695C862.461 313.016 862.675 313.397 862.8 313.811C862.925 314.225 862.958 314.661 862.895 315.089C862.781 315.836 862.389 316.471 861.838 316.916C861.217 317.415 860.415 317.661 859.579 317.534C858.818 317.414 858.135 316.997 857.679 316.375C857.222 315.752 857.029 314.974 857.141 314.209C857.245 313.545 857.573 312.937 858.07 312.486C858.567 312.035 859.202 311.769 859.871 311.731ZM821.562 338.702C822.529 338.688 823.476 338.972 824.276 339.515C825.076 340.059 825.69 340.836 826.035 341.742C826.306 342.444 826.406 343.212 826.301 344.006C826.135 345.239 825.49 346.355 824.507 347.113C823.524 347.871 822.283 348.208 821.054 348.053C819.826 347.884 818.714 347.236 817.959 346.25C817.205 345.263 816.869 344.018 817.024 342.784C817.175 341.674 817.715 340.654 818.546 339.907C819.377 339.159 820.446 338.732 821.562 338.702Z" fill="#29B83E"/>
<path d="M719.988 338.567V349C737.671 349 751.413 331.926 745.63 313.385C744.366 309.384 742.157 305.746 739.19 302.779C736.223 299.811 732.585 297.603 728.584 296.339C710.074 290.556 693 304.325 693 321.981H703.433C703.433 310.906 714.417 302.338 726.078 306.559C728.219 307.341 730.164 308.581 731.776 310.193C733.388 311.805 734.628 313.749 735.409 315.891C739.658 327.54 731.082 338.512 720.019 338.535V328.161H709.614V338.567H719.988Z" fill="#0080FF"/>
<path d="M709.614 346.581H701.596V338.567H709.614V346.581ZM694.896 338.567H701.596V331.863H694.896V338.567Z" fill="#0080FF"/>
<path d="M362.071 314.54C365.483 314.54 368.755 313.184 371.168 310.772C373.58 308.359 374.936 305.087 374.936 301.675C374.936 298.262 373.58 294.99 371.168 292.577C368.755 290.165 365.483 288.809 362.071 288.809C358.658 288.809 355.386 290.165 352.973 292.577C350.561 294.99 349.205 298.262 349.205 301.675C349.205 305.087 350.561 308.359 352.973 310.772C355.386 313.184 358.658 314.54 362.071 314.54ZM362.071 320.192C344.965 320.192 334 329.632 334 334.227V342.809H390.141V334.227C390.141 328.669 379.76 320.192 362.071 320.192Z" fill="black"/>
<defs>
<linearGradient id="paint0_linear_0_1" x1="3.99313e-05" y1="623.511" x2="1200" y2="6.48932" gradientUnits="userSpaceOnUse">
<stop offset="0.2" stop-color="#E0BBFF"/>
<stop offset="0.4" stop-color="#A3D5FF"/>
<stop offset="0.6" stop-color="#B2F7EF"/>
<stop offset="0.8" stop-color="#A2F2C2"/>
<stop offset="1" stop-color="#F5F9B2"/>
</linearGradient>
</defs>
</svg>
