<svg width="1200" height="630" viewBox="0 0 1200 630" fill="none" xmlns="http://www.w3.org/2000/svg">
<rect width="1200" height="630" fill="#1E1E1E"/>
<path d="M0 0H1200V630H0V0Z" fill="url(#paint0_linear_0_1)"/>
<path d="M336.092 357V329H340.412V341H352.172V329H356.492V357H352.172V344.92H340.412V357H336.092ZM371.702 357.56C369.729 357.56 367.969 357.16 366.422 356.36C364.902 355.533 363.702 354.36 362.822 352.84C361.942 351.32 361.502 349.52 361.502 347.44V346.84C361.502 344.76 361.942 342.973 362.822 341.48C363.702 339.96 364.902 338.787 366.422 337.96C367.969 337.133 369.729 336.72 371.702 336.72C373.675 336.72 375.435 337.133 376.982 337.96C378.529 338.787 379.742 339.96 380.622 341.48C381.502 342.973 381.942 344.76 381.942 346.84V347.44C381.942 349.52 381.502 351.32 380.622 352.84C379.742 354.36 378.529 355.533 376.982 356.36C375.435 357.16 373.675 357.56 371.702 357.56ZM371.702 353.88C373.515 353.88 374.982 353.307 376.102 352.16C377.249 350.987 377.822 349.373 377.822 347.32V346.96C377.822 344.907 377.262 343.307 376.142 342.16C375.022 340.987 373.542 340.4 371.702 340.4C369.915 340.4 368.449 340.987 367.302 342.16C366.182 343.307 365.622 344.907 365.622 346.96V347.32C365.622 349.373 366.182 350.987 367.302 352.16C368.449 353.307 369.915 353.88 371.702 353.88ZM395.151 357.56C392.645 357.56 390.565 357 388.911 355.88C387.258 354.76 386.245 353.067 385.871 350.8L389.711 349.88C389.925 350.973 390.285 351.84 390.791 352.48C391.298 353.12 391.925 353.573 392.671 353.84C393.445 354.107 394.271 354.24 395.151 354.24C396.458 354.24 397.458 353.987 398.151 353.48C398.871 352.973 399.231 352.32 399.231 351.52C399.231 350.72 398.898 350.133 398.231 349.76C397.565 349.387 396.578 349.08 395.271 348.84L393.911 348.6C392.578 348.36 391.365 348.013 390.271 347.56C389.178 347.107 388.311 346.48 387.671 345.68C387.031 344.88 386.711 343.853 386.711 342.6C386.711 340.733 387.405 339.293 388.791 338.28C390.178 337.24 392.018 336.72 394.311 336.72C396.525 336.72 398.338 337.227 399.751 338.24C401.191 339.227 402.125 340.573 402.551 342.28L398.711 343.36C398.471 342.16 397.965 341.32 397.191 340.84C396.418 340.333 395.458 340.08 394.311 340.08C393.191 340.08 392.311 340.293 391.671 340.72C391.031 341.12 390.711 341.693 390.711 342.44C390.711 343.24 391.018 343.827 391.631 344.2C392.271 344.573 393.125 344.853 394.191 345.04L395.591 345.28C397.005 345.52 398.298 345.853 399.471 346.28C400.645 346.707 401.565 347.32 402.231 348.12C402.925 348.92 403.271 349.987 403.271 351.32C403.271 353.293 402.538 354.827 401.071 355.92C399.605 357.013 397.631 357.56 395.151 357.56ZM415.057 357C413.857 357 412.897 356.64 412.177 355.92C411.484 355.2 411.137 354.24 411.137 353.04V340.76H405.697V337.28H411.137V330.76H415.257V337.28H421.137V340.76H415.257V352.32C415.257 353.12 415.631 353.52 416.377 353.52H420.497V357H415.057ZM425.978 357V337.28H430.098V357H425.978ZM428.058 334.6C427.258 334.6 426.578 334.347 426.018 333.84C425.484 333.307 425.218 332.627 425.218 331.8C425.218 330.973 425.484 330.307 426.018 329.8C426.578 329.267 427.258 329 428.058 329C428.884 329 429.564 329.267 430.098 329.8C430.631 330.307 430.898 330.973 430.898 331.8C430.898 332.627 430.631 333.307 430.098 333.84C429.564 334.347 428.884 334.6 428.058 334.6ZM436.212 357V337.28H440.252V340.24H440.892C441.265 339.44 441.932 338.693 442.892 338C443.852 337.307 445.279 336.96 447.172 336.96C448.665 336.96 449.985 337.293 451.132 337.96C452.305 338.627 453.225 339.573 453.892 340.8C454.559 342 454.892 343.453 454.892 345.16V357H450.772V345.48C450.772 343.773 450.345 342.52 449.492 341.72C448.639 340.893 447.465 340.48 445.972 340.48C444.265 340.48 442.892 341.04 441.852 342.16C440.839 343.28 440.332 344.907 440.332 347.04V357H436.212ZM459.861 347.24V346.64C459.861 344.56 460.275 342.787 461.101 341.32C461.955 339.853 463.075 338.72 464.461 337.92C465.848 337.12 467.368 336.72 469.021 336.72C470.941 336.72 472.408 337.08 473.421 337.8C474.461 338.52 475.221 339.293 475.701 340.12H476.341V337.28H480.341V361.04C480.341 362.24 479.981 363.2 479.261 363.92C478.568 364.64 477.608 365 476.381 365H463.101V361.4H475.101C475.875 361.4 476.261 361 476.261 360.2V353.92H475.621C475.328 354.4 474.915 354.893 474.381 355.4C473.848 355.907 473.141 356.32 472.261 356.64C471.408 356.96 470.328 357.12 469.021 357.12C467.368 357.12 465.835 356.733 464.421 355.96C463.035 355.16 461.928 354.027 461.101 352.56C460.275 351.067 459.861 349.293 459.861 347.24ZM470.141 353.52C471.928 353.52 473.395 352.96 474.541 351.84C475.715 350.693 476.301 349.12 476.301 347.12V346.76C476.301 344.707 475.728 343.133 474.581 342.04C473.435 340.92 471.955 340.36 470.141 340.36C468.381 340.36 466.915 340.92 465.741 342.04C464.595 343.133 464.021 344.707 464.021 346.76V347.12C464.021 349.12 464.595 350.693 465.741 351.84C466.915 352.96 468.381 353.52 470.141 353.52ZM498.763 357L495.403 337.28H499.523L502.003 354.24H502.643L506.083 337.28H512.763L516.162 354.24H516.803L519.283 337.28H523.403L520.043 357H513.123L509.723 340.08H509.083L505.683 357H498.763ZM528.282 357V337.28H532.402V357H528.282ZM530.362 334.6C529.562 334.6 528.882 334.347 528.322 333.84C527.789 333.307 527.522 332.627 527.522 331.8C527.522 330.973 527.789 330.307 528.322 329.8C528.882 329.267 529.562 329 530.362 329C531.189 329 531.869 329.267 532.402 329.8C532.936 330.307 533.202 330.973 533.202 331.8C533.202 332.627 532.936 333.307 532.402 333.84C531.869 334.347 531.189 334.6 530.362 334.6ZM545.917 357C544.717 357 543.757 356.64 543.037 355.92C542.343 355.2 541.997 354.24 541.997 353.04V340.76H536.557V337.28H541.997V330.76H546.117V337.28H551.997V340.76H546.117V352.32C546.117 353.12 546.49 353.52 547.237 353.52H551.357V357H545.917ZM556.837 357V329H560.957V340.08H561.597C561.864 339.573 562.237 339.08 562.717 338.6C563.224 338.12 563.877 337.733 564.677 337.44C565.504 337.12 566.544 336.96 567.797 336.96C569.29 336.96 570.61 337.293 571.757 337.96C572.93 338.627 573.85 339.573 574.517 340.8C575.184 342 575.517 343.453 575.517 345.16V357H571.397V345.48C571.397 343.773 570.97 342.52 570.117 341.72C569.264 340.893 568.09 340.48 566.597 340.48C564.89 340.48 563.517 341.04 562.477 342.16C561.464 343.28 560.957 344.907 560.957 347.04V357H556.837ZM600.677 357V353.16H604.437V332.84H600.677V329H611.877C615.61 329 618.464 329.947 620.437 331.84C622.437 333.733 623.437 336.587 623.437 340.4V345.64C623.437 349.453 622.437 352.307 620.437 354.2C618.464 356.067 615.61 357 611.877 357H600.677ZM608.797 353.08H611.917C614.344 353.08 616.144 352.467 617.317 351.24C618.49 350.013 619.077 348.187 619.077 345.76V340.24C619.077 337.787 618.49 335.96 617.317 334.76C616.144 333.56 614.344 332.96 611.917 332.96H608.797V353.08ZM628.438 357V337.28H632.558V357H628.438ZM630.518 334.6C629.718 334.6 629.038 334.347 628.478 333.84C627.945 333.307 627.678 332.627 627.678 331.8C627.678 330.973 627.945 330.307 628.478 329.8C629.038 329.267 629.718 329 630.518 329C631.345 329 632.025 329.267 632.558 329.8C633.092 330.307 633.358 330.973 633.358 331.8C633.358 332.627 633.092 333.307 632.558 333.84C632.025 334.347 631.345 334.6 630.518 334.6ZM637.713 347.24V346.64C637.713 344.56 638.126 342.787 638.953 341.32C639.806 339.853 640.926 338.72 642.313 337.92C643.699 337.12 645.219 336.72 646.873 336.72C648.793 336.72 650.259 337.08 651.273 337.8C652.313 338.52 653.073 339.293 653.553 340.12H654.193V337.28H658.193V361.04C658.193 362.24 657.833 363.2 657.113 363.92C656.419 364.64 655.459 365 654.233 365H640.953V361.4H652.953C653.726 361.4 654.113 361 654.113 360.2V353.92H653.473C653.179 354.4 652.766 354.893 652.233 355.4C651.699 355.907 650.993 356.32 650.113 356.64C649.259 356.96 648.179 357.12 646.873 357.12C645.219 357.12 643.686 356.733 642.273 355.96C640.886 355.16 639.779 354.027 638.953 352.56C638.126 351.067 637.713 349.293 637.713 347.24ZM647.993 353.52C649.779 353.52 651.246 352.96 652.393 351.84C653.566 350.693 654.153 349.12 654.153 347.12V346.76C654.153 344.707 653.579 343.133 652.433 342.04C651.286 340.92 649.806 340.36 647.993 340.36C646.233 340.36 644.766 340.92 643.593 342.04C642.446 343.133 641.873 344.707 641.873 346.76V347.12C641.873 349.12 642.446 350.693 643.593 351.84C644.766 352.96 646.233 353.52 647.993 353.52ZM664.259 357V337.28H668.379V357H664.259ZM666.339 334.6C665.539 334.6 664.859 334.347 664.299 333.84C663.765 333.307 663.499 332.627 663.499 331.8C663.499 330.973 663.765 330.307 664.299 329.8C664.859 329.267 665.539 329 666.339 329C667.165 329 667.845 329.267 668.379 329.8C668.912 330.307 669.179 330.973 669.179 331.8C669.179 332.627 668.912 333.307 668.379 333.84C667.845 334.347 667.165 334.6 666.339 334.6ZM681.893 357C680.693 357 679.733 356.64 679.013 355.92C678.32 355.2 677.973 354.24 677.973 353.04V340.76H672.533V337.28H677.973V330.76H682.093V337.28H687.973V340.76H682.093V352.32C682.093 353.12 682.466 353.52 683.213 353.52H687.333V357H681.893ZM698.894 357.56C697.481 357.56 696.214 357.32 695.094 356.84C694.001 356.36 693.121 355.653 692.454 354.72C691.814 353.787 691.494 352.653 691.494 351.32C691.494 349.96 691.814 348.84 692.454 347.96C693.121 347.053 694.014 346.373 695.134 345.92C696.281 345.467 697.574 345.24 699.014 345.24H705.014V343.96C705.014 342.813 704.668 341.893 703.974 341.2C703.281 340.507 702.214 340.16 700.774 340.16C699.361 340.16 698.281 340.493 697.534 341.16C696.788 341.827 696.294 342.693 696.054 343.76L692.214 342.52C692.534 341.453 693.041 340.493 693.734 339.64C694.454 338.76 695.401 338.053 696.574 337.52C697.748 336.987 699.161 336.72 700.814 336.72C703.374 336.72 705.388 337.373 706.854 338.68C708.321 339.987 709.054 341.84 709.054 344.24V352.36C709.054 353.16 709.428 353.56 710.174 353.56H711.854V357H708.774C707.841 357 707.081 356.76 706.494 356.28C705.908 355.8 705.614 355.147 705.614 354.32V354.2H705.014C704.801 354.6 704.481 355.067 704.054 355.6C703.628 356.133 703.001 356.6 702.174 357C701.348 357.373 700.254 357.56 698.894 357.56ZM699.494 354.16C701.148 354.16 702.481 353.693 703.494 352.76C704.508 351.8 705.014 350.493 705.014 348.84V348.44H699.254C698.161 348.44 697.281 348.68 696.614 349.16C695.948 349.613 695.614 350.293 695.614 351.2C695.614 352.107 695.961 352.827 696.654 353.36C697.348 353.893 698.294 354.16 699.494 354.16ZM715.86 357V329H719.98V357H715.86ZM746.69 357.56C743.25 357.56 740.517 356.6 738.49 354.68C736.463 352.733 735.45 349.933 735.45 346.28V339.72C735.45 336.067 736.463 333.28 738.49 331.36C740.517 329.413 743.25 328.44 746.69 328.44C750.13 328.44 752.863 329.413 754.89 331.36C756.943 333.28 757.97 336.067 757.97 339.72V346.28C757.97 349.933 756.943 352.733 754.89 354.68C752.863 356.6 750.13 357.56 746.69 357.56ZM746.69 353.68C748.903 353.68 750.61 353.04 751.81 351.76C753.01 350.453 753.61 348.68 753.61 346.44V339.56C753.61 337.32 753.01 335.56 751.81 334.28C750.61 332.973 748.903 332.32 746.69 332.32C744.53 332.32 742.837 332.973 741.61 334.28C740.383 335.56 739.77 337.32 739.77 339.56V346.44C739.77 348.68 740.383 350.453 741.61 351.76C742.837 353.04 744.53 353.68 746.69 353.68ZM772.364 357.56C770.471 357.56 768.751 357.16 767.204 356.36C765.684 355.56 764.471 354.4 763.564 352.88C762.684 351.36 762.244 349.533 762.244 347.4V346.88C762.244 344.747 762.684 342.933 763.564 341.44C764.471 339.92 765.684 338.76 767.204 337.96C768.751 337.133 770.471 336.72 772.364 336.72C774.257 336.72 775.871 337.067 777.204 337.76C778.537 338.453 779.604 339.373 780.404 340.52C781.231 341.667 781.764 342.933 782.004 344.32L778.004 345.16C777.871 344.28 777.591 343.48 777.164 342.76C776.737 342.04 776.137 341.467 775.364 341.04C774.591 340.613 773.617 340.4 772.444 340.4C771.297 340.4 770.257 340.667 769.324 341.2C768.417 341.707 767.697 342.453 767.164 343.44C766.631 344.4 766.364 345.573 766.364 346.96V347.32C766.364 348.707 766.631 349.893 767.164 350.88C767.697 351.867 768.417 352.613 769.324 353.12C770.257 353.627 771.297 353.88 772.444 353.88C774.177 353.88 775.497 353.44 776.404 352.56C777.311 351.653 777.884 350.507 778.124 349.12L782.124 350.04C781.804 351.4 781.231 352.653 780.404 353.8C779.604 354.947 778.537 355.867 777.204 356.56C775.871 357.227 774.257 357.56 772.364 357.56ZM795.916 357.56C793.916 357.56 792.169 357.147 790.676 356.32C789.183 355.467 788.009 354.28 787.156 352.76C786.329 351.213 785.916 349.427 785.916 347.4V346.92C785.916 344.867 786.329 343.08 787.156 341.56C787.983 340.013 789.129 338.827 790.596 338C792.089 337.147 793.809 336.72 795.756 336.72C797.649 336.72 799.303 337.147 800.716 338C802.156 338.827 803.276 339.987 804.076 341.48C804.876 342.973 805.276 344.72 805.276 346.72V348.28H790.116C790.169 350.013 790.743 351.4 791.836 352.44C792.956 353.453 794.343 353.96 795.996 353.96C797.543 353.96 798.703 353.613 799.476 352.92C800.276 352.227 800.889 351.427 801.316 350.52L804.716 352.28C804.343 353.027 803.796 353.813 803.076 354.64C802.383 355.467 801.463 356.16 800.316 356.72C799.169 357.28 797.703 357.56 795.916 357.56ZM790.156 345.12H801.076C800.969 343.627 800.436 342.467 799.476 341.64C798.516 340.787 797.263 340.36 795.716 340.36C794.169 340.36 792.903 340.787 791.916 341.64C790.956 342.467 790.369 343.627 790.156 345.12ZM816.355 357.56C814.942 357.56 813.675 357.32 812.555 356.84C811.462 356.36 810.582 355.653 809.915 354.72C809.275 353.787 808.955 352.653 808.955 351.32C808.955 349.96 809.275 348.84 809.915 347.96C810.582 347.053 811.475 346.373 812.595 345.92C813.742 345.467 815.035 345.24 816.475 345.24H822.475V343.96C822.475 342.813 822.129 341.893 821.435 341.2C820.742 340.507 819.675 340.16 818.235 340.16C816.822 340.16 815.742 340.493 814.995 341.16C814.249 341.827 813.755 342.693 813.515 343.76L809.675 342.52C809.995 341.453 810.502 340.493 811.195 339.64C811.915 338.76 812.862 338.053 814.035 337.52C815.209 336.987 816.622 336.72 818.275 336.72C820.835 336.72 822.849 337.373 824.315 338.68C825.782 339.987 826.515 341.84 826.515 344.24V352.36C826.515 353.16 826.889 353.56 827.635 353.56H829.315V357H826.235C825.302 357 824.542 356.76 823.955 356.28C823.369 355.8 823.075 355.147 823.075 354.32V354.2H822.475C822.262 354.6 821.942 355.067 821.515 355.6C821.089 356.133 820.462 356.6 819.635 357C818.809 357.373 817.715 357.56 816.355 357.56ZM816.955 354.16C818.609 354.16 819.942 353.693 820.955 352.76C821.969 351.8 822.475 350.493 822.475 348.84V348.44H816.715C815.622 348.44 814.742 348.68 814.075 349.16C813.409 349.613 813.075 350.293 813.075 351.2C813.075 352.107 813.422 352.827 814.115 353.36C814.809 353.893 815.755 354.16 816.955 354.16ZM833.321 357V337.28H837.361V340.24H838.001C838.375 339.44 839.041 338.693 840.001 338C840.961 337.307 842.388 336.96 844.281 336.96C845.775 336.96 847.095 337.293 848.241 337.96C849.415 338.627 850.335 339.573 851.001 340.8C851.668 342 852.001 343.453 852.001 345.16V357H847.881V345.48C847.881 343.773 847.455 342.52 846.601 341.72C845.748 340.893 844.575 340.48 843.081 340.48C841.375 340.48 840.001 341.04 838.961 342.16C837.948 343.28 837.441 344.907 837.441 347.04V357H833.321ZM857.971 362.44V360.08H859.331C860.424 360.08 860.971 359.533 860.971 358.44V357.16H860.371C859.437 357.16 858.664 356.88 858.051 356.32C857.437 355.76 857.131 355.053 857.131 354.2C857.131 353.267 857.437 352.52 858.051 351.96C858.664 351.373 859.437 351.08 860.371 351.08C861.304 351.08 862.064 351.387 862.651 352C863.264 352.587 863.571 353.36 863.571 354.32V358.48C863.571 361.12 862.251 362.44 859.611 362.44H857.971ZM407.156 408.56C403.743 408.56 401.036 407.6 399.036 405.68C397.036 403.733 396.036 400.933 396.036 397.28V390.72C396.036 387.067 397.036 384.28 399.036 382.36C401.036 380.413 403.743 379.44 407.156 379.44C410.516 379.44 413.103 380.373 414.916 382.24C416.756 384.107 417.676 386.653 417.676 389.88V390.12H413.396V389.76C413.396 387.867 412.876 386.32 411.836 385.12C410.823 383.92 409.263 383.32 407.156 383.32C405.023 383.32 403.356 383.973 402.156 385.28C400.956 386.56 400.356 388.347 400.356 390.64V397.36C400.356 399.627 400.956 401.413 402.156 402.72C403.356 404.027 405.023 404.68 407.156 404.68C409.263 404.68 410.823 404.08 411.836 402.88C412.876 401.653 413.396 400.107 413.396 398.24V397.56H417.676V398.12C417.676 401.347 416.756 403.893 414.916 405.76C413.103 407.627 410.516 408.56 407.156 408.56ZM428.699 408.56C427.286 408.56 426.019 408.32 424.899 407.84C423.806 407.36 422.926 406.653 422.259 405.72C421.619 404.787 421.299 403.653 421.299 402.32C421.299 400.96 421.619 399.84 422.259 398.96C422.926 398.053 423.819 397.373 424.939 396.92C426.086 396.467 427.379 396.24 428.819 396.24H434.819V394.96C434.819 393.813 434.472 392.893 433.779 392.2C433.086 391.507 432.019 391.16 430.579 391.16C429.166 391.16 428.086 391.493 427.339 392.16C426.592 392.827 426.099 393.693 425.859 394.76L422.019 393.52C422.339 392.453 422.846 391.493 423.539 390.64C424.259 389.76 425.206 389.053 426.379 388.52C427.552 387.987 428.966 387.72 430.619 387.72C433.179 387.72 435.192 388.373 436.659 389.68C438.126 390.987 438.859 392.84 438.859 395.24V403.36C438.859 404.16 439.232 404.56 439.979 404.56H441.659V408H438.579C437.646 408 436.886 407.76 436.299 407.28C435.712 406.8 435.419 406.147 435.419 405.32V405.2H434.819C434.606 405.6 434.286 406.067 433.859 406.6C433.432 407.133 432.806 407.6 431.979 408C431.152 408.373 430.059 408.56 428.699 408.56ZM429.299 405.16C430.952 405.16 432.286 404.693 433.299 403.76C434.312 402.8 434.819 401.493 434.819 399.84V399.44H429.059C427.966 399.44 427.086 399.68 426.419 400.16C425.752 400.613 425.419 401.293 425.419 402.2C425.419 403.107 425.766 403.827 426.459 404.36C427.152 404.893 428.099 405.16 429.299 405.16ZM453.356 408.56C451.73 408.56 450.223 408.16 448.836 407.36C447.45 406.56 446.33 405.413 445.476 403.92C444.65 402.4 444.236 400.573 444.236 398.44V397.84C444.236 395.733 444.65 393.92 445.476 392.4C446.303 390.88 447.41 389.72 448.796 388.92C450.183 388.12 451.703 387.72 453.356 387.72C454.636 387.72 455.703 387.88 456.556 388.2C457.436 388.52 458.156 388.933 458.716 389.44C459.276 389.92 459.703 390.427 459.996 390.96H460.636V380H464.756V408H460.716V405.2H460.076C459.57 406.053 458.796 406.827 457.756 407.52C456.743 408.213 455.276 408.56 453.356 408.56ZM454.516 404.96C456.303 404.96 457.77 404.387 458.916 403.24C460.09 402.093 460.676 400.453 460.676 398.32V397.96C460.676 395.853 460.103 394.227 458.956 393.08C457.81 391.933 456.33 391.36 454.516 391.36C452.756 391.36 451.29 391.933 450.116 393.08C448.97 394.227 448.396 395.853 448.396 397.96V398.32C448.396 400.453 448.97 402.093 450.116 403.24C451.29 404.387 452.756 404.96 454.516 404.96ZM478.981 408.56C477.355 408.56 475.848 408.16 474.461 407.36C473.075 406.56 471.955 405.413 471.101 403.92C470.275 402.4 469.861 400.573 469.861 398.44V397.84C469.861 395.733 470.275 393.92 471.101 392.4C471.928 390.88 473.035 389.72 474.421 388.92C475.808 388.12 477.328 387.72 478.981 387.72C480.261 387.72 481.328 387.88 482.181 388.2C483.061 388.52 483.781 388.933 484.341 389.44C484.901 389.92 485.328 390.427 485.621 390.96H486.261V380H490.381V408H486.341V405.2H485.701C485.195 406.053 484.421 406.827 483.381 407.52C482.368 408.213 480.901 408.56 478.981 408.56ZM480.141 404.96C481.928 404.96 483.395 404.387 484.541 403.24C485.715 402.093 486.301 400.453 486.301 398.32V397.96C486.301 395.853 485.728 394.227 484.581 393.08C483.435 391.933 481.955 391.36 480.141 391.36C478.381 391.36 476.915 391.933 475.741 393.08C474.595 394.227 474.021 395.853 474.021 397.96V398.32C474.021 400.453 474.595 402.093 475.741 403.24C476.915 404.387 478.381 404.96 480.141 404.96ZM498.726 416V412.4H509.726C510.473 412.4 510.846 412 510.846 411.2V405.12H510.206C509.966 405.653 509.593 406.173 509.086 406.68C508.606 407.16 507.953 407.56 507.126 407.88C506.3 408.2 505.26 408.36 504.006 408.36C502.513 408.36 501.18 408.027 500.006 407.36C498.833 406.693 497.913 405.747 497.246 404.52C496.58 403.293 496.246 401.84 496.246 400.16V388.28H500.366V399.84C500.366 401.547 500.793 402.813 501.646 403.64C502.5 404.44 503.686 404.84 505.206 404.84C506.886 404.84 508.233 404.28 509.246 403.16C510.286 402.04 510.806 400.413 510.806 398.28V388.28H514.926V412.04C514.926 413.24 514.566 414.2 513.846 414.92C513.153 415.64 512.193 416 510.966 416H498.726ZM537.332 408.56C535.919 408.56 534.652 408.32 533.532 407.84C532.439 407.36 531.559 406.653 530.892 405.72C530.252 404.787 529.932 403.653 529.932 402.32C529.932 400.96 530.252 399.84 530.892 398.96C531.559 398.053 532.452 397.373 533.572 396.92C534.719 396.467 536.012 396.24 537.452 396.24H543.452V394.96C543.452 393.813 543.105 392.893 542.412 392.2C541.719 391.507 540.652 391.16 539.212 391.16C537.799 391.16 536.719 391.493 535.972 392.16C535.225 392.827 534.732 393.693 534.492 394.76L530.652 393.52C530.972 392.453 531.479 391.493 532.172 390.64C532.892 389.76 533.839 389.053 535.012 388.52C536.185 387.987 537.599 387.72 539.252 387.72C541.812 387.72 543.825 388.373 545.292 389.68C546.759 390.987 547.492 392.84 547.492 395.24V403.36C547.492 404.16 547.865 404.56 548.612 404.56H550.292V408H547.212C546.279 408 545.519 407.76 544.932 407.28C544.345 406.8 544.052 406.147 544.052 405.32V405.2H543.452C543.239 405.6 542.919 406.067 542.492 406.6C542.065 407.133 541.439 407.6 540.612 408C539.785 408.373 538.692 408.56 537.332 408.56ZM537.932 405.16C539.585 405.16 540.919 404.693 541.932 403.76C542.945 402.8 543.452 401.493 543.452 399.84V399.44H537.692C536.599 399.44 535.719 399.68 535.052 400.16C534.385 400.613 534.052 401.293 534.052 402.2C534.052 403.107 534.399 403.827 535.092 404.36C535.785 404.893 536.732 405.16 537.932 405.16ZM554.298 408V388.28H558.338V391.24H558.978C559.351 390.44 560.018 389.693 560.978 389C561.938 388.307 563.364 387.96 565.258 387.96C566.751 387.96 568.071 388.293 569.218 388.96C570.391 389.627 571.311 390.573 571.978 391.8C572.644 393 572.978 394.453 572.978 396.16V408H568.858V396.48C568.858 394.773 568.431 393.52 567.578 392.72C566.724 391.893 565.551 391.48 564.058 391.48C562.351 391.48 560.978 392.04 559.938 393.16C558.924 394.28 558.418 395.907 558.418 398.04V408H554.298ZM587.067 408.56C585.441 408.56 583.934 408.16 582.547 407.36C581.161 406.56 580.041 405.413 579.187 403.92C578.361 402.4 577.947 400.573 577.947 398.44V397.84C577.947 395.733 578.361 393.92 579.187 392.4C580.014 390.88 581.121 389.72 582.507 388.92C583.894 388.12 585.414 387.72 587.067 387.72C588.347 387.72 589.414 387.88 590.267 388.2C591.147 388.52 591.867 388.933 592.427 389.44C592.987 389.92 593.414 390.427 593.707 390.96H594.347V380H598.467V408H594.427V405.2H593.787C593.281 406.053 592.507 406.827 591.467 407.52C590.454 408.213 588.987 408.56 587.067 408.56ZM588.227 404.96C590.014 404.96 591.481 404.387 592.627 403.24C593.801 402.093 594.387 400.453 594.387 398.32V397.96C594.387 395.853 593.814 394.227 592.667 393.08C591.521 391.933 590.041 391.36 588.227 391.36C586.467 391.36 585.001 391.933 583.827 393.08C582.681 394.227 582.107 395.853 582.107 397.96V398.32C582.107 400.453 582.681 402.093 583.827 403.24C585.001 404.387 586.467 404.96 588.227 404.96ZM625.008 408.56C621.594 408.56 618.888 407.6 616.888 405.68C614.888 403.733 613.888 400.933 613.888 397.28V390.72C613.888 387.067 614.888 384.28 616.888 382.36C618.888 380.413 621.594 379.44 625.008 379.44C628.368 379.44 630.954 380.373 632.768 382.24C634.608 384.107 635.528 386.653 635.528 389.88V390.12H631.248V389.76C631.248 387.867 630.728 386.32 629.688 385.12C628.674 383.92 627.114 383.32 625.008 383.32C622.874 383.32 621.208 383.973 620.008 385.28C618.808 386.56 618.208 388.347 618.208 390.64V397.36C618.208 399.627 618.808 401.413 620.008 402.72C621.208 404.027 622.874 404.68 625.008 404.68C627.114 404.68 628.674 404.08 629.688 402.88C630.728 401.653 631.248 400.107 631.248 398.24V397.56H635.528V398.12C635.528 401.347 634.608 403.893 632.768 405.76C630.954 407.627 628.368 408.56 625.008 408.56ZM640.431 408V380H644.551V408H640.431ZM659.905 408.56C657.932 408.56 656.172 408.16 654.625 407.36C653.105 406.533 651.905 405.36 651.025 403.84C650.145 402.32 649.705 400.52 649.705 398.44V397.84C649.705 395.76 650.145 393.973 651.025 392.48C651.905 390.96 653.105 389.787 654.625 388.96C656.172 388.133 657.932 387.72 659.905 387.72C661.878 387.72 663.638 388.133 665.185 388.96C666.732 389.787 667.945 390.96 668.825 392.48C669.705 393.973 670.145 395.76 670.145 397.84V398.44C670.145 400.52 669.705 402.32 668.825 403.84C667.945 405.36 666.732 406.533 665.185 407.36C663.638 408.16 661.878 408.56 659.905 408.56ZM659.905 404.88C661.718 404.88 663.185 404.307 664.305 403.16C665.452 401.987 666.025 400.373 666.025 398.32V397.96C666.025 395.907 665.465 394.307 664.345 393.16C663.225 391.987 661.745 391.4 659.905 391.4C658.118 391.4 656.652 391.987 655.505 393.16C654.385 394.307 653.825 395.907 653.825 397.96V398.32C653.825 400.373 654.385 401.987 655.505 403.16C656.652 404.307 658.118 404.88 659.905 404.88ZM682.834 408.36C681.341 408.36 680.008 408.027 678.834 407.36C677.661 406.693 676.741 405.747 676.074 404.52C675.408 403.293 675.074 401.827 675.074 400.12V388.28H679.194V399.84C679.194 401.547 679.621 402.813 680.474 403.64C681.328 404.44 682.514 404.84 684.034 404.84C685.714 404.84 687.061 404.28 688.074 403.16C689.114 402.013 689.634 400.373 689.634 398.24V388.28H693.754V408H689.714V405.04H689.074C688.701 405.84 688.034 406.6 687.074 407.32C686.114 408.013 684.701 408.36 682.834 408.36ZM708.005 408.56C706.378 408.56 704.871 408.16 703.485 407.36C702.098 406.56 700.978 405.413 700.125 403.92C699.298 402.4 698.885 400.573 698.885 398.44V397.84C698.885 395.733 699.298 393.92 700.125 392.4C700.951 390.88 702.058 389.72 703.445 388.92C704.831 388.12 706.351 387.72 708.005 387.72C709.285 387.72 710.351 387.88 711.205 388.2C712.085 388.52 712.805 388.933 713.365 389.44C713.925 389.92 714.351 390.427 714.645 390.96H715.285V380H719.405V408H715.365V405.2H714.725C714.218 406.053 713.445 406.827 712.405 407.52C711.391 408.213 709.925 408.56 708.005 408.56ZM709.165 404.96C710.951 404.96 712.418 404.387 713.565 403.24C714.738 402.093 715.325 400.453 715.325 398.32V397.96C715.325 395.853 714.751 394.227 713.605 393.08C712.458 391.933 710.978 391.36 709.165 391.36C707.405 391.36 705.938 391.933 704.765 393.08C703.618 394.227 703.045 395.853 703.045 397.96V398.32C703.045 400.453 703.618 402.093 704.765 403.24C705.938 404.387 707.405 404.96 709.165 404.96ZM725.35 408V380H742.63V383.92H729.67V392H741.59V395.92H729.67V408H725.35ZM746.954 408V380H751.074V408H746.954ZM763.308 408.56C761.895 408.56 760.628 408.32 759.508 407.84C758.415 407.36 757.535 406.653 756.868 405.72C756.228 404.787 755.908 403.653 755.908 402.32C755.908 400.96 756.228 399.84 756.868 398.96C757.535 398.053 758.428 397.373 759.548 396.92C760.695 396.467 761.988 396.24 763.428 396.24H769.428V394.96C769.428 393.813 769.082 392.893 768.388 392.2C767.695 391.507 766.628 391.16 765.188 391.16C763.775 391.16 762.695 391.493 761.948 392.16C761.202 392.827 760.708 393.693 760.468 394.76L756.628 393.52C756.948 392.453 757.455 391.493 758.148 390.64C758.868 389.76 759.815 389.053 760.988 388.52C762.162 387.987 763.575 387.72 765.228 387.72C767.788 387.72 769.802 388.373 771.268 389.68C772.735 390.987 773.468 392.84 773.468 395.24V403.36C773.468 404.16 773.842 404.56 774.588 404.56H776.268V408H773.188C772.255 408 771.495 407.76 770.908 407.28C770.322 406.8 770.028 406.147 770.028 405.32V405.2H769.428C769.215 405.6 768.895 406.067 768.468 406.6C768.042 407.133 767.415 407.6 766.588 408C765.762 408.373 764.668 408.56 763.308 408.56ZM763.908 405.16C765.562 405.16 766.895 404.693 767.908 403.76C768.922 402.8 769.428 401.493 769.428 399.84V399.44H763.668C762.575 399.44 761.695 399.68 761.028 400.16C760.362 400.613 760.028 401.293 760.028 402.2C760.028 403.107 760.375 403.827 761.068 404.36C761.762 404.893 762.708 405.16 763.908 405.16ZM780.274 408V388.28H784.314V390.6H784.954C785.274 389.773 785.781 389.173 786.474 388.8C787.194 388.4 788.074 388.2 789.114 388.2H791.474V391.92H788.954C787.621 391.92 786.528 392.293 785.674 393.04C784.821 393.76 784.394 394.88 784.394 396.4V408H780.274ZM804.08 408.56C802.08 408.56 800.333 408.147 798.84 407.32C797.347 406.467 796.173 405.28 795.32 403.76C794.493 402.213 794.08 400.427 794.08 398.4V397.92C794.08 395.867 794.493 394.08 795.32 392.56C796.147 391.013 797.293 389.827 798.76 389C800.253 388.147 801.973 387.72 803.92 387.72C805.813 387.72 807.467 388.147 808.88 389C810.32 389.827 811.44 390.987 812.24 392.48C813.04 393.973 813.44 395.72 813.44 397.72V399.28H798.28C798.333 401.013 798.907 402.4 800 403.44C801.12 404.453 802.507 404.96 804.16 404.96C805.707 404.96 806.867 404.613 807.64 403.92C808.44 403.227 809.053 402.427 809.48 401.52L812.88 403.28C812.507 404.027 811.96 404.813 811.24 405.64C810.547 406.467 809.627 407.16 808.48 407.72C807.333 408.28 805.867 408.56 804.08 408.56ZM798.32 396.12H809.24C809.133 394.627 808.6 393.467 807.64 392.64C806.68 391.787 805.427 391.36 803.88 391.36C802.333 391.36 801.067 391.787 800.08 392.64C799.12 393.467 798.533 394.627 798.32 396.12Z" fill="black"/>
<path d="M443.449 231.305L458.497 234.25L461.442 219.202" stroke="black" stroke-width="3" stroke-linecap="round" stroke-linejoin="round"/>
<path d="M410 232.572C410.874 228.108 413.052 224.003 416.258 220.777C419.465 217.55 423.556 215.347 428.015 214.446C432.473 213.545 437.099 213.986 441.307 215.713C445.515 217.441 449.116 220.378 451.655 224.152L458.497 234.25" stroke="black" stroke-width="3" stroke-linecap="round" stroke-linejoin="round"/>
<path d="M658.417 232.667H675.083V216" stroke="black" stroke-width="3" stroke-linecap="round" stroke-linejoin="round"/>
<path d="M623 241C623 236.056 624.467 231.222 627.214 227.111C629.961 223 633.865 219.796 638.433 217.904C643.001 216.012 648.028 215.517 652.877 216.482C657.726 217.446 662.181 219.827 665.677 223.323L675.083 232.667" stroke="black" stroke-width="3" stroke-linecap="round" stroke-linejoin="round"/>
<path d="M772.583 249H783.417" stroke="black" stroke-width="2" stroke-linecap="round" stroke-linejoin="round"/>
<path d="M778 254.417V243.583" stroke="black" stroke-width="2" stroke-linecap="round" stroke-linejoin="round"/>
<path d="M426 276H410V292" stroke="black" stroke-width="3" stroke-linecap="round" stroke-linejoin="round"/>
<path d="M460 268C460 272.747 458.592 277.387 455.955 281.333C453.318 285.28 449.57 288.356 445.184 290.172C440.799 291.988 435.974 292.464 431.318 291.538C426.663 290.612 422.386 288.326 419.03 284.97L410 276" stroke="black" stroke-width="3" stroke-linecap="round" stroke-linejoin="round"/>
<path d="M640.5 274.667H623.167V292" stroke="black" stroke-width="3" stroke-linecap="round" stroke-linejoin="round"/>
<path d="M677.333 266C677.333 271.142 675.808 276.169 672.951 280.444C670.094 284.72 666.034 288.052 661.283 290.02C656.532 291.987 651.305 292.502 646.261 291.499C641.218 290.496 636.585 288.02 632.949 284.384L623.167 274.667" stroke="black" stroke-width="3" stroke-linecap="round" stroke-linejoin="round"/>
<path d="M778 236C785.18 236 791 241.82 791 249C791 256.18 785.18 262 778 262C770.82 262 765 256.18 765 249C765 241.82 770.82 236 778 236Z" stroke="black" stroke-width="2" stroke-miterlimit="10"/>
<path d="M573.595 242.037L571.118 241.046C559.477 267.24 513.166 251.315 510.379 259.108C509.915 264.371 535.67 260.109 554.082 261.001C559.697 261.273 562.512 265.511 560.128 272.42L564.824 272.434C570.241 255.547 587.529 264.165 588.251 258.592C587.064 254.928 568.383 258.592 573.595 242.037Z" fill="white"/>
<path d="M561.458 269.532C562.201 267.055 561.953 264.578 560.715 263.092C559.476 261.605 557.742 260.615 555.513 260.367L512.412 259.871C512.165 259.871 511.917 259.624 511.669 259.624C511.422 259.376 511.422 259.128 511.669 258.881C511.917 258.385 512.165 258.137 512.66 258.137L556.008 257.642C561.21 257.394 566.66 253.183 568.641 248.23L571.118 241.789C571.118 241.541 571.366 241.294 571.118 241.046C568.393 228.413 556.999 219 543.623 219C531.238 219 520.586 226.927 516.871 238.074C514.394 236.34 511.422 235.349 507.954 235.597C502.009 236.092 497.302 241.046 496.559 246.991C496.311 248.477 496.559 249.964 496.807 251.449C487.146 251.697 479.22 259.624 479.22 269.532C479.22 270.523 479.22 271.266 479.467 272.257C479.467 272.752 479.963 273 480.211 273H559.724C560.219 273 560.715 272.752 560.715 272.257L561.458 269.532Z" fill="#F4811F"/>
<path d="M575.082 241.789H573.843C573.595 241.789 573.348 242.037 573.1 242.284L571.366 248.229C570.623 250.706 570.871 253.184 572.109 254.67C573.348 256.156 575.082 257.147 577.311 257.395L586.476 257.89C586.724 257.89 586.972 258.138 587.219 258.138C587.467 258.385 587.467 258.633 587.219 258.881C586.972 259.376 586.724 259.624 586.228 259.624L576.816 260.119C571.614 260.367 566.164 264.578 564.183 269.532L563.687 271.762C563.439 272.009 563.687 272.504 564.183 272.504H596.88C597.375 272.504 597.623 272.257 597.623 271.762C598.118 269.78 598.613 267.551 598.613 265.321C598.613 252.44 587.962 241.789 575.082 241.789Z" fill="#FAAD3F"/>
<path d="M834.886 228C832.921 228 830.928 228.215 828.931 228.674C824.742 229.615 820.842 231.562 817.568 234.348C815.363 236.216 813.499 238.455 812.061 240.966C811.007 242.858 810.216 244.887 809.711 246.995C808.783 250.789 808.778 254.807 809.611 258.816C809.809 259.764 810.038 260.71 810.334 261.654C811.114 264.768 812.426 267.722 814.212 270.386C814.123 270.714 814.056 271.048 814.012 271.386C813.755 273.421 814.309 275.475 815.554 277.102C816.798 278.728 818.632 279.796 820.657 280.073C822.218 280.279 823.805 279.996 825.2 279.263C827.638 280.457 830.263 281.286 832.991 281.698C836.318 282.199 839.708 282.076 842.989 281.335C847.241 280.358 851.193 278.362 854.507 275.517C856.719 273.599 858.577 271.305 859.995 268.74C861.759 265.546 862.837 262.017 863.159 258.38C863.437 254.953 863.043 251.504 861.997 248.229C862.405 248.049 862.785 247.82 863.131 247.543C863.132 247.543 863.132 247.543 863.133 247.543C864.071 246.789 864.75 245.684 864.946 244.401C865.139 243.09 864.809 241.756 864.027 240.688C863.244 239.621 862.074 238.907 860.769 238.701C859.813 238.555 858.836 238.695 857.958 239.102C857.869 239.001 857.776 238.9 857.694 238.797C855.464 236 852.708 233.669 849.583 231.936C848.262 231.205 846.89 230.571 845.477 230.04C843.915 229.434 842.308 228.954 840.67 228.604C838.767 228.204 836.83 228.001 834.886 228ZM836.552 228.768C837.357 228.759 838.157 228.791 838.95 228.866C841.144 229.056 843.299 229.56 845.351 230.363C847.647 231.276 849.761 232.606 851.667 234.184C853.541 235.734 855.172 237.58 856.546 239.636C856.607 239.727 856.658 239.823 856.709 239.917C855.855 240.674 855.287 241.704 855.102 242.833C854.917 243.962 855.126 245.121 855.694 246.113C855.326 246.38 853.431 247.733 851.882 248.883C850.916 249.604 850.171 250.187 850.171 250.187L851.527 251.779C851.527 251.779 852.218 251.133 853.079 250.285C854.413 248.969 855.946 247.398 856.334 247C856.885 247.615 857.581 248.082 858.358 248.359C859.135 248.636 859.969 248.714 860.783 248.585C861.345 251.719 861.335 254.929 860.753 258.06C860.174 261.288 859.007 264.381 857.311 267.185C855.974 269.414 854.342 271.452 852.46 273.243C849.684 275.877 846.317 277.978 842.413 279.169C839.42 280.122 836.276 280.507 833.143 280.303C830.705 280.136 828.303 279.622 826.01 278.776C826.906 278.164 827.664 277.37 828.234 276.444C828.803 275.518 829.172 274.483 829.316 273.404C829.509 271.93 829.271 270.432 828.63 269.091C829.05 268.712 829.57 268.241 830.161 267.686C832.529 265.45 835.651 262.293 835.651 262.293L834.554 260.891C834.554 260.891 830.751 263.167 828.019 264.937C827.302 265.401 826.682 265.822 826.206 266.148C825.166 265.378 823.949 264.886 822.668 264.717C819.152 264.253 815.839 266.29 814.532 269.44C813.94 268.633 813.398 267.79 812.91 266.916C811.973 265.219 811.231 263.421 810.698 261.556C810.487 260.62 810.331 259.672 810.232 258.718C809.849 254.847 810.472 251.089 811.699 247.585C812.368 245.721 813.218 243.926 814.236 242.228C815.566 239.961 817.148 237.844 819.063 236.008C823.763 231.45 830.017 228.863 836.552 228.768ZM836.209 236.395C833.848 236.406 831.587 237.352 829.918 239.027C828.249 240.702 827.306 242.971 827.295 245.34V250.866H825.102C823.35 250.866 821.889 252.33 821.889 254.091V262.989H825.296V254.283H847.122V268.951H832.38V272.369H847.313C849.065 272.369 850.526 270.906 850.526 269.145V254.088C850.526 252.33 849.065 250.864 847.313 250.864H845.12V245.337C845.108 242.969 844.165 240.701 842.496 239.026C840.827 237.352 838.567 236.406 836.206 236.395H836.209ZM836.209 239.814C837.667 239.82 839.064 240.405 840.095 241.44C841.126 242.475 841.709 243.876 841.715 245.34V250.866H830.7V245.34C830.707 243.876 831.29 242.475 832.321 241.44C833.352 240.406 834.748 239.821 836.206 239.814H836.209ZM859.871 240.731C860.302 240.712 860.731 240.788 861.129 240.955C861.527 241.122 861.883 241.374 862.172 241.695C862.461 242.016 862.675 242.397 862.8 242.811C862.925 243.225 862.958 243.661 862.895 244.089C862.781 244.836 862.389 245.471 861.838 245.916C861.217 246.415 860.415 246.661 859.579 246.534C858.818 246.414 858.135 245.997 857.679 245.375C857.222 244.752 857.029 243.974 857.141 243.209C857.245 242.545 857.573 241.937 858.07 241.486C858.567 241.035 859.202 240.769 859.871 240.731ZM821.562 267.702C822.529 267.688 823.476 267.972 824.276 268.515C825.076 269.059 825.69 269.836 826.035 270.742C826.306 271.444 826.406 272.212 826.301 273.006C826.135 274.239 825.49 275.355 824.507 276.113C823.524 276.871 822.283 277.208 821.054 277.053C819.826 276.884 818.714 276.236 817.959 275.25C817.205 274.263 816.869 273.018 817.024 271.784C817.175 270.674 817.715 269.654 818.546 268.907C819.377 268.159 820.446 267.732 821.562 267.702Z" fill="#29B83E"/>
<path d="M719.988 267.567V278C737.671 278 751.413 260.926 745.63 242.385C744.366 238.384 742.157 234.746 739.19 231.779C736.223 228.811 732.585 226.603 728.584 225.339C710.074 219.556 693 233.325 693 250.981H703.433C703.433 239.906 714.417 231.338 726.078 235.559C728.219 236.341 730.164 237.581 731.776 239.193C733.388 240.805 734.628 242.749 735.409 244.891C739.658 256.54 731.082 267.512 720.019 267.535V257.161H709.614V267.567H719.988Z" fill="#0080FF"/>
<path d="M709.614 275.581H701.596V267.567H709.614V275.581ZM694.896 267.567H701.596V260.863H694.896V267.567Z" fill="#0080FF"/>
<path d="M362.071 243.54C365.483 243.54 368.755 242.184 371.168 239.772C373.58 237.359 374.936 234.087 374.936 230.675C374.936 227.262 373.58 223.99 371.168 221.577C368.755 219.165 365.483 217.809 362.071 217.809C358.658 217.809 355.386 219.165 352.973 221.577C350.561 223.99 349.205 227.262 349.205 230.675C349.205 234.087 350.561 237.359 352.973 239.772C355.386 242.184 358.658 243.54 362.071 243.54ZM362.071 249.192C344.965 249.192 334 258.632 334 263.227V271.809H390.141V263.227C390.141 257.669 379.76 249.192 362.071 249.192Z" fill="black"/>
<defs>
<linearGradient id="paint0_linear_0_1" x1="3.99313e-05" y1="623.511" x2="1200" y2="6.48932" gradientUnits="userSpaceOnUse">
<stop offset="0.2" stop-color="#E0BBFF"/>
<stop offset="0.4" stop-color="#A3D5FF"/>
<stop offset="0.6" stop-color="#B2F7EF"/>
<stop offset="0.8" stop-color="#A2F2C2"/>
<stop offset="1" stop-color="#F5F9B2"/>
</linearGradient>
</defs>
</svg>
