<svg width="1200" height="630" viewBox="0 0 1200 630" fill="none" xmlns="http://www.w3.org/2000/svg">
<rect width="1200" height="630" fill="#1E1E1E"/>
<rect width="1200" height="630" fill="url(#paint0_linear_0_1)"/>
<path d="M637.648 295.268L642.641 314.244L623.665 319.237" stroke="black" stroke-width="8" stroke-linecap="round" stroke-linejoin="round"/>
<path d="M561.743 315.241C594.701 334.467 597.698 288.026 630.656 307.253L642.641 314.244" stroke="black" stroke-width="8" stroke-linecap="round" stroke-linejoin="round"/>
<path d="M756.469 280.344H670.531" stroke="black" stroke-width="10" stroke-linecap="round" stroke-linejoin="round"/>
<path d="M693.969 264.719H733.031" stroke="black" stroke-width="10" stroke-linecap="round" stroke-linejoin="round"/>
<path d="M748.656 280.344V354.562C748.656 355.599 748.245 356.592 747.512 357.325C746.78 358.057 745.786 358.469 744.75 358.469H682.25C681.214 358.469 680.22 358.057 679.488 357.325C678.755 356.592 678.344 355.599 678.344 354.562V280.344" stroke="black" stroke-width="10" stroke-linecap="round" stroke-linejoin="round"/>
<path d="M483 254C449.905 253.96 423.04 280.76 423 313.855V314C423 347.2 449.795 374 483 374C516.2 374 543 347.2 543 314C543 280.795 516.2 254 483 254ZM483 358.005C458.77 358.08 439.07 338.485 438.995 314.255V314C438.925 289.77 458.515 270.07 482.745 269.995H483C507.235 269.925 526.93 289.515 527.005 313.745V314C527.08 338.235 507.485 357.93 483.255 358.005H483ZM510.2 299.205C510.2 306 504.6 311.6 497.795 311.6C490.965 311.565 485.435 306.035 485.4 299.205C485.4 292.4 491 286.8 497.795 286.8C504.6 286.8 510.2 292.4 510.2 299.205ZM510.2 328.8C510.2 335.6 504.6 341.2 497.795 341.2C490.96 341.16 485.43 335.63 485.4 328.8C485.4 322.005 491 316.405 497.795 316.405C504.6 316.4 510.2 322.005 510.2 328.8ZM480.605 328.8C480.605 335.6 475.005 341.2 468.21 341.2C461.37 341.165 455.835 335.635 455.805 328.8C455.805 322.005 461.405 316.405 468.21 316.405C475 316.4 480.605 322.005 480.605 328.8ZM480.605 299.205C480.605 306 475.005 311.6 468.21 311.6C461.375 311.565 455.835 306.04 455.805 299.205C455.805 292.4 461.405 286.8 468.21 286.8C475 286.8 480.605 292.4 480.605 299.205Z" fill="#F22F46"/>
<defs>
<linearGradient id="paint0_linear_0_1" x1="0.000148383" y1="614.502" x2="1200" y2="15.4372" gradientUnits="userSpaceOnUse">
<stop offset="0.2" stop-color="#E0BBFF"/>
<stop offset="0.4" stop-color="#A3D5FF"/>
<stop offset="0.6" stop-color="#B2F7EF"/>
<stop offset="0.8" stop-color="#A2F2C2"/>
<stop offset="1" stop-color="#F5F9B2"/>
</linearGradient>
</defs>
</svg>
