<svg width="1200" height="630" viewBox="0 0 1200 630" fill="none" xmlns="http://www.w3.org/2000/svg">
<rect width="1200" height="630" fill="#1E1E1E"/>
<rect width="1200" height="630" fill="url(#paint0_linear_0_1)"/>
<path d="M637.648 326.268L642.641 345.244L623.665 350.237" stroke="black" stroke-width="8" stroke-linecap="round" stroke-linejoin="round"/>
<path d="M561.743 346.241C594.701 365.467 597.698 319.026 630.656 338.253L642.641 345.244" stroke="black" stroke-width="8" stroke-linecap="round" stroke-linejoin="round"/>
<path d="M756.469 311.344H670.531" stroke="black" stroke-width="10" stroke-linecap="round" stroke-linejoin="round"/>
<path d="M693.969 295.719H733.031" stroke="black" stroke-width="10" stroke-linecap="round" stroke-linejoin="round"/>
<path d="M748.656 311.344V385.562C748.656 386.599 748.245 387.592 747.512 388.325C746.78 389.057 745.786 389.469 744.75 389.469H682.25C681.214 389.469 680.22 389.057 679.488 388.325C678.755 387.592 678.344 386.599 678.344 385.562V311.344" stroke="black" stroke-width="10" stroke-linecap="round" stroke-linejoin="round"/>
<path d="M483 285C449.905 284.96 423.04 311.76 423 344.855V345C423 378.2 449.795 405 483 405C516.2 405 543 378.2 543 345C543 311.795 516.2 285 483 285ZM483 389.005C458.77 389.08 439.07 369.485 438.995 345.255V345C438.925 320.77 458.515 301.07 482.745 300.995H483C507.235 300.925 526.93 320.515 527.005 344.745V345C527.08 369.235 507.485 388.93 483.255 389.005H483ZM510.2 330.205C510.2 337 504.6 342.6 497.795 342.6C490.965 342.565 485.435 337.035 485.4 330.205C485.4 323.4 491 317.8 497.795 317.8C504.6 317.8 510.2 323.4 510.2 330.205ZM510.2 359.8C510.2 366.6 504.6 372.2 497.795 372.2C490.96 372.16 485.43 366.63 485.4 359.8C485.4 353.005 491 347.405 497.795 347.405C504.6 347.4 510.2 353.005 510.2 359.8ZM480.605 359.8C480.605 366.6 475.005 372.2 468.21 372.2C461.37 372.165 455.835 366.635 455.805 359.8C455.805 353.005 461.405 347.405 468.21 347.405C475 347.4 480.605 353.005 480.605 359.8ZM480.605 330.205C480.605 337 475.005 342.6 468.21 342.6C461.375 342.565 455.835 337.04 455.805 330.205C455.805 323.4 461.405 317.8 468.21 317.8C475 317.8 480.605 323.4 480.605 330.205Z" fill="#F22F46"/>
<path d="M317.656 257V252.824H320.968V235.976H317.656V231.8H328.024C331.408 231.8 333.976 232.664 335.728 234.392C337.504 236.096 338.392 238.64 338.392 242.024V246.776C338.392 250.16 337.504 252.716 335.728 254.444C333.976 256.148 331.408 257 328.024 257H317.656ZM325.72 252.68H328.096C330.016 252.68 331.42 252.176 332.308 251.168C333.196 250.16 333.64 248.744 333.64 246.92V241.88C333.64 240.032 333.196 238.616 332.308 237.632C331.42 236.624 330.016 236.12 328.096 236.12H325.72V252.68ZM350.633 257.504C348.857 257.504 347.285 257.132 345.917 256.388C344.573 255.62 343.517 254.552 342.749 253.184C342.005 251.792 341.633 250.16 341.633 248.288V247.856C341.633 245.984 342.005 244.364 342.749 242.996C343.493 241.604 344.537 240.536 345.881 239.792C347.225 239.024 348.785 238.64 350.561 238.64C352.313 238.64 353.837 239.036 355.133 239.828C356.429 240.596 357.437 241.676 358.157 243.068C358.877 244.436 359.237 246.032 359.237 247.856V249.404H346.241C346.289 250.628 346.745 251.624 347.609 252.392C348.473 253.16 349.529 253.544 350.777 253.544C352.049 253.544 352.985 253.268 353.585 252.716C354.185 252.164 354.641 251.552 354.953 250.88L358.661 252.824C358.325 253.448 357.833 254.132 357.185 254.876C356.561 255.596 355.721 256.22 354.665 256.748C353.609 257.252 352.265 257.504 350.633 257.504ZM346.277 246.02H354.629C354.533 244.988 354.113 244.16 353.369 243.536C352.649 242.912 351.701 242.6 350.525 242.6C349.301 242.6 348.329 242.912 347.609 243.536C346.889 244.16 346.445 244.988 346.277 246.02ZM363.274 257V231.8H367.81V257H363.274ZM380.972 257.504C379.196 257.504 377.624 257.132 376.256 256.388C374.912 255.62 373.856 254.552 373.088 253.184C372.344 251.792 371.972 250.16 371.972 248.288V247.856C371.972 245.984 372.344 244.364 373.088 242.996C373.832 241.604 374.876 240.536 376.22 239.792C377.564 239.024 379.124 238.64 380.9 238.64C382.652 238.64 384.176 239.036 385.472 239.828C386.768 240.596 387.776 241.676 388.496 243.068C389.216 244.436 389.576 246.032 389.576 247.856V249.404H376.58C376.628 250.628 377.084 251.624 377.948 252.392C378.812 253.16 379.868 253.544 381.116 253.544C382.388 253.544 383.324 253.268 383.924 252.716C384.524 252.164 384.98 251.552 385.292 250.88L389 252.824C388.664 253.448 388.172 254.132 387.524 254.876C386.9 255.596 386.06 256.22 385.004 256.748C383.948 257.252 382.604 257.504 380.972 257.504ZM376.616 246.02H384.968C384.872 244.988 384.452 244.16 383.708 243.536C382.988 242.912 382.04 242.6 380.864 242.6C379.64 242.6 378.668 242.912 377.948 243.536C377.228 244.16 376.784 244.988 376.616 246.02ZM399.856 257C398.68 257 397.72 256.64 396.976 255.92C396.256 255.176 395.896 254.192 395.896 252.968V242.888H391.432V239.144H395.896V233.6H400.432V239.144H405.328V242.888H400.432V252.176C400.432 252.896 400.768 253.256 401.44 253.256H404.896V257H399.856ZM409.434 257V239.144H413.97V257H409.434ZM411.702 237.056C410.886 237.056 410.19 236.792 409.614 236.264C409.062 235.736 408.786 235.04 408.786 234.176C408.786 233.312 409.062 232.616 409.614 232.088C410.19 231.56 410.886 231.296 411.702 231.296C412.542 231.296 413.238 231.56 413.79 232.088C414.342 232.616 414.618 233.312 414.618 234.176C414.618 235.04 414.342 235.736 413.79 236.264C413.238 236.792 412.542 237.056 411.702 237.056ZM418.997 257V239.144H423.461V241.484H424.109C424.397 240.86 424.937 240.272 425.729 239.72C426.521 239.144 427.721 238.856 429.329 238.856C430.721 238.856 431.933 239.18 432.965 239.828C434.021 240.452 434.837 241.328 435.413 242.456C435.989 243.56 436.277 244.856 436.277 246.344V257H431.741V246.704C431.741 245.36 431.405 244.352 430.733 243.68C430.085 243.008 429.149 242.672 427.925 242.672C426.533 242.672 425.453 243.14 424.685 244.076C423.917 244.988 423.533 246.272 423.533 247.928V257H418.997ZM440.316 248.144V247.568C440.316 245.696 440.688 244.1 441.432 242.78C442.176 241.436 443.16 240.416 444.384 239.72C445.632 239 446.988 238.64 448.452 238.64C450.084 238.64 451.32 238.928 452.16 239.504C453 240.08 453.612 240.68 453.996 241.304H454.644V239.144H459.108V260.168C459.108 261.392 458.748 262.364 458.028 263.084C457.308 263.828 456.348 264.2 455.148 264.2H443.196V260.24H453.564C454.236 260.24 454.572 259.88 454.572 259.16V254.516H453.924C453.684 254.9 453.348 255.296 452.916 255.704C452.484 256.088 451.908 256.412 451.188 256.676C450.468 256.94 449.556 257.072 448.452 257.072C446.988 257.072 445.632 256.724 444.384 256.028C443.16 255.308 442.176 254.288 441.432 252.968C440.688 251.624 440.316 250.016 440.316 248.144ZM449.748 253.112C451.14 253.112 452.304 252.668 453.24 251.78C454.176 250.892 454.644 249.644 454.644 248.036V247.676C454.644 246.044 454.176 244.796 453.24 243.932C452.328 243.044 451.164 242.6 449.748 242.6C448.356 242.6 447.192 243.044 446.256 243.932C445.32 244.796 444.852 246.044 444.852 247.676V248.036C444.852 249.644 445.32 250.892 446.256 251.78C447.192 252.668 448.356 253.112 449.748 253.112ZM477.876 257V236.12H470.532V231.8H489.972V236.12H482.628V257H477.876ZM492.331 257L489.811 239.144H494.311L495.895 253.94H496.543L498.847 239.144H506.119L508.423 253.94H509.071L510.655 239.144H515.155L512.635 257H505.111L502.807 242.204H502.159L499.855 257H492.331ZM519.122 257V239.144H523.658V257H519.122ZM521.39 237.056C520.574 237.056 519.878 236.792 519.302 236.264C518.75 235.736 518.474 235.04 518.474 234.176C518.474 233.312 518.75 232.616 519.302 232.088C519.878 231.56 520.574 231.296 521.39 231.296C522.23 231.296 522.926 231.56 523.478 232.088C524.03 232.616 524.306 233.312 524.306 234.176C524.306 235.04 524.03 235.736 523.478 236.264C522.926 236.792 522.23 237.056 521.39 237.056ZM528.684 257V231.8H533.22V257H528.684ZM538.247 257V239.144H542.783V257H538.247ZM540.515 237.056C539.699 237.056 539.003 236.792 538.427 236.264C537.875 235.736 537.599 235.04 537.599 234.176C537.599 233.312 537.875 232.616 538.427 232.088C539.003 231.56 539.699 231.296 540.515 231.296C541.355 231.296 542.051 231.56 542.603 232.088C543.155 232.616 543.431 233.312 543.431 234.176C543.431 235.04 543.155 235.736 542.603 236.264C542.051 236.792 541.355 237.056 540.515 237.056ZM556.305 257.504C554.529 257.504 552.933 257.144 551.517 256.424C550.101 255.704 548.985 254.66 548.169 253.292C547.353 251.924 546.945 250.28 546.945 248.36V247.784C546.945 245.864 547.353 244.22 548.169 242.852C548.985 241.484 550.101 240.44 551.517 239.72C552.933 239 554.529 238.64 556.305 238.64C558.081 238.64 559.677 239 561.093 239.72C562.509 240.44 563.625 241.484 564.441 242.852C565.257 244.22 565.665 245.864 565.665 247.784V248.36C565.665 250.28 565.257 251.924 564.441 253.292C563.625 254.66 562.509 255.704 561.093 256.424C559.677 257.144 558.081 257.504 556.305 257.504ZM556.305 253.472C557.697 253.472 558.849 253.028 559.761 252.14C560.673 251.228 561.129 249.932 561.129 248.252V247.892C561.129 246.212 560.673 244.928 559.761 244.04C558.873 243.128 557.721 242.672 556.305 242.672C554.913 242.672 553.761 243.128 552.849 244.04C551.937 244.928 551.481 246.212 551.481 247.892V248.252C551.481 249.932 551.937 251.228 552.849 252.14C553.761 253.028 554.913 253.472 556.305 253.472ZM578.849 257V231.8H583.601V252.68H595.121V257H578.849ZM607 257.504C605.224 257.504 603.628 257.144 602.212 256.424C600.796 255.704 599.68 254.66 598.864 253.292C598.048 251.924 597.64 250.28 597.64 248.36V247.784C597.64 245.864 598.048 244.22 598.864 242.852C599.68 241.484 600.796 240.44 602.212 239.72C603.628 239 605.224 238.64 607 238.64C608.776 238.64 610.372 239 611.788 239.72C613.204 240.44 614.32 241.484 615.136 242.852C615.952 244.22 616.36 245.864 616.36 247.784V248.36C616.36 250.28 615.952 251.924 615.136 253.292C614.32 254.66 613.204 255.704 611.788 256.424C610.372 257.144 608.776 257.504 607 257.504ZM607 253.472C608.392 253.472 609.544 253.028 610.456 252.14C611.368 251.228 611.824 249.932 611.824 248.252V247.892C611.824 246.212 611.368 244.928 610.456 244.04C609.568 243.128 608.416 242.672 607 242.672C605.608 242.672 604.456 243.128 603.544 244.04C602.632 244.928 602.176 246.212 602.176 247.892V248.252C602.176 249.932 602.632 251.228 603.544 252.14C604.456 253.028 605.608 253.472 607 253.472ZM619.683 248.144V247.568C619.683 245.696 620.055 244.1 620.799 242.78C621.543 241.436 622.527 240.416 623.751 239.72C624.999 239 626.355 238.64 627.819 238.64C629.451 238.64 630.687 238.928 631.527 239.504C632.367 240.08 632.979 240.68 633.363 241.304H634.011V239.144H638.475V260.168C638.475 261.392 638.115 262.364 637.395 263.084C636.675 263.828 635.715 264.2 634.515 264.2H622.563V260.24H632.931C633.603 260.24 633.939 259.88 633.939 259.16V254.516H633.291C633.051 254.9 632.715 255.296 632.283 255.704C631.851 256.088 631.275 256.412 630.555 256.676C629.835 256.94 628.923 257.072 627.819 257.072C626.355 257.072 624.999 256.724 623.751 256.028C622.527 255.308 621.543 254.288 620.799 252.968C620.055 251.624 619.683 250.016 619.683 248.144ZM629.115 253.112C630.507 253.112 631.671 252.668 632.607 251.78C633.543 250.892 634.011 249.644 634.011 248.036V247.676C634.011 246.044 633.543 244.796 632.607 243.932C631.695 243.044 630.531 242.6 629.115 242.6C627.723 242.6 626.559 243.044 625.623 243.932C624.687 244.796 624.219 246.044 624.219 247.676V248.036C624.219 249.644 624.687 250.892 625.623 251.78C626.559 252.668 627.723 253.112 629.115 253.112ZM650.92 257.504C648.592 257.504 646.684 257 645.196 255.992C643.708 254.984 642.808 253.544 642.496 251.672L646.672 250.592C646.84 251.432 647.116 252.092 647.5 252.572C647.908 253.052 648.4 253.4 648.976 253.616C649.576 253.808 650.224 253.904 650.92 253.904C651.976 253.904 652.756 253.724 653.26 253.364C653.764 252.98 654.016 252.512 654.016 251.96C654.016 251.408 653.776 250.988 653.296 250.7C652.816 250.388 652.048 250.136 650.992 249.944L649.984 249.764C648.736 249.524 647.596 249.2 646.564 248.792C645.532 248.36 644.704 247.772 644.08 247.028C643.456 246.284 643.144 245.324 643.144 244.148C643.144 242.372 643.792 241.016 645.088 240.08C646.384 239.12 648.088 238.64 650.2 238.64C652.192 238.64 653.848 239.084 655.168 239.972C656.488 240.86 657.352 242.024 657.76 243.464L653.548 244.76C653.356 243.848 652.96 243.2 652.36 242.816C651.784 242.432 651.064 242.24 650.2 242.24C649.336 242.24 648.676 242.396 648.22 242.708C647.764 242.996 647.536 243.404 647.536 243.932C647.536 244.508 647.776 244.94 648.256 245.228C648.736 245.492 649.384 245.696 650.2 245.84L651.208 246.02C652.552 246.26 653.764 246.584 654.844 246.992C655.948 247.376 656.812 247.94 657.436 248.684C658.084 249.404 658.408 250.388 658.408 251.636C658.408 253.508 657.724 254.96 656.356 255.992C655.012 257 653.2 257.504 650.92 257.504ZM672.964 257L670.444 239.144H674.944L676.528 253.94H677.176L679.48 239.144H686.752L689.056 253.94H689.704L691.288 239.144H695.788L693.268 257H685.744L683.44 242.204H682.792L680.488 257H672.964ZM699.754 257V239.144H704.29V257H699.754ZM702.022 237.056C701.206 237.056 700.51 236.792 699.934 236.264C699.382 235.736 699.106 235.04 699.106 234.176C699.106 233.312 699.382 232.616 699.934 232.088C700.51 231.56 701.206 231.296 702.022 231.296C702.862 231.296 703.558 231.56 704.11 232.088C704.662 232.616 704.938 233.312 704.938 234.176C704.938 235.04 704.662 235.736 704.11 236.264C703.558 236.792 702.862 237.056 702.022 237.056ZM716.157 257C714.981 257 714.021 256.64 713.277 255.92C712.557 255.176 712.197 254.192 712.197 252.968V242.888H707.733V239.144H712.197V233.6H716.733V239.144H721.629V242.888H716.733V252.176C716.733 252.896 717.069 253.256 717.741 253.256H721.197V257H716.157ZM725.735 257V231.8H730.271V241.34H730.919C731.111 240.956 731.411 240.572 731.819 240.188C732.227 239.804 732.767 239.492 733.439 239.252C734.135 238.988 735.011 238.856 736.067 238.856C737.459 238.856 738.671 239.18 739.703 239.828C740.759 240.452 741.575 241.328 742.151 242.456C742.727 243.56 743.015 244.856 743.015 246.344V257H738.479V246.704C738.479 245.36 738.143 244.352 737.471 243.68C736.823 243.008 735.887 242.672 734.663 242.672C733.271 242.672 732.191 243.14 731.423 244.076C730.655 244.988 730.271 246.272 730.271 247.928V257H725.735ZM756.915 257V231.8H765.951L770.955 253.76H771.603V231.8H776.283V257H767.247L762.243 235.04H761.595V257H756.915ZM789.672 257.504C787.896 257.504 786.3 257.144 784.884 256.424C783.468 255.704 782.352 254.66 781.536 253.292C780.72 251.924 780.312 250.28 780.312 248.36V247.784C780.312 245.864 780.72 244.22 781.536 242.852C782.352 241.484 783.468 240.44 784.884 239.72C786.3 239 787.896 238.64 789.672 238.64C791.448 238.64 793.044 239 794.46 239.72C795.876 240.44 796.992 241.484 797.808 242.852C798.624 244.22 799.032 245.864 799.032 247.784V248.36C799.032 250.28 798.624 251.924 797.808 253.292C796.992 254.66 795.876 255.704 794.46 256.424C793.044 257.144 791.448 257.504 789.672 257.504ZM789.672 253.472C791.064 253.472 792.216 253.028 793.128 252.14C794.04 251.228 794.496 249.932 794.496 248.252V247.892C794.496 246.212 794.04 244.928 793.128 244.04C792.24 243.128 791.088 242.672 789.672 242.672C788.28 242.672 787.128 243.128 786.216 244.04C785.304 244.928 784.848 246.212 784.848 247.892V248.252C784.848 249.932 785.304 251.228 786.216 252.14C787.128 253.028 788.28 253.472 789.672 253.472ZM810.419 257.504C809.003 257.504 807.671 257.156 806.423 256.46C805.199 255.74 804.215 254.696 803.471 253.328C802.727 251.96 802.355 250.304 802.355 248.36V247.784C802.355 245.84 802.727 244.184 803.471 242.816C804.215 241.448 805.199 240.416 806.423 239.72C807.647 239 808.979 238.64 810.419 238.64C811.499 238.64 812.399 238.772 813.119 239.036C813.863 239.276 814.463 239.588 814.919 239.972C815.375 240.356 815.723 240.764 815.963 241.196H816.611V231.8H821.147V257H816.683V254.84H816.035C815.627 255.512 814.991 256.124 814.127 256.676C813.287 257.228 812.051 257.504 810.419 257.504ZM811.787 253.544C813.179 253.544 814.343 253.1 815.279 252.212C816.215 251.3 816.683 249.98 816.683 248.252V247.892C816.683 246.164 816.215 244.856 815.279 243.968C814.367 243.056 813.203 242.6 811.787 242.6C810.395 242.6 809.231 243.056 808.295 243.968C807.359 244.856 806.891 246.164 806.891 247.892V248.252C806.891 249.98 807.359 251.3 808.295 252.212C809.231 253.1 810.395 253.544 811.787 253.544ZM834.312 257.504C832.536 257.504 830.964 257.132 829.596 256.388C828.252 255.62 827.196 254.552 826.428 253.184C825.684 251.792 825.312 250.16 825.312 248.288V247.856C825.312 245.984 825.684 244.364 826.428 242.996C827.172 241.604 828.216 240.536 829.56 239.792C830.904 239.024 832.464 238.64 834.24 238.64C835.992 238.64 837.516 239.036 838.812 239.828C840.108 240.596 841.116 241.676 841.836 243.068C842.556 244.436 842.916 246.032 842.916 247.856V249.404H829.92C829.968 250.628 830.424 251.624 831.288 252.392C832.152 253.16 833.208 253.544 834.456 253.544C835.728 253.544 836.664 253.268 837.264 252.716C837.864 252.164 838.32 251.552 838.632 250.88L842.34 252.824C842.004 253.448 841.512 254.132 840.864 254.876C840.24 255.596 839.4 256.22 838.344 256.748C837.288 257.252 835.944 257.504 834.312 257.504ZM829.956 246.02H838.308C838.212 244.988 837.792 244.16 837.048 243.536C836.328 242.912 835.38 242.6 834.204 242.6C832.98 242.6 832.008 242.912 831.288 243.536C830.568 244.16 830.124 244.988 829.956 246.02ZM849.587 257.504C848.627 257.504 847.811 257.192 847.139 256.568C846.491 255.92 846.167 255.092 846.167 254.084C846.167 253.076 846.491 252.26 847.139 251.636C847.811 250.988 848.627 250.664 849.587 250.664C850.571 250.664 851.387 250.988 852.035 251.636C852.683 252.26 853.007 253.076 853.007 254.084C853.007 255.092 852.683 255.92 852.035 256.568C851.387 257.192 850.571 257.504 849.587 257.504ZM854.153 264.2V260.312H856.529C857.201 260.312 857.537 259.952 857.537 259.232V239.144H862.073V260.168C862.073 261.392 861.713 262.364 860.993 263.084C860.273 263.828 859.313 264.2 858.113 264.2H854.153ZM859.805 237.056C858.989 237.056 858.293 236.792 857.717 236.264C857.165 235.736 856.889 235.04 856.889 234.176C856.889 233.312 857.165 232.616 857.717 232.088C858.293 231.56 858.989 231.296 859.805 231.296C860.645 231.296 861.341 231.56 861.893 232.088C862.445 232.616 862.721 233.312 862.721 234.176C862.721 235.04 862.445 235.736 861.893 236.264C861.341 236.792 860.645 237.056 859.805 237.056ZM874.514 257.504C872.186 257.504 870.278 257 868.79 255.992C867.302 254.984 866.402 253.544 866.09 251.672L870.266 250.592C870.434 251.432 870.71 252.092 871.094 252.572C871.502 253.052 871.994 253.4 872.57 253.616C873.17 253.808 873.818 253.904 874.514 253.904C875.57 253.904 876.35 253.724 876.854 253.364C877.358 252.98 877.61 252.512 877.61 251.96C877.61 251.408 877.37 250.988 876.89 250.7C876.41 250.388 875.642 250.136 874.586 249.944L873.578 249.764C872.33 249.524 871.19 249.2 870.158 248.792C869.126 248.36 868.298 247.772 867.674 247.028C867.05 246.284 866.738 245.324 866.738 244.148C866.738 242.372 867.386 241.016 868.682 240.08C869.978 239.12 871.682 238.64 873.794 238.64C875.786 238.64 877.442 239.084 878.762 239.972C880.082 240.86 880.946 242.024 881.354 243.464L877.142 244.76C876.95 243.848 876.554 243.2 875.954 242.816C875.378 242.432 874.658 242.24 873.794 242.24C872.93 242.24 872.27 242.396 871.814 242.708C871.358 242.996 871.13 243.404 871.13 243.932C871.13 244.508 871.37 244.94 871.85 245.228C872.33 245.492 872.978 245.696 873.794 245.84L874.802 246.02C876.146 246.26 877.358 246.584 878.438 246.992C879.542 247.376 880.406 247.94 881.03 248.684C881.678 249.404 882.002 250.388 882.002 251.636C882.002 253.508 881.318 254.96 879.95 255.992C878.606 257 876.794 257.504 874.514 257.504Z" fill="black"/>
<defs>
<linearGradient id="paint0_linear_0_1" x1="0.000148383" y1="614.502" x2="1200" y2="15.4372" gradientUnits="userSpaceOnUse">
<stop offset="0.2" stop-color="#E0BBFF"/>
<stop offset="0.4" stop-color="#A3D5FF"/>
<stop offset="0.6" stop-color="#B2F7EF"/>
<stop offset="0.8" stop-color="#A2F2C2"/>
<stop offset="1" stop-color="#F5F9B2"/>
</linearGradient>
</defs>
</svg>
